SplineFontDB: 3.0
FontName: Crimson-Italic
FullName: Crimson Italic
FamilyName: Crimson
Weight: Italic
Copyright: Copyright (c) 2010, Sebastian Kosch (sebastian@aldusleaf.org),\nwith Reserved Font Name "Crimson".\nThis Font Software is licensed under the SIL Open Font License, Version 1.1.\nThis license is available with a FAQ at: http://scripts.sil.org/OFL
UComments: "2010-5-9: Created."
Version: 0.8
StyleMapFamilyName: 
ItalicAngle: -11
UnderlinePosition: -102
UnderlineWidth: 51
Ascent: 742
Descent: 282
InvalidEm: 0
UFOAscent: 742
UFODescent: -282
LayerCount: 2
Layer: 0 0 "Back" 1
Layer: 1 0 "Fore" 0
PreferredKerning: 4
StyleMap: 0x0001
FSType: 0
OS2Version: 0
OS2_WeightWidthSlopeOnly: 0
OS2_UseTypoMetrics: 0
CreationTime: 1489889671
ModificationTime: 1489889855
PfmFamily: 16
TTFWeight: 400
TTFWidth: 5
LineGap: 256
VLineGap: 0
Panose: 2 3 5 3 6 4 6 9 3 4
OS2TypoAscent: 742
OS2TypoAOffset: 0
OS2TypoDescent: -282
OS2TypoDOffset: 0
OS2TypoLinegap: 256
OS2WinAscent: 1130
OS2WinAOffset: 0
OS2WinDescent: 427
OS2WinDOffset: 0
HheadAscent: 1130
HheadAOffset: 0
HheadDescent: -427
HheadDOffset: 0
OS2SubXSize: 665
OS2SubYSize: 614
OS2SubXOff: -16
OS2SubYOff: 76
OS2SupXSize: 665
OS2SupYSize: 614
OS2SupXOff: 76
OS2SupYOff: 358
OS2StrikeYSize: 51
OS2StrikeYPos: 261
OS2CapHeight: 658
OS2XHeight: 429
OS2FamilyClass: 258
OS2Vendor: 'PfEd'
Lookup: 4 0 1 "ligaStandardLigatureslookup0" { "ligaStandardLigatureslookup0 subtable"  } ['liga' ('latn' <'dflt' 'TRK ' > 'grek' <'dflt' > 'cyrl' <'dflt' > 'DFLT' <'dflt' > ) ]
Lookup: 1 0 0 "ccmpGlyphCompositionDecompositioninLatinlookup1" { "ccmpGlyphCompositionDecompositioninLatinlookup1 subtable"  } ['ccmp' ('latn' <'TRK ' > ) ]
Lookup: 1 0 0 "onumOldstyleFigureslookup2" { "onumOldstyleFigureslookup2 subtable" ("oldstyle") } ['onum' ('latn' <'dflt' 'TRK ' > 'grek' <'dflt' > 'cyrl' <'dflt' > 'DFLT' <'dflt' > ) ]

StartChar: exclam
Encoding: 0 33 0
GlifName: exclam
Width: 234
VWidth: 0
GlyphClass: 2
Flags: W
HStem: -14 116<67.5 83>
VStem: 20 109<37 54.5> 133 90
LayerCount: 2
Fore
SplineSet
20 36 m 256
 20 73 49 102 86 102 c 256
 110 102 129 80 129 56 c 256
 129 18 102 -14 64 -14 c 256
 38 -14 20 10 20 36 c 256
192 631 m 256
 213 631 223 609 223 588 c 256
 223 561 160 352 114 170 c 256
 111 156 90 148 86 148 c 256
 81 148 80 159 80 166 c 256
 80 170 112 429 133 577 c 256
 136 596 160 631 192 631 c 256
EndSplineSet
Validated: 1
PickledDataWithLists: "(dp1
S'com.fontlab.hintData'
p2
(dp3
S'vhints'
p4
(lp5
(dp6
S'position'
p7
I20
sS'width'
p8
I109
sa(dp9
g7
I133
sg8
I90
sasS'hhints'
p10
(lp11
(dp12
g7
I-14
sg8
I116
sass."
Substitution2: "c2scCapitalstoSmallCapitalslookup5 subtable" exclam.sc
Substitution2: "smcpLowercasetoSmallCapitalslookup4 subtable" exclam.sc
EndChar

StartChar: quotedbl
Encoding: 1 34 1
GlifName: quotedbl
Width: 331
VWidth: 0
GlyphClass: 2
Flags: W
HStem: 434 264<118.5 188 156 275.5>
VStem: 107 95 257 95
LayerCount: 2
Fore
SplineSet
324 698 m 256
 352 698 363 692 352 633 c 256
 341 577 312 516 293 449 c 256
 290 439 279 434 272 434 c 256
 265 434 256 439 257 447 c 256
 266 537 257 590 257 636 c 257
 260 654 288 698 324 698 c 256
174 698 m 256
 202 698 213 692 202 633 c 256
 191 577 162 516 143 449 c 256
 140 439 129 434 122 434 c 256
 115 434 106 439 107 447 c 256
 116 537 107 590 107 636 c 257
 110 654 138 698 174 698 c 256
EndSplineSet
Validated: 33
PickledDataWithLists: "(dp1
S'com.fontlab.hintData'
p2
(dp3
S'vhints'
p4
(lp5
(dp6
S'position'
p7
I107
sS'width'
p8
I95
sa(dp9
g7
I257
sg8
I95
sasS'hhints'
p10
(lp11
(dp12
g7
I434
sg8
I264
sass."
EndChar

StartChar: numbersign
Encoding: 2 35 2
GlifName: numbersign
Width: 447
VWidth: 0
GlyphClass: 2
Flags: W
HStem: 178 50<16 115 36 98 163 238 36 145 303 364> 320 50<64 163 84 145 84 193 210 285 350 412>
LayerCount: 2
Fore
SplineSet
350 370 m 257
 430 370 l 258
 435 370 435 370 435 368 c 256
 435 352 420 320 412 320 c 258
 333 320 l 257
 303 228 l 257
 382 228 l 258
 386 228 387 228 387 225 c 256
 387 209 372 178 364 178 c 258
 285 178 l 257
 234 25 l 258
 234 24 231 18 203 18 c 256
 195 18 186 20 184 21 c 257
 186 30 236 173 236 174 c 258
 238 178 l 257
 145 178 l 257
 94 25 l 258
 94 24 91 18 63 18 c 256
 55 18 46 20 44 21 c 257
 46 30 96 173 96 174 c 258
 98 178 l 257
 18 178 l 258
 14 178 13 178 13 181 c 256
 13 197 28 228 36 228 c 258
 115 228 l 257
 145 320 l 257
 66 320 l 258
 62 320 61 320 61 323 c 256
 61 339 76 370 84 370 c 258
 163 370 l 257
 214 523 l 258
 214 524 217 530 245 530 c 256
 253 530 262 527 264 526 c 257
 262 519 212 375 212 374 c 258
 210 370 l 257
 303 370 l 257
 354 523 l 258
 354 524 357 530 385 530 c 256
 393 530 402 527 404 526 c 257
 402 519 352 375 352 374 c 258
 350 370 l 257
285 320 m 257
 193 320 l 257
 163 228 l 257
 255 228 l 257
 285 320 l 257
EndSplineSet
Validated: 1
PickledDataWithLists: "(dp1
S'com.fontlab.hintData'
p2
(dp3
S'hhints'
p4
(lp5
(dp6
S'position'
p7
I178
sS'width'
p8
I50
sa(dp9
g7
I320
sg8
I50
sass."
EndChar

StartChar: dollar
Encoding: 3 36 3
GlifName: dollar
Width: 435
VWidth: 0
GlyphClass: 2
Flags: W
HStem: -8 34<179.233 214 179.233 220> 607 34<241 280.076>
VStem: 19 34<177 177> 84 75<469.363 513.5> 306 86<125.5 171.622> 368 30<479 479>
LayerCount: 2
Fore
SplineSet
235.089 376.211 m 257
 313.464 601.115 l 257
 301.878 604.972 288.152 607 272 607 c 256
 193 607 159 549 159 500 c 256
 159 438.727 195.094 406.329 235.089 376.211 c 257
229.978 264.458 m 257
 148.925 31.2317 l 257
 160.131 27.8695 172.465 26 186 26 c 256
 242 26 306 65 306 141 c 256
 306 202.244 271.336 231.975 229.978 264.458 c 257
120 -52 m 257
 112 -52 88 -50 89 -43 c 258
 104.763 2.23201 l 257
 77.1848 10.272 52.1419 21.7807 30 32 c 257
 17 84 17 165 19 177 c 256
 22 181 36 183 43 183 c 256
 48 183 51 181 53 177 c 256
 53 138.379 71.5855 75.8615 119.591 44.7831 c 257
 203.425 285.349 l 257
 147.617 328.432 84 364.942 84 458 c 256
 84 569 196 641 286 641 c 256
 301.222 641 314.448 640.187 326.584 638.763 c 257
 342 683 l 257
 349 683 374 683 373 676 c 258
 358.193 633.394 l 257
 377.288 629.211 395.6 623.719 418 618 c 257
 415 585 404 508 398 479 c 256
 397 472 392 472 389 472 c 256
 385 472 374 473 368 479 c 257
 371.038 525.781 364.848 562.966 341.356 584.946 c 257
 261.879 356.252 l 258
 264.604 354.188 267.315 352.106 270 350 c 256
 321 310 392 275 392 185 c 256
 392 66 268 -8 172 -8 c 256
 159.755 -8 147.857 -6.90955 136.328 -5.01557 c 257
 120 -52 l 257
EndSplineSet
Validated: 8912929
PickledDataWithLists: "(dp1
S'com.fontlab.hintData'
p2
(dp3
S'vhints'
p4
(lp5
(dp6
S'position'
p7
I19
sS'width'
p8
I34
sa(dp9
g7
I84
sg8
I75
sa(dp10
g7
I306
sg8
I86
sa(dp11
g7
I368
sg8
I30
sasS'hhints'
p12
(lp13
(dp14
g7
I-8
sg8
I34
sa(dp15
g7
I607
sg8
I34
sass."
EndChar

StartChar: percent
Encoding: 4 37 4
GlifName: percent
Width: 630
VWidth: 0
GlyphClass: 2
Flags: W
HStem: -8 28<390 445.5 390 451> 300 27<426.5 480.5> 338 28<178 233.5 178 239> 643 20<615 626> 646 27<214.5 268.5>
VStem: 74 63<452.5 517 452.5 518> 286 63<106.5 171 106.5 172> 304 65<501.5 564.5> 516 65<155.5 218.5>
LayerCount: 2
Fore
SplineSet
458 300 m 256
 395 300 349 210 349 132 c 256
 349 81 366 20 414 20 c 256
 477 20 516 116 516 195 c 256
 516 242 503 300 458 300 c 256
468 327 m 256
 545 327 581 263 581 195 c 256
 581 99 500 -8 402 -8 c 256
 326 -8 286 55 286 123 c 256
 286 221 366 327 468 327 c 256
246 646 m 256
 183 646 137 556 137 478 c 256
 137 427 154 366 202 366 c 256
 265 366 304 462 304 541 c 256
 304 588 291 646 246 646 c 256
256 673 m 256
 333 673 369 609 369 541 c 256
 369 445 288 338 190 338 c 256
 114 338 74 401 74 469 c 256
 74 567 154 673 256 673 c 256
647 650 m 257
 51 0 l 258
 47 -4 31 -12 17 -12 c 256
 10 -12 4 -9 2 -1 c 257
 598 652 l 258
 602 656 610 663 620 663 c 256
 632 663 643 660 647 650 c 257
EndSplineSet
Validated: 8388609
PickledDataWithLists: "(dp1
S'com.fontlab.hintData'
p2
(dp3
S'vhints'
p4
(lp5
(dp6
S'position'
p7
I74
sS'width'
p8
I63
sa(dp9
g7
I286
sg8
I63
sa(dp10
g7
I304
sg8
I65
sa(dp11
g7
I516
sg8
I65
sasS'hhints'
p12
(lp13
(dp14
g7
I-8
sg8
I28
sa(dp15
g7
I300
sg8
I27
sa(dp16
g7
I338
sg8
I28
sa(dp17
g7
I643
sg8
I20
sa(dp18
g7
I646
sg8
I27
sass."
EndChar

StartChar: ampersand
Encoding: 5 38 5
GlifName: ampersand
Width: 781
VWidth: 0
GlyphClass: 2
Flags: W
HStem: -5 32<352.577 451.5> 494 42<341.024 377>
VStem: -7 50<99 170.357> 139 82 409 93<395.099 452.5> 431 37<140.5 207.5> 597 63<168 200.5> 737 42
LayerCount: 2
Fore
SplineSet
221.407 273.527 m 257
 311.018 304.918 409 355.198 409 435 c 256
 409 470 396 494 358 494 c 256
 292.106 494 227.123 402.8 221.407 273.527 c 257
418 536 m 256
 464 536 502 498 502 452 c 256
 502 321.385 313.703 259.442 221.381 235.715 c 257
 227.022 95.6949 295.155 27 410 27 c 256
 502 27 597 99 597 192 c 256
 597 209 588 232 582 238 c 257
 532 222 468 189 468 145 c 256
 468 136 469 128 472 123 c 257
 468 121 457 122 452 128 c 256
 441 137 431 160 431 185 c 256
 431 230 472 261 546 293 c 256
 637 332 746 402 737 542 c 257
 746 543 754 537 757 534 c 256
 769 510 779 482 779 440 c 256
 779 360 724 298 654 264 c 257
 658 256 660 243 660 228 c 256
 660 108 525 -5 378 -5 c 256
 249.039 -5 142.368 54.1156 139.078 216.232 c 257
 86.6828 203.048 43 186.714 43 154 c 256
 43 136 55 130 63 123 c 256
 72 115 82 106 82 90 c 256
 82 61 62 47 38 47 c 256
 28 47 20 48 13 52 c 256
 0 63 -7 91 -7 107 c 256
 -7 169 31 218 102 238 c 256
 112.332 240.914 125.313 244.372 140.06 248.462 c 257
 152.021 387.915 264.047 536 418 536 c 256
EndSplineSet
Validated: 8912929
PickledDataWithLists: "(dp1
S'com.fontlab.hintData'
p2
(dp3
S'vhints'
p4
(lp5
(dp6
S'position'
p7
I-7
sS'width'
p8
I50
sa(dp9
g7
I139
sg8
I82
sa(dp10
g7
I409
sg8
I93
sa(dp11
g7
I431
sg8
I37
sa(dp12
g7
I597
sg8
I63
sa(dp13
g7
I737
sg8
I42
sasS'hhints'
p14
(lp15
(dp16
g7
I-5
sg8
I32
sa(dp17
g7
I494
sg8
I42
sass."
EndChar

StartChar: quotesingle
Encoding: 6 39 6
GlifName: quotesingle
Width: 181
VWidth: 0
GlyphClass: 2
Flags: W
HStem: 434 264<118.5 188>
VStem: 107 95
LayerCount: 2
Fore
SplineSet
174 698 m 256
 202 698 213 692 202 633 c 256
 191 577 162 516 143 449 c 256
 140 439 129 434 122 434 c 256
 115 434 106 439 107 447 c 256
 116 537 107 590 107 636 c 257
 110 654 138 698 174 698 c 256
EndSplineSet
Validated: 33
PickledDataWithLists: "(dp1
S'com.fontlab.hintData'
p2
(dp3
S'vhints'
p4
(lp5
(dp6
S'position'
p7
I107
sS'width'
p8
I95
sasS'hhints'
p9
(lp10
(dp11
g7
I434
sg8
I264
sass."
EndChar

StartChar: parenleft
Encoding: 7 40 7
GlifName: parenleft
Width: 260
VWidth: 0
GlyphClass: 2
Flags: W
VStem: 49 235
LayerCount: 2
Fore
SplineSet
277 748 m 257
 282 746 284 739 284 735 c 257
 222 664 86 418 108 164 c 256
 120 23 152 -54 203 -109 c 257
 203 -112 203 -119 198 -121 c 257
 139 -99 64 4 49 177 c 256
 23 474 197 676 277 748 c 257
EndSplineSet
Validated: 33
PickledDataWithLists: "(dp1
S'com.fontlab.hintData'
p2
(dp3
S'vhints'
p4
(lp5
(dp6
S'position'
p7
I49
sS'width'
p8
I235
sass."
Substitution2: "c2scCapitalstoSmallCapitalslookup5 subtable" parenleft.sc
Substitution2: "smcpLowercasetoSmallCapitalslookup4 subtable" parenleft.sc
EndChar

StartChar: parenright
Encoding: 8 41 8
GlifName: parenright
Width: 260
VWidth: 0
GlyphClass: 2
Flags: W
VStem: -5 235
LayerCount: 2
Fore
SplineSet
2 -121 m 257
 -3 -119 -6 -112 -5 -108 c 257
 57 -37 193 209 171 463 c 256
 159 604 127 681 76 736 c 257
 76 739 76 746 81 748 c 257
 140 726 215 623 230 450 c 256
 256 153 82 -49 2 -121 c 257
EndSplineSet
Validated: 33
PickledDataWithLists: "(dp1
S'com.fontlab.hintData'
p2
(dp3
S'vhints'
p4
(lp5
(dp6
S'position'
p7
I-5
sS'width'
p8
I235
sass."
Substitution2: "c2scCapitalstoSmallCapitalslookup5 subtable" parenright.sc
Substitution2: "smcpLowercasetoSmallCapitalslookup4 subtable" parenright.sc
EndChar

StartChar: asterisk
Encoding: 9 42 9
GlifName: asterisk
Width: 400
VWidth: 0
GlyphClass: 2
Flags: W
HStem: 432 68<98 113> 466 48<249 267.5> 473 20<206.5 214 193 220.5> 644 20<202.5 226.5>
VStem: 161 64 226 167<409.5 466.5> 228 41<506.5 507 477.5 522>
LayerCount: 2
Fore
SplineSet
256 514 m 256
 281 514 328 633 379 633 c 256
 393 633 402 623 402 609 c 256
 402 552 269 523 269 491 c 256
 269 464 393 473 393 419 c 256
 393 400 376 383 356 383 c 256
 313 383 280 466 255 466 c 256
 232 466 243 398 225 341 c 256
 216 311 198 298 184 298 c 256
 171 298 161 309 161 326 c 256
 161 366 226 438 226 464 c 256
 226 469 224 473 217 473 c 256
 196 473 132 432 94 432 c 256
 77 432 64 440 64 456 c 256
 64 469 71 500 125 500 c 256
 154 500 183 493 203 493 c 256
 225 493 228 503 228 510 c 256
 228 534 177 580 177 623 c 256
 177 648 194 664 211 664 c 256
 242 664 244 620 244 580 c 256
 244 574 242 514 256 514 c 256
EndSplineSet
Validated: 8388641
PickledDataWithLists: "(dp1
S'com.fontlab.hintData'
p2
(dp3
S'vhints'
p4
(lp5
(dp6
S'position'
p7
I161
sS'width'
p8
I64
sa(dp9
g7
I226
sg8
I167
sa(dp10
g7
I228
sg8
I41
sasS'hhints'
p11
(lp12
(dp13
g7
I432
sg8
I68
sa(dp14
g7
I466
sg8
I48
sa(dp15
g7
I473
sg8
I20
sa(dp16
g7
I644
sg8
I20
sass."
EndChar

StartChar: plus
Encoding: 10 43 10
GlifName: plus
Width: 454
VWidth: 0
GlyphClass: 2
Flags: W
HStem: 217 43<21.5 203 31 195 31 243 251 413>
LayerCount: 2
Fore
SplineSet
23 217 m 258
 20 217 18 220 18 225 c 256
 18 238 21 247 31 260 c 257
 203 260 l 257
 236 435 l 258
 239 448 273 451 277 451 c 256
 285 451 287 447 286 443 c 258
 251 260 l 257
 422 260 l 258
 424 260 425 257 425 252 c 256
 425 239 424 229 413 217 c 257
 243 217 l 257
 208 39 l 258
 206 29 189 23 173 23 c 256
 163 23 159 27 159 31 c 258
 195 217 l 257
 23 217 l 258
EndSplineSet
Validated: 1
PickledDataWithLists: "(dp1
S'com.fontlab.hintData'
p2
(dp3
S'hhints'
p4
(lp5
(dp6
S'position'
p7
I217
sS'width'
p8
I43
sass."
EndChar

StartChar: comma
Encoding: 11 44 11
GlifName: comma
Width: 200
VWidth: 0
GlyphClass: 2
Flags: W
HStem: -109 238<-16 84>
VStem: 23 86<73 94.5>
LayerCount: 2
Fore
SplineSet
-28 -89 m 257
 -15 -83 40 -48 40 -2 c 256
 40 47 23 46 23 79 c 256
 23 110 49 129 78 129 c 256
 90 129 102 124 106 119 c 257
 108 114 109 98 109 95 c 256
 109 51 98 13 73 -28 c 256
 45 -74 4 -102 -14 -109 c 257
 -18 -109 -28 -97 -28 -89 c 257
EndSplineSet
Validated: 1
PickledDataWithLists: "(dp1
S'com.fontlab.hintData'
p2
(dp3
S'vhints'
p4
(lp5
(dp6
S'position'
p7
I23
sS'width'
p8
I86
sasS'hhints'
p9
(lp10
(dp11
g7
I-109
sg8
I238
sass."
EndChar

StartChar: hyphen
Encoding: 12 45 12
GlifName: hyphen
Width: 371
VWidth: 0
GlyphClass: 2
Flags: W
VStem: 53 254<210 263.5>
LayerCount: 2
Fore
SplineSet
74 261 m 258
 301 273 l 258
 306 273 307 266 307 261 c 256
 307 248 294 211 284 210 c 258
 58 199 l 258
 55 199 53 206 53 214 c 256
 53 225 63 260 74 261 c 258
EndSplineSet
Validated: 1
PickledDataWithLists: "(dp1
S'com.fontlab.hintData'
p2
(dp3
S'vhints'
p4
(lp5
(dp6
S'position'
p7
I53
sS'width'
p8
I254
sass."
EndChar

StartChar: period
Encoding: 13 46 13
GlifName: period
Width: 208
VWidth: 0
GlyphClass: 2
Flags: W
HStem: -14 116<58.5 68.5>
VStem: 8 110<38.5 51.5>
LayerCount: 2
Fore
SplineSet
8 33 m 256
 8 70 42 102 75 102 c 256
 101 102 118 83 118 57 c 256
 118 20 85 -14 52 -14 c 256
 26 -14 8 6 8 33 c 256
EndSplineSet
Validated: 1
PickledDataWithLists: "(dp1
S'com.fontlab.hintData'
p2
(dp3
S'vhints'
p4
(lp5
(dp6
S'position'
p7
I8
sS'width'
p8
I110
sasS'hhints'
p9
(lp10
(dp11
g7
I-14
sg8
I116
sass."
Substitution2: "c2scCapitalstoSmallCapitalslookup5 subtable" period.sc
Substitution2: "smcpLowercasetoSmallCapitalslookup4 subtable" period.sc
EndChar

StartChar: slash
Encoding: 14 47 14
GlifName: slash
Width: 382
VWidth: 0
GlyphClass: 2
Flags: W
LayerCount: 2
Fore
SplineSet
451 755 m 257
 27 -12 l 258
 24 -17 3 -34 -20 -34 c 256
 -24 -34 -31 -30 -32 -28 c 257
 393 739 l 258
 398 747 421 761 439 761 c 256
 445 761 449 758 451 755 c 257
EndSplineSet
Validated: 1
Substitution2: "c2scCapitalstoSmallCapitalslookup5 subtable" slash.sc
Substitution2: "smcpLowercasetoSmallCapitalslookup4 subtable" slash.sc
EndChar

StartChar: zero
Encoding: 15 48 15
GlifName: zero
Width: 456
VWidth: 0
GlyphClass: 2
Flags: W
HStem: -3 35<196.007 272.007 196.007 291.507> 606 35<311.507 385.007>
LayerCount: 2
Fore
SplineSet
169.507 320 m 256
 138.507 163 161.507 32 230.507 32 c 256
 313.507 32 381.507 168 412.507 325 c 256
 443.507 482 419.507 606 350.507 606 c 256
 272.507 606 200.507 477 169.507 320 c 256
87.5068 319 m 256
 121.507 493 224.507 641 352.507 641 c 256
 482.507 641 526.507 493 492.507 319 c 256
 458.507 145 355.507 -3 227.507 -3 c 256
 101.507 -3 53.5068 145 87.5068 319 c 256
EndSplineSet
Validated: 524321
PickledDataWithLists: "(dp1
S'com.fontlab.hintData'
p2
(dp3
S'hhints'
p4
(lp5
(dp6
S'position'
p7
I-3
sS'width'
p8
I35
sa(dp9
g7
I606
sg8
I35
sass."
Substitution2: "pnumProportionalNumberslookup3 subtable" zero.prop
Substitution2: "onumOldstyleFigureslookup2 subtable" zero.onum
EndChar

StartChar: one
Encoding: 16 49 16
GlifName: one
Width: 456
VWidth: 0
GlyphClass: 2
Flags: W
HStem: -3 29 622 20<396.286 398.286 398.286 401.286>
VStem: 129 277
LayerCount: 2
Fore
SplineSet
224.286 534 m 257
 217.286 538 214.286 547 215.286 554 c 256
 215.286 556 215.286 559 218.286 560 c 256
 311.286 604 393.286 642 396.286 642 c 258
 398.286 642 l 258
 404.286 642 406.286 628 406.286 623 c 257
 406.286 623 390.286 590 378.286 529 c 258
 302.286 135 l 258
 296.286 102 291.286 73 292.286 46 c 256
 293.286 35 343.286 26 350.286 26 c 256
 353.286 26 351.286 15 350.286 8 c 256
 349.286 3 348.286 -1 347.286 -3 c 257
 310.286 -1 274.286 2 237.286 2 c 256
 200.286 2 167.286 -1 129.286 -3 c 257
 125.286 2 130.286 26 135.286 26 c 256
 146.286 26 199.286 35 204.286 46 c 256
 213.286 66 216.286 84 220.286 103 c 258
 290.286 463 l 258
 302.286 523 307.286 554 288.286 554 c 256
 281.286 554 242.286 543 224.286 534 c 257
EndSplineSet
Validated: 524321
PickledDataWithLists: "(dp1
S'com.fontlab.hintData'
p2
(dp3
S'vhints'
p4
(lp5
(dp6
S'position'
p7
I129
sS'width'
p8
I277
sasS'hhints'
p9
(lp10
(dp11
g7
I-3
sg8
I29
sa(dp12
g7
I622
sg8
I20
sass."
Substitution2: "pnumProportionalNumberslookup3 subtable" one.prop
Substitution2: "onumOldstyleFigureslookup2 subtable" one.onum
EndChar

StartChar: two
Encoding: 17 50 17
GlifName: two
Width: 456
VWidth: 0
GlyphClass: 2
Flags: W
HStem: 0 73<143.037 313.037 313.037 340.037 143.037 371.037> 577 65<298.537 338.537>
VStem: 396 89
LayerCount: 2
Fore
SplineSet
485.037 512 m 256
 485.037 421 438.037 358 367.037 286 c 256
 283.037 200 141.037 73 143.037 73 c 258
 313.037 73 l 258
 367.037 73 399.037 105 418.037 147 c 256
 420.037 152 425.037 156 431.037 156 c 256
 435.037 156 447.037 152 448.037 150 c 257
 422.037 101 379.037 18 371.037 0 c 257
 371.037 0 53.0371 0 46.0371 0 c 257
 44.0371 2 40.0371 9 40.0371 15 c 257
 95.0371 65 238.037 212 297.037 279 c 256
 365.037 356 396.037 418 396.037 486 c 256
 396.037 542 363.037 577 314.037 577 c 256
 240.037 577 180.037 511 165.037 491 c 257
 158.037 491 150.037 503 151.037 507 c 256
 162.037 532 250.037 642 347.037 642 c 256
 420.037 642 485.037 590 485.037 512 c 256
EndSplineSet
Validated: 524321
PickledDataWithLists: "(dp1
S'com.fontlab.hintData'
p2
(dp3
S'vhints'
p4
(lp5
(dp6
S'position'
p7
I396
sS'width'
p8
I89
sasS'hhints'
p9
(lp10
(dp11
g7
I0
sg8
I73
sa(dp12
g7
I577
sg8
I65
sass."
Substitution2: "pnumProportionalNumberslookup3 subtable" two.prop
Substitution2: "onumOldstyleFigureslookup2 subtable" two.onum
EndChar

StartChar: three
Encoding: 18 51 18
GlifName: three
Width: 456
VWidth: 0
GlyphClass: 2
Flags: W
HStem: -5 40<208.23 220.73> 317 31<206 206> 588 54<323.23 331.73>
VStem: 363 85 388 73
LayerCount: 2
Fore
SplineSet
359.73 642 m 256
 406.73 642 460.73 607 460.73 533 c 256
 460.73 467 396.73 408 344.73 379 c 257
 400.73 372 447.73 304 447.73 244 c 256
 447.73 90 264.73 -5 176.73 -5 c 256
 128.73 -5 94.7305 4 71.7305 20 c 257
 67.7305 25 62.7305 37 62.7305 48 c 256
 62.7305 78 82.7305 106 104.73 106 c 256
 137.73 106 142.73 76 156.73 59 c 256
 173.73 38 195.73 35 220.73 35 c 256
 277.73 35 362.73 106 362.73 219 c 256
 362.73 286 326.73 327 265.73 327 c 256
 245.73 327 218.73 320 206.73 317 c 257
 203.73 322 202.73 326 202.73 331 c 256
 202.73 335 203.73 345 205.73 348 c 257
 285.73 362 387.73 425 387.73 513 c 256
 387.73 568 352.73 588 310.73 588 c 256
 251.73 588 209.73 535 199.73 528 c 257
 193.73 528 192.73 543 194.73 552 c 257
 232.73 598 286.73 642 359.73 642 c 256
EndSplineSet
Validated: 8912897
PickledDataWithLists: "(dp1
S'com.fontlab.hintData'
p2
(dp3
S'vhints'
p4
(lp5
(dp6
S'position'
p7
I363
sS'width'
p8
I85
sa(dp9
g7
I388
sg8
I73
sasS'hhints'
p10
(lp11
(dp12
g7
I-5
sg8
I40
sa(dp13
g7
I317
sg8
I31
sa(dp14
g7
I588
sg8
I54
sass."
Substitution2: "pnumProportionalNumberslookup3 subtable" three.prop
Substitution2: "onumOldstyleFigureslookup2 subtable" three.onum
EndChar

StartChar: four
Encoding: 19 52 19
GlifName: four
Width: 456
VWidth: 0
GlyphClass: 2
Flags: W
HStem: -6 21<312.725 341.725> 174 57<128.725 324.725 411.725 465.725> 624 20<472.225 480.225>
LayerCount: 2
Fore
SplineSet
475.725 644 m 256
 484.725 644 490.725 634 488.725 626 c 258
 411.725 231 l 257
 467.725 231 l 258
 473.725 231 476.725 211 472.725 190 c 256
 470.725 181 467.725 177 465.725 174 c 257
 400.725 174 l 257
 366.725 -1 l 257
 366.725 -1 359.725 -6 323.725 -6 c 256
 301.725 -6 289.725 -5 290.725 2 c 258
 324.725 174 l 257
 62.7246 174 l 257
 56.7246 178 56.7246 187 57.7246 193 c 257
 442.725 619 l 258
 449.725 627 468.725 644 475.725 644 c 256
392.725 524 m 257
 128.725 231 l 257
 335.725 231 l 257
 392.725 524 l 257
EndSplineSet
Validated: 524321
PickledDataWithLists: "(dp1
S'com.fontlab.hintData'
p2
(dp3
S'hhints'
p4
(lp5
(dp6
S'position'
p7
I-6
sS'width'
p8
I21
sa(dp9
g7
I174
sg8
I57
sa(dp10
g7
I624
sg8
I20
sass."
Substitution2: "pnumProportionalNumberslookup3 subtable" four.prop
Substitution2: "onumOldstyleFigureslookup2 subtable" four.onum
EndChar

StartChar: five
Encoding: 20 53 20
GlifName: five
Width: 456
VWidth: 0
GlyphClass: 2
Flags: W
HStem: -5 40<208.507 221.507> 332 63<288.507 296.007> 551 80 624 20
VStem: 363 85
LayerCount: 2
Fore
SplineSet
448.007 247 m 256
 448.007 93 266.007 -5 177.007 -5 c 256
 129.007 -5 95.0068 4 72.0068 20 c 257
 68.0068 25 63.0068 37 63.0068 48 c 256
 63.0068 78 83.0068 106 105.007 106 c 256
 138.007 106 143.007 76 157.007 59 c 256
 174.007 38 196.007 35 221.007 35 c 256
 278.007 35 363.007 106 363.007 219 c 256
 363.007 255 350.007 332 242.007 332 c 256
 222.007 332 186.007 325 167.007 319 c 257
 164.007 321 157.007 328 153.007 333 c 257
 198.007 465 228.007 589 243.007 631 c 257
 309.007 633 442.007 636 477.007 644 c 257
 483.007 641 487.007 635 487.007 631 c 256
 487.007 614 464.007 575 454.007 561 c 257
 409.007 551 273.007 554 258.007 551 c 257
 254.007 544 223.007 430 204.007 377 c 257
 224.007 385 276.007 395 301.007 395 c 256
 401.007 395 448.007 314 448.007 247 c 256
EndSplineSet
Validated: 8912897
PickledDataWithLists: "(dp1
S'com.fontlab.hintData'
p2
(dp3
S'vhints'
p4
(lp5
(dp6
S'position'
p7
I363
sS'width'
p8
I85
sasS'hhints'
p9
(lp10
(dp11
g7
I-5
sg8
I40
sa(dp12
g7
I332
sg8
I63
sa(dp13
g7
I551
sg8
I80
sa(dp14
g7
I624
sg8
I20
sass."
Substitution2: "pnumProportionalNumberslookup3 subtable" five.prop
Substitution2: "onumOldstyleFigureslookup2 subtable" five.onum
EndChar

StartChar: six
Encoding: 21 54 21
GlifName: six
Width: 456
VWidth: 0
GlyphClass: 2
Flags: W
HStem: -6 33<211.203 267.203 211.203 282.703> 333 47<308.203 313.703> 623 20<489.203 492.203>
VStem: 81 82 375 80
LayerCount: 2
Fore
SplineSet
325.203 380 m 256
 402.203 380 455.203 311 455.203 230 c 256
 455.203 114 337.203 -6 228.203 -6 c 256
 140.203 -6 81.2031 61 81.2031 173 c 256
 81.2031 251 118.203 365 205.203 464 c 256
 263.203 530 373.203 603 489.203 643 c 257
 495.203 643 497.203 624 496.203 618 c 257
 381.203 569 265.203 491 205.203 350 c 256
 171.203 270 163.203 215 163.203 160 c 256
 163.203 99 182.203 27 240.203 27 c 256
 294.203 27 375.203 106 375.203 224 c 256
 375.203 286 348.203 333 279.203 333 c 256
 255.203 333 240.203 324 231.203 319 c 257
 228.203 321 225.203 325 225.203 329 c 256
 225.203 341 291.203 380 325.203 380 c 256
EndSplineSet
Validated: 524289
PickledDataWithLists: "(dp1
S'com.fontlab.hintData'
p2
(dp3
S'vhints'
p4
(lp5
(dp6
S'position'
p7
I81
sS'width'
p8
I82
sa(dp9
g7
I375
sg8
I80
sasS'hhints'
p10
(lp11
(dp12
g7
I-6
sg8
I33
sa(dp13
g7
I333
sg8
I47
sa(dp14
g7
I623
sg8
I20
sass."
Substitution2: "pnumProportionalNumberslookup3 subtable" six.prop
Substitution2: "onumOldstyleFigureslookup2 subtable" six.onum
EndChar

StartChar: seven
Encoding: 22 55 22
GlifName: seven
Width: 456
VWidth: 0
GlyphClass: 2
Flags: W
HStem: -6 21<134.28 143.78> 557 76<217.78 236.28 236.28 468.28>
LayerCount: 2
Fore
SplineSet
103.28 14 m 257
 235.28 180 468.28 557 468.28 557 c 257
 236.28 557 l 258
 199.28 557 172.28 512 154.28 480 c 256
 153.28 478 150.28 477 147.28 477 c 256
 140.28 477 131.28 479 126.28 482 c 257
 142.28 520 182.28 598 192.28 633 c 257
 478.28 633 l 258
 502.28 633 535.28 636 541.28 636 c 256
 547.28 636 546.28 632 545.28 627 c 256
 542.28 614 523.28 588 505.28 560 c 258
 151.28 -3 l 258
 149.28 -5 146.28 -6 141.28 -6 c 256
 127.28 -6 101.28 5 103.28 14 c 257
EndSplineSet
Validated: 524321
PickledDataWithLists: "(dp1
S'com.fontlab.hintData'
p2
(dp3
S'hhints'
p4
(lp5
(dp6
S'position'
p7
I-6
sS'width'
p8
I21
sa(dp9
g7
I557
sg8
I76
sass."
Substitution2: "pnumProportionalNumberslookup3 subtable" seven.prop
Substitution2: "onumOldstyleFigureslookup2 subtable" seven.onum
EndChar

StartChar: eight
Encoding: 23 56 23
GlifName: eight
Width: 456
VWidth: 0
GlyphClass: 2
Flags: W
HStem: -9 36<208.197 263.197 208.197 270.197> 608 35<323.197 373.697>
LayerCount: 2
Fore
SplineSet
357.697 643 m 256
 440.697 643 498.697 586 480.697 491 c 256
 467.697 424 395.697 373 347.697 344 c 257
 343.697 343 344.697 340 346.697 338 c 256
 395.697 304 449.697 239 435.697 167 c 256
 416.697 67 316.697 -9 223.697 -9 c 256
 121.697 -9 63.6973 57 82.6973 154 c 256
 99.6973 242 193.697 293 234.697 318 c 256
 237.697 320 238.697 323 236.697 324 c 256
 202.697 349 157.697 406 171.697 480 c 256
 188.697 565 275.697 643 357.697 643 c 256
345.697 608 m 256
 300.697 608 256.697 562 242.697 492 c 256
 230.697 430 283.697 386 314.697 364 c 256
 316.697 363 317.697 362 319.697 362 c 256
 321.697 362 322.697 362 325.697 364 c 256
 368.697 391 401.697 431 412.697 486 c 256
 423.697 544 401.697 608 345.697 608 c 256
232.697 27 m 256
 293.697 27 341.697 70 354.697 138 c 256
 370.697 221 276.697 287 265.697 295 c 256
 263.697 296 263.697 297 260.697 297 c 256
 259.697 297 257.697 297 256.697 296 c 256
 198.697 261 168.697 221 156.697 157 c 256
 140.697 75 183.697 27 232.697 27 c 256
EndSplineSet
Validated: 524321
PickledDataWithLists: "(dp1
S'com.fontlab.hintData'
p2
(dp3
S'hhints'
p4
(lp5
(dp6
S'position'
p7
I-9
sS'width'
p8
I36
sa(dp9
g7
I608
sg8
I35
sass."
Substitution2: "pnumProportionalNumberslookup3 subtable" eight.prop
Substitution2: "onumOldstyleFigureslookup2 subtable" eight.onum
EndChar

StartChar: nine
Encoding: 24 57 24
GlifName: nine
Width: 456
VWidth: 0
GlyphClass: 2
Flags: W
HStem: -6 21<87.6172 90.6172> 257 47<266.117 271.617> 610 33<312.617 368.617>
VStem: 125 80 417 82
LayerCount: 2
Fore
SplineSet
254.617 257 m 256
 177.617 257 124.617 326 124.617 407 c 256
 124.617 523 242.617 643 351.617 643 c 256
 439.617 643 498.617 576 498.617 464 c 256
 498.617 386 461.617 272 374.617 173 c 256
 316.617 107 206.617 34 90.6172 -6 c 257
 84.6172 -6 82.6172 13 83.6172 19 c 257
 198.617 68 314.617 146 374.617 287 c 256
 408.617 367 416.617 422 416.617 477 c 256
 416.617 538 397.617 610 339.617 610 c 256
 285.617 610 204.617 531 204.617 413 c 256
 204.617 351 231.617 304 300.617 304 c 256
 324.617 304 339.617 313 348.617 318 c 257
 351.617 316 354.617 312 354.617 308 c 256
 354.617 296 288.617 257 254.617 257 c 256
EndSplineSet
Validated: 524289
PickledDataWithLists: "(dp1
S'com.fontlab.hintData'
p2
(dp3
S'vhints'
p4
(lp5
(dp6
S'position'
p7
I125
sS'width'
p8
I80
sa(dp9
g7
I417
sg8
I82
sasS'hhints'
p10
(lp11
(dp12
g7
I-6
sg8
I21
sa(dp13
g7
I257
sg8
I47
sa(dp14
g7
I610
sg8
I33
sass."
Substitution2: "pnumProportionalNumberslookup3 subtable" nine.prop
Substitution2: "onumOldstyleFigureslookup2 subtable" nine.onum
EndChar

StartChar: colon
Encoding: 25 58 25
GlifName: colon
Width: 236
VWidth: 0
GlyphClass: 2
Flags: W
HStem: -14 120<70 81> 318 120<135 146>
VStem: 19 113<39 53> 83 114<372 386>
LayerCount: 2
Fore
SplineSet
83 367 m 256
 83 405 118 438 152 438 c 256
 179 438 197 418 197 391 c 256
 197 353 163 318 129 318 c 256
 102 318 83 339 83 367 c 256
19 34 m 256
 19 72 53 106 87 106 c 256
 114 106 132 85 132 58 c 256
 132 20 98 -14 64 -14 c 256
 37 -14 19 7 19 34 c 256
EndSplineSet
Validated: 8388609
PickledDataWithLists: "(dp1
S'com.fontlab.hintData'
p2
(dp3
S'vhints'
p4
(lp5
(dp6
S'position'
p7
I19
sS'width'
p8
I113
sa(dp9
g7
I83
sg8
I114
sasS'hhints'
p10
(lp11
(dp12
g7
I-14
sg8
I120
sa(dp13
g7
I318
sg8
I120
sass."
Substitution2: "c2scCapitalstoSmallCapitalslookup5 subtable" colon.sc
Substitution2: "smcpLowercasetoSmallCapitalslookup4 subtable" colon.sc
EndChar

StartChar: semicolon
Encoding: 26 59 26
GlifName: semicolon
Width: 252
VWidth: 0
GlyphClass: 2
Flags: W
HStem: -109 238 318 120<151 162>
VStem: 34 86 99 114<372 386>
LayerCount: 2
Fore
SplineSet
99 367 m 256
 99 405 134 438 168 438 c 256
 195 438 213 418 213 391 c 256
 213 353 179 318 145 318 c 256
 118 318 99 339 99 367 c 256
EndSplineSet
Refer: 11 44 N 1 0 0 1 11 0 2
Validated: 8388609
PickledDataWithLists: "(dp1
S'com.fontlab.hintData'
p2
(dp3
S'vhints'
p4
(lp5
(dp6
S'position'
p7
I34
sS'width'
p8
I86
sa(dp9
g7
I99
sg8
I114
sasS'hhints'
p10
(lp11
(dp12
g7
I-109
sg8
I238
sa(dp13
g7
I318
sg8
I120
sass."
Substitution2: "c2scCapitalstoSmallCapitalslookup5 subtable" semicolon.sc
Substitution2: "smcpLowercasetoSmallCapitalslookup4 subtable" semicolon.sc
EndChar

StartChar: less
Encoding: 27 60 27
GlifName: less
Width: 447
VWidth: 0
GlyphClass: 2
Flags: W
LayerCount: 2
Fore
SplineSet
87 209 m 257
 361 41 l 257
 361 41 363 40 363 36 c 256
 363 23 343 -14 338 -14 c 256
 337 -14 336 -14 334 -13 c 258
 22 177 l 258
 16 181 12 191 12 203 c 256
 12 217 18 232 35 241 c 258
 416 428 l 258
 418 429 419 429 420 429 c 256
 423 429 427 408 427 394 c 256
 427 391 426 376 422 374 c 258
 87 209 l 257
EndSplineSet
Validated: 1
Substitution2: "c2scCapitalstoSmallCapitalslookup5 subtable" less.sc
Substitution2: "smcpLowercasetoSmallCapitalslookup4 subtable" less.sc
EndChar

StartChar: equal
Encoding: 28 61 28
GlifName: equal
Width: 560
VWidth: 0
GlyphClass: 2
Flags: W
HStem: 117 56<39 473 57 454> 259 56<67 500 85 481>
LayerCount: 2
Fore
SplineSet
39 117 m 257
 39 117 34 117 34 123 c 256
 34 126 48 173 57 173 c 258
 473 173 l 258
 478 173 479 170 479 168 c 256
 479 163 469 142 461 123 c 257
 454 117 l 257
 39 117 l 257
67 259 m 257
 67 259 63 259 63 265 c 256
 63 266 76 315 85 315 c 258
 500 315 l 258
 505 315 506 312 506 310 c 256
 506 305 497 284 489 265 c 256
 481 259 l 257
 67 259 l 257
EndSplineSet
Validated: 1
PickledDataWithLists: "(dp1
S'com.fontlab.hintData'
p2
(dp3
S'hhints'
p4
(lp5
(dp6
S'position'
p7
I117
sS'width'
p8
I56
sa(dp9
g7
I259
sg8
I56
sass."
Substitution2: "c2scCapitalstoSmallCapitalslookup5 subtable" equal.sc
Substitution2: "smcpLowercasetoSmallCapitalslookup4 subtable" equal.sc
EndChar

StartChar: greater
Encoding: 29 62 29
GlifName: greater
Width: 448
VWidth: 0
GlyphClass: 2
Flags: W
LayerCount: 2
Fore
SplineSet
339 209 m 257
 67 374 l 257
 67 374 65 375 65 378 c 256
 65 385 86 430 91 430 c 256
 92 430 93 429 95 428 c 258
 402 241 l 258
 409 237 414 230 414 221 c 256
 414 218 412 188 390 177 c 258
 5 -13 l 258
 3 -14 1 -15 -1 -15 c 256
 -6 -15 -7 4 -7 33 c 256
 -7 38 -2 41 -2 41 c 257
 339 209 l 257
EndSplineSet
Validated: 1
Substitution2: "c2scCapitalstoSmallCapitalslookup5 subtable" greater.sc
Substitution2: "smcpLowercasetoSmallCapitalslookup4 subtable" greater.sc
EndChar

StartChar: question
Encoding: 30 63 30
GlifName: question
Width: 320
VWidth: 0
GlyphClass: 2
Flags: W
HStem: -14 116<88.5 98.5> 582 49<203 232.5 176 240>
VStem: 40 110<37.5 51> 66 70<255 274.5 246.5 304> 277 51<503 533 481 541.5>
LayerCount: 2
Fore
SplineSet
40 32 m 256
 40 70 72 102 105 102 c 256
 131 102 150 82 150 56 c 256
 150 19 115 -14 82 -14 c 256
 56 -14 40 6 40 32 c 256
175 197 m 257
 175 193 170 184 165 181 c 257
 141 181 66 227 66 283 c 256
 66 325 89 348 115 366 c 256
 162 398 186 414 231 446 c 256
 251 460 277 484 277 522 c 256
 277 561 255 582 225 582 c 256
 181 582 181 536 143 536 c 256
 114 536 109 570 109 588 c 257
 114 603 157 631 195 631 c 256
 270 631 328 564 328 502 c 256
 328 460 316 428 284 398 c 256
 260 376 221 357 169 321 c 256
 144 304 136 288 136 261 c 256
 136 232 164 205 175 197 c 257
EndSplineSet
Validated: 8388609
PickledDataWithLists: "(dp1
S'com.fontlab.hintData'
p2
(dp3
S'vhints'
p4
(lp5
(dp6
S'position'
p7
I40
sS'width'
p8
I110
sa(dp9
g7
I66
sg8
I70
sa(dp10
g7
I277
sg8
I51
sasS'hhints'
p11
(lp12
(dp13
g7
I-14
sg8
I116
sa(dp14
g7
I582
sg8
I49
sass."
Substitution2: "c2scCapitalstoSmallCapitalslookup5 subtable" question.sc
Substitution2: "smcpLowercasetoSmallCapitalslookup4 subtable" question.sc
EndChar

StartChar: at
Encoding: 31 64 31
GlifName: at
Width: 759
VWidth: 0
GlyphClass: 2
Flags: W
HStem: -6 36<485 509> -5 58<279.5 289> 395 40<392.5 419.5> 542 35<328.5 492.5>
VStem: 29 38<108.5 260 100 267> 172 74<119 195> 656 42<215 350>
LayerCount: 2
Fore
SplineSet
421 577 m 256
 606 577 698 443 698 282 c 256
 698 76 550 -6 468 -6 c 256
 419 -6 398 28 398 58 c 256
 398 66 399 77 403 98 c 256
 407 117 407 123 408 130 c 257
 386 91 318 -5 260 -5 c 256
 205 -5 172 45 172 115 c 256
 172 275 324 435 461 435 c 256
 496 435 515 429 534 422 c 257
 470 105 l 258
 460 57 473 30 497 30 c 256
 572 30 656 163 656 267 c 256
 656 433 572 542 413 542 c 256
 244 542 67 380 67 140 c 256
 67 60 107 -16 160 -58 c 256
 178 -72 197 -83 206 -87 c 257
 200 -92 193 -94 174 -94 c 256
 149 -94 114 -65 100 -49 c 256
 47 14 29 76 29 141 c 256
 29 393 213 577 421 577 c 256
413 395 m 256
 336 395 246 265 246 150 c 256
 246 88 262 53 297 53 c 256
 347 53 418 177 437 273 c 258
 458 380 l 257
 449 390 426 395 413 395 c 256
EndSplineSet
Validated: 8388641
PickledDataWithLists: "(dp1
S'com.fontlab.hintData'
p2
(dp3
S'vhints'
p4
(lp5
(dp6
S'position'
p7
I29
sS'width'
p8
I38
sa(dp9
g7
I172
sg8
I74
sa(dp10
g7
I656
sg8
I42
sasS'hhints'
p11
(lp12
(dp13
g7
I-6
sg8
I36
sa(dp14
g7
I-5
sg8
I58
sa(dp15
g7
I395
sg8
I40
sa(dp16
g7
I542
sg8
I35
sass."
Substitution2: "c2scCapitalstoSmallCapitalslookup5 subtable" at.sc
Substitution2: "smcpLowercasetoSmallCapitalslookup4 subtable" at.sc
EndChar

StartChar: A
Encoding: 32 65 32
GlifName: A_
Width: 586
VWidth: 0
GlyphClass: 2
Flags: W
HStem: -3 29 256 33<192 367 192 373 174 367> 643 20<382 387.5>
LayerCount: 2
Fore
SplineSet
341 26 m 257
 376 26 398 37 398 57 c 256
 398 67 398 87 395 106 c 258
 373 256 l 257
 174 256 l 257
 140 194 112 142 103 125 c 256
 85 90 74 65 74 50 c 256
 74 29 129 26 136 26 c 257
 138 23 135 3 132 -3 c 257
 95 -1 84 2 43 2 c 256
 0 2 -12 -1 -55 -3 c 257
 -57 0 -53 19 -49 26 c 257
 -38 26 -4 32 8 45 c 256
 32 71 50 103 70 139 c 258
 346 634 l 258
 355 650 378 663 386 663 c 256
 389 663 390 661 391 660 c 258
 477 126 l 258
 483 89 487 62 488 58 c 256
 494 29 544 26 551 26 c 257
 554 19 550 0 548 -3 c 257
 511 -1 480 2 439 2 c 256
 396 2 378 -1 335 -3 c 257
 331 2 335 21 341 26 c 257
192 289 m 257
 367 289 l 257
 329 535 l 257
 192 289 l 257
EndSplineSet
Validated: 1
PickledDataWithLists: "(dp1
S'com.fontlab.hintData'
p2
(dp3
S'hhints'
p4
(lp5
(dp6
S'position'
p7
I-3
sS'width'
p8
I29
sa(dp9
g7
I256
sg8
I33
sa(dp10
g7
I643
sg8
I20
sass."
Substitution2: "c2scCapitalstoSmallCapitalslookup5 subtable" a.sc
EndChar

StartChar: B
Encoding: 33 66 33
GlifName: B_
Width: 566
VWidth: 0
GlyphClass: 2
Flags: W
HStem: -3 29<1 6.5 1 209 -5 6.5> 339 31<211 312 218 268> 630 29<337.5 362>
VStem: 409 95<158 235> 433 88<487 550>
LayerCount: 2
Fore
SplineSet
218 370 m 257
 312 370 l 258
 379 370 433 437 433 522 c 256
 433 578 405 630 319 630 c 256
 308 630 275 629 270 620 c 256
 263 608 257 575 251 545 c 258
 218 370 l 257
211 339 m 257
 167 114 l 258
 164 100 156 50 161 43 c 256
 172 27 197 26 231 26 c 256
 334 26 409 96 409 220 c 256
 409 250 411 339 268 339 c 258
 211 339 l 257
233 657 m 256
 269 657 310 659 365 659 c 256
 450 659 521 623 521 537 c 256
 521 437 441 387 401 366 c 257
 446 362 504 308 504 226 c 256
 504 90 378 -3 209 -3 c 258
 -5 -3 l 257
 -9 2 -4 21 1 26 c 257
 12 26 63 31 68 42 c 256
 76 58 81 86 87 116 c 258
 170 543 l 258
 176 573 181 602 180 617 c 256
 180 629 130 633 119 633 c 257
 116 638 118 657 124 662 c 257
 162 660 197 657 233 657 c 256
EndSplineSet
Validated: 8388641
PickledDataWithLists: "(dp1
S'com.fontlab.hintData'
p2
(dp3
S'vhints'
p4
(lp5
(dp6
S'position'
p7
I409
sS'width'
p8
I95
sa(dp9
g7
I433
sg8
I88
sasS'hhints'
p10
(lp11
(dp12
g7
I-3
sg8
I29
sa(dp13
g7
I339
sg8
I31
sa(dp14
g7
I630
sg8
I29
sass."
Substitution2: "c2scCapitalstoSmallCapitalslookup5 subtable" b.sc
EndChar

StartChar: C
Encoding: 34 67 34
GlifName: C_
Width: 645
VWidth: 0
GlyphClass: 2
Flags: W
HStem: -8 29<283 373> 635 31
VStem: 59 95<222.5 282 222.5 391> 585 31<494 494>
LayerCount: 2
Fore
SplineSet
569 173 m 257
 582 173 597 165 597 165 c 257
 593 145 540 40 525 28 c 257
 471 0 416 -8 330 -8 c 256
 168 -8 59 117 59 265 c 256
 59 517 258 670 465 666 c 256
 523 665 577 652 626 640 c 257
 624 604 619 522 616 494 c 256
 616 491 612 489 608 489 c 256
 602 489 593 490 585 494 c 257
 590 574 520 635 436 635 c 256
 280 635 153 499 154 282 c 256
 154 163 208 21 358 21 c 256
 460 21 526 91 569 173 c 257
EndSplineSet
Validated: 33
PickledDataWithLists: "(dp1
S'com.fontlab.hintData'
p2
(dp3
S'vhints'
p4
(lp5
(dp6
S'position'
p7
I59
sS'width'
p8
I95
sa(dp9
g7
I585
sg8
I31
sasS'hhints'
p10
(lp11
(dp12
g7
I-8
sg8
I29
sa(dp13
g7
I635
sg8
I31
sass."
Substitution2: "c2scCapitalstoSmallCapitalslookup5 subtable" c.sc
EndChar

StartChar: D
Encoding: 35 68 35
GlifName: D_
Width: 684
VWidth: 0
GlyphClass: 2
Flags: W
HStem: -3 29<1 6.5 215 228 -5 6.5> 631 26
LayerCount: 2
Fore
SplineSet
252 546 m 258
 167 112 l 258
 164 98 156 46 159 40 c 256
 164 29 198 26 232 26 c 256
 375 26 511 118 549 313 c 256
 593 539 491 631 338 631 c 256
 327 631 276 630 271 620 c 256
 263 604 258 575 252 546 c 258
368 658 m 256
 583 658 681 519 645 334 c 256
 612 164 499 -2 228 -3 c 257
 -5 -3 l 257
 -9 2 -4 21 1 26 c 257
 12 26 63 31 68 42 c 256
 76 58 81 86 87 116 c 258
 170 543 l 258
 176 573 182 601 180 617 c 256
 179 628 130 633 119 633 c 257
 116 638 118 657 124 662 c 257
 162 660 197 657 233 657 c 256
 269 657 327 658 368 658 c 256
EndSplineSet
Validated: 33
PickledDataWithLists: "(dp1
S'com.fontlab.hintData'
p2
(dp3
S'hhints'
p4
(lp5
(dp6
S'position'
p7
I-3
sS'width'
p8
I29
sa(dp9
g7
I631
sg8
I26
sass."
Substitution2: "c2scCapitalstoSmallCapitalslookup5 subtable" d.sc
EndChar

StartChar: E
Encoding: 36 69 36
GlifName: E_
Width: 554
VWidth: 0
GlyphClass: 2
Flags: W
HStem: 0 30 316 33<260 290.5> 630 27
VStem: 383 29 505 29<528 530>
LayerCount: 2
Fore
SplineSet
233 657 m 256
 320 657 432 664 533 664 c 257
 530 614 534 573 534 528 c 257
 531 525 523 523 516 523 c 256
 509 523 505 525 505 530 c 256
 500 610 466 630 417 630 c 258
 337 630 l 258
 326 630 276 629 271 619 c 256
 263 603 256 574 251 547 c 258
 214 355 l 258
 213 350 233 349 253 349 c 258
 302 349 l 258
 391 349 389 355 418 421 c 256
 420 426 427 428 434 428 c 256
 441 428 446 426 448 423 c 257
 412 234 l 257
 410 232 403 230 396 230 c 256
 389 230 384 233 383 238 c 256
 380 295 377 302 370 308 c 256
 361 315 308 316 273 316 c 256
 247 316 206 316 204 307 c 258
 165 109 l 258
 162 94 153 45 158 40 c 256
 168 30 183 30 222 30 c 258
 266 30 l 258
 317 30 358 40 390 61 c 256
 417 79 443 109 468 162 c 256
 470 166 476 168 483 168 c 256
 492 168 503 165 505 162 c 257
 477 108 437 40 422 -4 c 257
 321 -4 230 0 106 0 c 256
 62 0 31 -3 -5 -3 c 257
 -9 2 -5 21 -0 26 c 257
 11 26 63 31 68 42 c 256
 76 58 81 86 87 116 c 258
 170 543 l 258
 176 573 181 601 179 617 c 256
 178 628 129 633 118 633 c 257
 115 638 118 657 124 662 c 257
 162 660 197 657 233 657 c 256
EndSplineSet
Validated: 33
PickledDataWithLists: "(dp1
S'com.fontlab.hintData'
p2
(dp3
S'vhints'
p4
(lp5
(dp6
S'position'
p7
I383
sS'width'
p8
I29
sa(dp9
g7
I505
sg8
I29
sasS'hhints'
p10
(lp11
(dp12
g7
I0
sg8
I30
sa(dp13
g7
I316
sg8
I33
sa(dp14
g7
I630
sg8
I27
sass."
Substitution2: "c2scCapitalstoSmallCapitalslookup5 subtable" e.sc
EndChar

StartChar: F
Encoding: 37 70 37
GlifName: F_
Width: 508
VWidth: 0
GlyphClass: 2
Flags: W
HStem: -3 29<-0 5.5 -0 13> 316 33<260 290.5> 630 27
VStem: 383 29 505 29<528 530>
LayerCount: 2
Fore
SplineSet
233 657 m 256
 320 657 432 664 533 664 c 257
 530 614 534 573 534 528 c 257
 531 525 523 523 516 523 c 256
 509 523 505 525 505 530 c 256
 500 610 466 630 417 630 c 258
 337 630 l 258
 326 630 276 629 271 619 c 256
 263 603 256 574 251 547 c 258
 214 355 l 258
 213 350 233 349 253 349 c 258
 302 349 l 258
 391 349 389 355 418 421 c 256
 420 426 427 428 434 428 c 256
 441 428 446 426 448 423 c 257
 412 234 l 257
 410 232 403 230 396 230 c 256
 389 230 384 233 383 238 c 256
 380 295 377 302 370 308 c 256
 361 315 308 316 273 316 c 256
 247 316 206 316 204 307 c 258
 167 116 l 258
 161 86 156 58 158 42 c 256
 159 31 217 26 228 26 c 257
 231 21 228 2 222 -3 c 257
 184 -1 141 2 105 2 c 256
 61 2 31 -3 -5 -3 c 257
 -9 2 -5 21 -0 26 c 257
 11 26 63 31 68 42 c 256
 76 58 81 86 87 116 c 258
 170 543 l 258
 176 573 181 601 179 617 c 256
 178 628 129 633 118 633 c 257
 115 638 118 657 124 662 c 257
 162 660 197 657 233 657 c 256
EndSplineSet
Validated: 33
PickledDataWithLists: "(dp1
S'com.fontlab.hintData'
p2
(dp3
S'vhints'
p4
(lp5
(dp6
S'position'
p7
I383
sS'width'
p8
I29
sa(dp9
g7
I505
sg8
I29
sasS'hhints'
p10
(lp11
(dp12
g7
I-3
sg8
I29
sa(dp13
g7
I316
sg8
I33
sa(dp14
g7
I630
sg8
I27
sass."
Substitution2: "c2scCapitalstoSmallCapitalslookup5 subtable" f.sc
EndChar

StartChar: G
Encoding: 38 71 38
GlifName: G_
Width: 697
VWidth: 0
GlyphClass: 2
Flags: W
HStem: -8 29<282.5 379 282.5 385.5> 265 29 635 31
VStem: 59 95<222.5 282 222.5 391> 585 31<494 494>
LayerCount: 2
Fore
SplineSet
585 494 m 257
 590 574 520 635 436 635 c 256
 280 635 153 499 154 282 c 256
 154 163 210 21 355 21 c 256
 403 21 446 41 467 55 c 256
 473 59 476 65 477 72 c 258
 497 175 l 258
 503 205 509 233 507 249 c 256
 506 260 452 265 441 265 c 257
 438 270 440 289 446 294 c 257
 484 292 518 289 554 289 c 256
 590 289 625 292 664 294 c 257
 668 289 665 270 660 265 c 257
 649 265 601 260 596 249 c 256
 588 233 583 205 577 175 c 258
 563 104 l 258
 559 83 565 78 565 68 c 256
 565 62 561 55 543 46 c 256
 497 22 447 -8 324 -8 c 256
 170 -8 59 117 59 265 c 256
 59 517 258 670 465 666 c 256
 523 665 577 652 626 640 c 257
 624 604 618 524 616 494 c 256
 616 491 612 489 608 489 c 256
 602 489 593 490 585 494 c 257
EndSplineSet
Validated: 33
PickledDataWithLists: "(dp1
S'com.fontlab.hintData'
p2
(dp3
S'vhints'
p4
(lp5
(dp6
S'position'
p7
I59
sS'width'
p8
I95
sa(dp9
g7
I585
sg8
I31
sasS'hhints'
p10
(lp11
(dp12
g7
I-8
sg8
I29
sa(dp13
g7
I265
sg8
I29
sa(dp14
g7
I635
sg8
I31
sass."
Substitution2: "c2scCapitalstoSmallCapitalslookup5 subtable" g.sc
EndChar

StartChar: H
Encoding: 39 72 39
GlifName: H_
Width: 686
VWidth: 0
GlyphClass: 2
Flags: W
HStem: -3 29 316 40<214 499 207 506> 633 29
LayerCount: 2
Fore
SplineSet
168 116 m 258
 162 86 156 58 158 42 c 256
 159 31 208 26 219 26 c 257
 222 21 219 2 213 -3 c 257
 175 -1 142 2 106 2 c 256
 70 2 34 -1 -5 -3 c 257
 -9 2 -5 21 -0 26 c 257
 11 26 63 31 68 42 c 256
 76 58 81 86 87 116 c 258
 170 543 l 258
 176 573 181 601 179 617 c 256
 178 628 129 633 118 633 c 257
 115 638 118 657 124 662 c 257
 162 660 197 657 233 657 c 256
 269 657 304 660 343 662 c 257
 347 657 342 638 337 633 c 257
 326 633 275 628 270 617 c 256
 262 601 256 573 251 543 c 258
 214 356 l 257
 506 356 l 257
 543 543 l 258
 548 573 554 601 552 617 c 256
 551 628 502 633 491 633 c 257
 488 638 491 657 497 662 c 257
 535 660 570 657 606 657 c 256
 642 657 677 660 716 662 c 257
 720 657 715 638 710 633 c 257
 699 633 648 628 643 617 c 256
 635 601 630 573 624 543 c 258
 541 116 l 258
 535 86 529 58 531 42 c 256
 532 31 581 26 592 26 c 257
 595 21 592 2 586 -3 c 257
 548 -1 514 2 478 2 c 256
 442 2 407 -1 368 -3 c 257
 364 2 368 21 373 26 c 257
 384 26 436 31 441 42 c 256
 449 58 454 86 460 116 c 258
 499 316 l 257
 207 316 l 257
 168 116 l 258
EndSplineSet
Validated: 33
PickledDataWithLists: "(dp1
S'com.fontlab.hintData'
p2
(dp3
S'hhints'
p4
(lp5
(dp6
S'position'
p7
I-3
sS'width'
p8
I29
sa(dp9
g7
I316
sg8
I40
sa(dp10
g7
I633
sg8
I29
sass."
Substitution2: "c2scCapitalstoSmallCapitalslookup5 subtable" h.sc
EndChar

StartChar: I
Encoding: 40 73 40
GlifName: I_
Width: 313
VWidth: 0
GlyphClass: 2
Flags: W
HStem: -3 29 633 29
LayerCount: 2
Fore
SplineSet
233 657 m 256
 269 657 304 660 343 662 c 257
 347 657 342 638 337 633 c 257
 326 633 275 628 270 617 c 256
 262 601 257 573 251 543 c 258
 168 116 l 258
 162 86 156 58 158 42 c 256
 159 31 208 26 219 26 c 257
 222 21 219 2 213 -3 c 257
 175 -1 142 2 106 2 c 256
 70 2 34 -1 -5 -3 c 257
 -9 2 -5 21 -0 26 c 257
 11 26 63 31 68 42 c 256
 76 58 81 86 87 116 c 258
 170 543 l 258
 176 573 181 601 179 617 c 256
 178 628 129 633 118 633 c 257
 115 638 118 657 124 662 c 257
 162 660 197 657 233 657 c 256
EndSplineSet
Validated: 33
PickledDataWithLists: "(dp1
S'com.fontlab.hintData'
p2
(dp3
S'hhints'
p4
(lp5
(dp6
S'position'
p7
I-3
sS'width'
p8
I29
sa(dp9
g7
I633
sg8
I29
sass."
Substitution2: "c2scCapitalstoSmallCapitalslookup5 subtable" i.sc
EndChar

StartChar: J
Encoding: 41 74 41
GlifName: J_
Width: 313
VWidth: 0
GlyphClass: 2
Flags: W
HStem: -233 19<-107 -65> 633 29
LayerCount: 2
Fore
SplineSet
164 543 m 258
 169 573 175 601 173 617 c 256
 172 628 123 633 112 633 c 257
 109 638 112 657 118 662 c 257
 156 660 191 657 227 657 c 256
 263 657 298 660 337 662 c 257
 341 657 336 638 331 633 c 257
 320 633 269 628 264 617 c 256
 256 601 250 573 245 543 c 258
 164 116 l 258
 114 -148 -25 -233 -105 -233 c 257
 -107 -230 -108 -225 -108 -220 c 256
 -108 -218 -107 -214 -107 -214 c 257
 5 -179 49 -83 84 109 c 258
 164 543 l 258
EndSplineSet
Validated: 33
PickledDataWithLists: "(dp1
S'com.fontlab.hintData'
p2
(dp3
S'hhints'
p4
(lp5
(dp6
S'position'
p7
I-233
sS'width'
p8
I19
sa(dp9
g7
I633
sg8
I29
sass."
Substitution2: "c2scCapitalstoSmallCapitalslookup5 subtable" j.sc
EndChar

StartChar: K
Encoding: 42 75 42
GlifName: K_
Width: 614
VWidth: 0
GlyphClass: 2
Flags: W
HStem: -3 29 633 29
LayerCount: 2
Fore
SplineSet
481 72 m 256
 500 49 523 30 573 26 c 257
 577 21 568 -1 567 -3 c 257
 505 -3 454 1 437 8 c 256
 425 13 403 23 382 51 c 256
 367 72 302 175 222 304 c 256
 221 307 218 307 214 307 c 256
 211 307 207 306 205 305 c 257
 168 116 l 258
 162 86 157 58 159 42 c 256
 160 31 209 26 220 26 c 257
 223 21 220 2 214 -3 c 257
 176 -1 142 2 106 2 c 256
 70 2 35 -1 -4 -3 c 257
 -8 2 -4 21 1 26 c 257
 12 26 63 31 68 42 c 256
 76 58 81 86 87 116 c 258
 170 543 l 258
 176 573 182 601 180 617 c 256
 179 628 130 633 119 633 c 257
 116 638 119 657 125 662 c 257
 163 660 198 657 234 657 c 256
 270 657 304 660 343 662 c 257
 347 657 343 638 338 633 c 257
 327 633 275 628 270 617 c 256
 262 601 257 573 251 543 c 258
 212 340 l 257
 234 353 290 399 336 439 c 256
 424 516 425 515 481 576 c 256
 488 584 498 597 500 607 c 256
 505 632 461 632 453 632 c 257
 451 638 454 653 459 662 c 257
 493 660 530 656 564 656 c 256
 605 656 628 660 666 662 c 257
 667 656 663 632 658 632 c 256
 649 631 598 632 559 595 c 256
 461 501 399 450 302 366 c 256
 295 360 297 355 300 350 c 256
 368 238 424 145 481 72 c 256
EndSplineSet
Validated: 33
PickledDataWithLists: "(dp1
S'com.fontlab.hintData'
p2
(dp3
S'hhints'
p4
(lp5
(dp6
S'position'
p7
I-3
sS'width'
p8
I29
sa(dp9
g7
I633
sg8
I29
sass."
Substitution2: "c2scCapitalstoSmallCapitalslookup5 subtable" k.sc
EndChar

StartChar: L
Encoding: 43 76 43
GlifName: L_
Width: 530
VWidth: 0
GlyphClass: 2
Flags: W
HStem: 0 30 633 29
LayerCount: 2
Fore
SplineSet
166 112 m 258
 163 97 153 45 158 40 c 256
 168 30 183 30 222 30 c 258
 275 30 l 258
 310 30 352 39 383 57 c 256
 413 74 443 109 468 162 c 256
 470 166 476 168 483 168 c 256
 492 168 503 165 505 162 c 257
 477 108 437 40 422 -4 c 257
 321 -4 230 0 106 0 c 256
 62 0 31 -3 -5 -3 c 257
 -9 2 -4 21 1 26 c 257
 12 26 63 31 68 42 c 256
 76 58 81 86 87 116 c 258
 170 543 l 258
 176 573 182 601 180 617 c 256
 179 628 130 633 119 633 c 257
 116 638 118 657 124 662 c 257
 162 660 197 657 233 657 c 256
 269 657 304 660 343 662 c 257
 347 657 342 638 337 633 c 257
 326 633 275 628 270 617 c 256
 262 601 257 573 251 543 c 258
 166 112 l 258
EndSplineSet
Validated: 33
PickledDataWithLists: "(dp1
S'com.fontlab.hintData'
p2
(dp3
S'hhints'
p4
(lp5
(dp6
S'position'
p7
I0
sS'width'
p8
I30
sa(dp9
g7
I633
sg8
I29
sass."
Substitution2: "c2scCapitalstoSmallCapitalslookup5 subtable" l.sc
EndChar

StartChar: M
Encoding: 44 77 44
GlifName: M_
Width: 838
VWidth: 0
GlyphClass: 2
Flags: W
HStem: -3 29 633 29
LayerCount: 2
Fore
SplineSet
397 49 m 258
 392 40 363 0 352 -2 c 256
 349 -3 347 -1 344 0 c 257
 230 584 l 257
 184 366 121 85 119 75 c 256
 117 66 116 52 117 44 c 256
 120 29 180 26 187 26 c 257
 190 20 185 0 183 -3 c 257
 146 -1 127 2 86 2 c 256
 43 2 19 -1 -24 -3 c 257
 -25 -1 -23 18 -18 26 c 257
 -7 26 49 31 60 44 c 256
 71 57 76 73 81 94 c 256
 136 334 184 554 187 572 c 256
 190 586 193 601 191 612 c 257
 190 624 141 633 130 633 c 257
 128 639 132 659 136 662 c 257
 165 660 189 658 226 658 c 256
 254 658 286 660 307 662 c 257
 313 599 407 143 407 139 c 257
 409 144 632 542 632 542 c 258
 658 588 696 662 696 662 c 257
 725 660 748 658 766 658 c 256
 799 658 834 660 858 662 c 257
 858 659 856 633 856 633 c 257
 843 633 793 625 786 615 c 257
 781 606 776 589 774 577 c 258
 698 140 l 258
 691 101 687 67 691 43 c 256
 693 29 745 26 752 26 c 257
 755 17 751 0 749 -3 c 257
 712 -1 680 2 639 2 c 256
 596 2 569 -1 526 -3 c 257
 525 -1 527 18 532 26 c 257
 543 26 582 30 595 37 c 256
 602 41 608 65 611 79 c 256
 614 93 659 376 690 566 c 257
 677 545 397 49 397 49 c 258
EndSplineSet
Validated: 33
PickledDataWithLists: "(dp1
S'com.fontlab.hintData'
p2
(dp3
S'hhints'
p4
(lp5
(dp6
S'position'
p7
I-3
sS'width'
p8
I29
sa(dp9
g7
I633
sg8
I29
sass."
Substitution2: "c2scCapitalstoSmallCapitalslookup5 subtable" m.sc
EndChar

StartChar: N
Encoding: 45 78 45
GlifName: N_
Width: 732
VWidth: 0
GlyphClass: 2
Flags: W
HStem: -3 29 633 29
LayerCount: 2
Fore
SplineSet
628 541 m 258
 635 577 637 597 631 613 c 256
 626 627 579 633 564 633 c 257
 561 640 564 657 567 662 c 257
 604 660 628 658 669 658 c 256
 712 658 730 660 773 662 c 257
 775 657 776 644 769 633 c 257
 758 633 703 626 694 614 c 256
 683 599 679 584 672 546 c 258
 593 139 l 258
 582 81 576 51 568 -1 c 257
 565 -4 554 -5 551 -5 c 256
 543 -5 531 4 524 18 c 258
 224 569 l 257
 136 115 l 258
 129 79 126 62 132 46 c 256
 136 36 184 26 199 26 c 257
 202 19 198 3 195 -3 c 257
 158 -1 132 2 91 2 c 256
 48 2 31 -1 -12 -3 c 257
 -14 2 -13 15 -6 26 c 257
 5 26 61 34 70 46 c 256
 81 61 86 76 93 114 c 258
 177 548 l 258
 184 586 186 601 181 616 c 256
 177 628 124 633 113 633 c 257
 110 644 114 657 118 662 c 257
 160 660 172 658 203 658 c 256
 231 658 272 661 285 662 c 257
 317 582 481 317 554 162 c 257
 628 541 l 258
EndSplineSet
Validated: 33
PickledDataWithLists: "(dp1
S'com.fontlab.hintData'
p2
(dp3
S'hhints'
p4
(lp5
(dp6
S'position'
p7
I-3
sS'width'
p8
I29
sa(dp9
g7
I633
sg8
I29
sass."
Substitution2: "c2scCapitalstoSmallCapitalslookup5 subtable" n.sc
EndChar

StartChar: O
Encoding: 46 79 46
GlifName: O_
Width: 710
VWidth: 0
GlyphClass: 2
Flags: W
HStem: -11 29<259.5 404.5 259.5 415> 635 30<343 476.5>
VStem: 61 94<210.5 373 210.5 388> 578 94<303.5 441>
LayerCount: 2
Fore
SplineSet
406 635 m 256
 280 635 155 478 155 268 c 256
 155 153 191 18 328 18 c 256
 481 18 578 214 578 393 c 256
 578 489 547 635 406 635 c 256
415 665 m 256
 573 665 672 542 672 382 c 256
 672 148 511 -11 319 -11 c 256
 157 -11 61 115 61 273 c 256
 61 503 233 665 415 665 c 256
EndSplineSet
Validated: 1
PickledDataWithLists: "(dp1
S'com.fontlab.hintData'
p2
(dp3
S'vhints'
p4
(lp5
(dp6
S'position'
p7
I61
sS'width'
p8
I94
sa(dp9
g7
I578
sg8
I94
sasS'hhints'
p10
(lp11
(dp12
g7
I-11
sg8
I29
sa(dp13
g7
I635
sg8
I30
sass."
Substitution2: "c2scCapitalstoSmallCapitalslookup5 subtable" o.sc
EndChar

StartChar: P
Encoding: 47 80 47
GlifName: P_
Width: 511
VWidth: 0
GlyphClass: 2
Flags: W
HStem: -3 29 282 26<279.5 311 269.5 351> 630 29<314.5 369.5>
VStem: 434 89<444 522>
LayerCount: 2
Fore
SplineSet
523 508 m 256
 523 380 412 282 290 282 c 256
 269 282 250 288 245 292 c 256
 243 294 237 303 237 308 c 256
 237 310 239 311 241 312 c 257
 249 308 265 308 274 308 c 256
 348 308 434 382 434 494 c 256
 434 550 421 630 318 630 c 256
 307 630 275 629 270 620 c 256
 263 608 257 575 251 545 c 258
 167 116 l 258
 161 86 156 58 158 42 c 256
 159 31 208 26 219 26 c 257
 222 21 219 2 213 -3 c 257
 175 -1 141 2 105 2 c 256
 69 2 34 -1 -5 -3 c 257
 -9 2 -5 21 -0 26 c 257
 11 26 63 31 68 42 c 256
 76 58 81 86 87 116 c 258
 170 543 l 258
 176 573 181 601 179 617 c 256
 178 628 129 633 118 633 c 257
 115 638 118 657 124 662 c 257
 162 660 199 657 235 657 c 256
 271 657 287 659 342 659 c 256
 448 659 523 599 523 508 c 256
EndSplineSet
Validated: 33
PickledDataWithLists: "(dp1
S'com.fontlab.hintData'
p2
(dp3
S'vhints'
p4
(lp5
(dp6
S'position'
p7
I434
sS'width'
p8
I89
sasS'hhints'
p9
(lp10
(dp11
g7
I-3
sg8
I29
sa(dp12
g7
I282
sg8
I26
sa(dp13
g7
I630
sg8
I29
sass."
Substitution2: "c2scCapitalstoSmallCapitalslookup5 subtable" p.sc
EndChar

StartChar: Q
Encoding: 48 81 48
GlifName: Q_
Width: 710
VWidth: 0
GlyphClass: 2
Flags: W
HStem: -136 55<529.5 537.5> 635 30<343 476.5>
VStem: 61 94<210.5 373 210.5 388> 578 94<303.5 441>
LayerCount: 2
Fore
SplineSet
415 665 m 256
 573 665 672 542 672 382 c 256
 672 176 547 28 386 -4 c 257
 459 -47 484 -81 575 -81 c 256
 612 -81 659 -70 666 -68 c 257
 673 -68 685 -77 685 -81 c 257
 628 -110 566 -136 509 -136 c 256
 411 -136 343 -37 228 4 c 256
 122 42 61 147 61 273 c 256
 61 503 233 665 415 665 c 256
406 635 m 256
 280 635 155 478 155 268 c 256
 155 153 191 18 328 18 c 256
 481 18 578 214 578 393 c 256
 578 489 547 635 406 635 c 256
EndSplineSet
Validated: 1
PickledDataWithLists: "(dp1
S'com.fontlab.hintData'
p2
(dp3
S'vhints'
p4
(lp5
(dp6
S'position'
p7
I61
sS'width'
p8
I94
sa(dp9
g7
I578
sg8
I94
sasS'hhints'
p10
(lp11
(dp12
g7
I-136
sg8
I55
sa(dp13
g7
I635
sg8
I30
sass."
Substitution2: "c2scCapitalstoSmallCapitalslookup5 subtable" q.sc
EndChar

StartChar: R
Encoding: 49 82 49
GlifName: R_
Width: 579
VWidth: 0
GlyphClass: 2
Flags: W
HStem: -3 29 303 30<210 253 204 260> 630 29<340.5 370.5>
VStem: 435 89<470 532.5>
LayerCount: 2
Fore
SplineSet
553 -3 m 257
 471 -3 408 1 384 47 c 256
 354 106 311 204 279 291 c 256
 276 300 266 303 253 303 c 258
 204 303 l 257
 168 116 l 258
 162 86 156 58 158 42 c 256
 159 31 208 26 219 26 c 257
 222 21 219 2 213 -3 c 257
 175 -1 142 2 106 2 c 256
 70 2 34 -1 -5 -3 c 257
 -9 2 -5 21 -0 26 c 257
 11 26 63 31 68 42 c 256
 76 58 81 86 87 116 c 258
 170 543 l 258
 176 573 181 601 179 617 c 256
 178 628 129 633 118 633 c 257
 115 638 118 657 124 662 c 257
 162 660 200 657 236 657 c 256
 272 657 313 659 368 659 c 256
 453 659 524 611 524 518 c 256
 524 422 437 348 360 320 c 257
 393 230 441 129 466 86 c 256
 489 45 509 30 559 26 c 257
 563 21 554 -1 553 -3 c 257
210 333 m 257
 260 333 l 258
 339 333 435 390 435 512 c 256
 435 553 422 630 319 630 c 256
 308 630 275 629 270 620 c 256
 263 608 257 575 251 545 c 258
 210 333 l 257
EndSplineSet
Validated: 33
PickledDataWithLists: "(dp1
S'com.fontlab.hintData'
p2
(dp3
S'vhints'
p4
(lp5
(dp6
S'position'
p7
I435
sS'width'
p8
I89
sasS'hhints'
p9
(lp10
(dp11
g7
I-3
sg8
I29
sa(dp12
g7
I303
sg8
I30
sa(dp13
g7
I630
sg8
I29
sass."
Substitution2: "c2scCapitalstoSmallCapitalslookup5 subtable" r.sc
EndChar

StartChar: S
Encoding: 50 83 50
GlifName: S_
Width: 472
VWidth: 0
GlyphClass: 2
Flags: W
HStem: -8 30<164.5 238 155.5 247> 635 31<265.5 339.5>
VStem: 34 35<184 184> 102 78<479 533.5> 332 89<131 183> 397 31<498 498>
LayerCount: 2
Fore
SplineSet
312 666 m 256
 370 666 400 654 449 642 c 257
 446 608 434 528 428 498 c 256
 427 491 421 491 418 491 c 256
 414 491 403 492 397 498 c 257
 402 578 375 635 304 635 c 256
 222 635 180 571 180 520 c 256
 180 438 242 406 295 364 c 256
 348 322 421 286 421 193 c 256
 421 69 301 -8 193 -8 c 256
 136 -8 84 12 46 34 c 257
 33 88 32 172 34 184 c 257
 37 188 52 190 59 190 c 256
 64 190 67 188 69 184 c 257
 69 129 106 22 205 22 c 256
 271 22 332 68 332 147 c 256
 332 219 287 254 237 294 c 256
 177 342 102 373 102 476 c 256
 102 591 219 666 312 666 c 256
EndSplineSet
Validated: 8388641
PickledDataWithLists: "(dp1
S'com.fontlab.hintData'
p2
(dp3
S'vhints'
p4
(lp5
(dp6
S'position'
p7
I34
sS'width'
p8
I35
sa(dp9
g7
I102
sg8
I78
sa(dp10
g7
I332
sg8
I89
sa(dp11
g7
I397
sg8
I31
sasS'hhints'
p12
(lp13
(dp14
g7
I-8
sg8
I30
sa(dp15
g7
I635
sg8
I31
sass."
Substitution2: "c2scCapitalstoSmallCapitalslookup5 subtable" s.sc
EndChar

StartChar: T
Encoding: 51 84 51
GlifName: T_
Width: 587
VWidth: 0
GlyphClass: 2
Flags: W
HStem: -3 29 620 35<187 203 203 323 404 522 404 404>
VStem: 586 32
LayerCount: 2
Fore
SplineSet
550 655 m 258
 565 655 597 664 609 670 c 256
 619 675 622 675 627 672 c 257
 622 611 618 553 618 500 c 257
 615 497 606 492 598 493 c 256
 593 493 587 495 586 498 c 257
 587 568 568 620 522 620 c 258
 404 620 l 257
 305 116 l 258
 299 86 293 58 295 42 c 256
 296 31 345 26 356 26 c 257
 359 21 357 2 351 -3 c 257
 313 -1 279 2 243 2 c 256
 207 2 171 -1 132 -3 c 257
 128 2 133 21 138 26 c 257
 149 26 200 31 205 42 c 256
 213 58 218 86 224 116 c 258
 323 620 l 257
 203 620 l 258
 157 620 117 568 90 498 c 256
 88 495 81 493 76 493 c 256
 67 492 61 497 59 500 c 257
 80 553 99 611 117 672 c 257
 123 675 132 672 137 669 c 256
 147 663 172 655 187 655 c 258
 550 655 l 258
EndSplineSet
Validated: 33
PickledDataWithLists: "(dp1
S'com.fontlab.hintData'
p2
(dp3
S'vhints'
p4
(lp5
(dp6
S'position'
p7
I586
sS'width'
p8
I32
sasS'hhints'
p9
(lp10
(dp11
g7
I-3
sg8
I29
sa(dp12
g7
I620
sg8
I35
sass."
Substitution2: "c2scCapitalstoSmallCapitalslookup5 subtable" t.sc
EndChar

StartChar: U
Encoding: 52 85 52
GlifName: U_
Width: 661
VWidth: 0
GlyphClass: 2
Flags: W
HStem: -4 58<284.5 355.5> 633 29
LayerCount: 2
Fore
SplineSet
218 657 m 256
 254 657 289 660 328 662 c 257
 332 657 327 638 322 633 c 257
 311 633 260 628 255 617 c 256
 247 601 242 573 236 543 c 258
 188 296 l 258
 173 218 174 159 193 120 c 256
 215 76 255 54 314 54 c 256
 410 54 483 102 519 274 c 258
 572 545 l 258
 579 581 582 598 576 614 c 256
 572 624 528 634 513 634 c 257
 510 641 514 657 517 663 c 257
 554 661 576 658 617 658 c 256
 660 658 676 661 719 663 c 257
 721 658 721 645 714 634 c 257
 703 634 646 626 637 614 c 256
 626 599 622 584 615 546 c 258
 562 276 l 258
 523 76 428 -4 283 -4 c 256
 213 -4 158 22 125 68 c 256
 94 112 83 174 98 251 c 258
 155 543 l 258
 161 573 167 601 165 617 c 256
 164 628 115 633 104 633 c 257
 101 638 104 657 110 662 c 257
 148 660 182 657 218 657 c 256
EndSplineSet
Validated: 33
PickledDataWithLists: "(dp1
S'com.fontlab.hintData'
p2
(dp3
S'hhints'
p4
(lp5
(dp6
S'position'
p7
I-4
sS'width'
p8
I58
sa(dp9
g7
I633
sg8
I29
sass."
Substitution2: "c2scCapitalstoSmallCapitalslookup5 subtable" u.sc
EndChar

StartChar: V
Encoding: 53 86 53
GlifName: V_
Width: 596
VWidth: 0
GlyphClass: 2
Flags: W
HStem: -2 21<225 233> 633 29
LayerCount: 2
Fore
SplineSet
175 657 m 256
 216 657 253 660 291 662 c 257
 292 656 288 634 284 633 c 257
 277 633 227 628 222 600 c 256
 220 590 221 565 226 529 c 256
 238 440 285 131 286 128 c 257
 290 133 511 524 511 524 c 258
 525 547 535 576 538 594 c 256
 544 626 496 633 485 633 c 257
 481 635 484 657 490 662 c 257
 524 660 554 657 588 657 c 256
 631 657 642 660 680 662 c 257
 682 657 676 633 673 633 c 256
 666 633 628 627 608 607 c 256
 594 593 563 544 542 506 c 258
 269 32 l 258
 254 5 239 -2 227 -2 c 256
 223 -2 222 10 221 14 c 256
 192 192 174 322 142 514 c 256
 136 553 129 584 118 610 c 256
 111 626 73 633 62 633 c 256
 60 633 66 660 68 662 c 257
 110 660 132 657 175 657 c 256
EndSplineSet
Validated: 33
PickledDataWithLists: "(dp1
S'com.fontlab.hintData'
p2
(dp3
S'hhints'
p4
(lp5
(dp6
S'position'
p7
I-2
sS'width'
p8
I21
sa(dp9
g7
I633
sg8
I29
sass."
Substitution2: "c2scCapitalstoSmallCapitalslookup5 subtable" v.sc
EndChar

StartChar: W
Encoding: 54 87 54
GlifName: W_
Width: 841
VWidth: 0
GlyphClass: 2
Flags: W
HStem: -2 21<186 194 522 530> 633 29
LayerCount: 2
Fore
SplineSet
172 657 m 256
 213 657 247 660 285 662 c 257
 286 656 281 634 277 633 c 257
 270 633 220 628 215 600 c 256
 214 594 215 575 217 545 c 256
 222 460 235 294 247 145 c 257
 476 629 l 258
 486 648 506 662 516 662 c 256
 520 662 521 657 524 646 c 257
 526 624 559 343 583 144 c 257
 754 524 l 258
 765 548 775 576 778 594 c 256
 784 626 733 633 722 633 c 257
 718 635 722 657 728 662 c 257
 762 660 793 657 827 657 c 256
 870 657 881 660 919 662 c 257
 921 657 915 633 912 633 c 256
 905 633 869 624 847 607 c 256
 832 595 818 572 799 531 c 258
 566 32 l 258
 558 14 536 -2 524 -2 c 256
 520 -2 518 10 518 14 c 256
 496 202 481 317 457 511 c 257
 229 32 l 258
 221 14 200 -2 188 -2 c 256
 184 -2 181 10 181 14 c 258
 133 532 l 258
 130 572 130 595 116 613 c 256
 106 626 76 633 65 633 c 256
 63 633 69 660 71 662 c 257
 113 660 129 657 172 657 c 256
EndSplineSet
Validated: 33
PickledDataWithLists: "(dp1
S'com.fontlab.hintData'
p2
(dp3
S'hhints'
p4
(lp5
(dp6
S'position'
p7
I-2
sS'width'
p8
I21
sa(dp9
g7
I633
sg8
I29
sass."
Substitution2: "c2scCapitalstoSmallCapitalslookup5 subtable" w.sc
EndChar

StartChar: X
Encoding: 55 88 55
GlifName: X_
Width: 620
VWidth: 0
GlyphClass: 2
Flags: W
HStem: -3 29 633 29
LayerCount: 2
Fore
SplineSet
224 657 m 256
 270 657 306 660 344 662 c 257
 345 656 342 633 337 633 c 256
 324 633 280 627 275 601 c 256
 273 593 275 583 280 571 c 258
 354 392 l 257
 425 472 507 564 526 592 c 256
 528 595 533 602 534 608 c 256
 535 614 525 632 473 632 c 257
 469 633 473 654 477 661 c 257
 514 658 542 656 576 656 c 256
 624 656 656 659 679 661 c 257
 681 656 678 638 671 632 c 257
 664 632 614 628 581 592 c 258
 368 361 l 257
 491 66 l 258
 503 37 543 26 574 26 c 257
 577 21 570 -1 569 -3 c 257
 532 -1 513 2 475 2 c 256
 423 2 390 -1 338 -3 c 257
 334 2 338 26 343 26 c 256
 353 26 399 35 403 54 c 256
 404 57 402 63 401 66 c 258
 305 300 l 257
 234 220 128 93 106 66 c 256
 104 63 99 56 98 50 c 256
 97 44 112 26 164 26 c 257
 167 20 162 0 160 -3 c 257
 126 -1 90 2 56 2 c 256
 8 2 -21 -1 -59 -3 c 257
 -61 3 -54 23 -52 26 c 257
 -45 26 19 30 52 66 c 258
 289 332 l 257
 200 548 l 258
 186 584 175 601 152 617 c 256
 138 627 114 633 103 633 c 256
 98 633 103 657 109 662 c 257
 154 660 178 657 224 657 c 256
EndSplineSet
Validated: 33
PickledDataWithLists: "(dp1
S'com.fontlab.hintData'
p2
(dp3
S'hhints'
p4
(lp5
(dp6
S'position'
p7
I-3
sS'width'
p8
I29
sa(dp9
g7
I633
sg8
I29
sass."
Substitution2: "c2scCapitalstoSmallCapitalslookup5 subtable" x.sc
EndChar

StartChar: Y
Encoding: 56 89 56
GlifName: Y_
Width: 556
VWidth: 0
GlyphClass: 2
Flags: W
HStem: -3 29 633 29
LayerCount: 2
Fore
SplineSet
211 116 m 258
 240 267 l 258
 241 274 242 285 239 295 c 258
 156 548 l 258
 144 585 131 601 108 617 c 256
 94 627 70 633 59 633 c 256
 54 633 59 657 65 662 c 257
 110 660 134 657 180 657 c 256
 226 657 262 660 300 662 c 257
 301 656 298 633 293 633 c 256
 280 633 236 627 231 601 c 256
 229 593 232 584 236 571 c 258
 317 331 l 257
 380 419 475 561 492 592 c 256
 494 595 497 601 498 607 c 256
 499 613 487 632 435 632 c 257
 432 635 436 657 439 661 c 257
 473 659 498 656 532 656 c 256
 580 656 597 659 635 661 c 257
 635 658 630 632 627 632 c 256
 620 632 567 632 538 592 c 258
 333 301 l 258
 325 290 325 279 323 270 c 258
 292 116 l 258
 286 86 280 58 282 42 c 256
 283 31 332 26 343 26 c 257
 346 21 344 2 338 -3 c 257
 300 -1 266 2 230 2 c 256
 194 2 158 -1 119 -3 c 257
 115 2 120 21 125 26 c 257
 136 26 187 31 192 42 c 256
 200 58 205 86 211 116 c 258
EndSplineSet
Validated: 33
PickledDataWithLists: "(dp1
S'com.fontlab.hintData'
p2
(dp3
S'hhints'
p4
(lp5
(dp6
S'position'
p7
I-3
sS'width'
p8
I29
sa(dp9
g7
I633
sg8
I29
sass."
Substitution2: "c2scCapitalstoSmallCapitalslookup5 subtable" y.sc
EndChar

StartChar: Z
Encoding: 57 90 57
GlifName: Z_
Width: 602
VWidth: 0
GlyphClass: 2
Flags: W
HStem: 0 32<103 347 347 370.5 103 474> 629 32<247.5 279> 649 20
LayerCount: 2
Fore
SplineSet
279 629 m 258
 216 629 161 574 125 492 c 256
 123 489 119 488 114 488 c 256
 106 488 93 493 91 496 c 257
 116 542 136 601 155 669 c 257
 174 666 205 661 230 661 c 258
 411 661 l 258
 489 661 529 665 608 671 c 257
 612 670 622 657 620 649 c 256
 617 641 312 270 103 32 c 257
 347 32 l 258
 394 32 432 58 457 85 c 256
 483 113 499 147 513 172 c 256
 514 174 521 175 526 175 c 256
 535 175 544 170 547 166 c 257
 509 87 493 50 474 0 c 257
 4 0 l 258
 -6 0 -15 8 -10 14 c 258
 508 630 l 257
 279 629 l 258
EndSplineSet
Validated: 8388609
PickledDataWithLists: "(dp1
S'com.fontlab.hintData'
p2
(dp3
S'hhints'
p4
(lp5
(dp6
S'position'
p7
I0
sS'width'
p8
I32
sa(dp9
g7
I629
sg8
I32
sa(dp10
g7
I649
sg8
I20
sass."
Substitution2: "c2scCapitalstoSmallCapitalslookup5 subtable" z.sc
EndChar

StartChar: bracketleft
Encoding: 58 91 58
GlifName: bracketleft
Width: 260
VWidth: 0
GlyphClass: 2
Flags: W
HStem: 695 45<216 221.5 175.5 244>
VStem: 7 332
LayerCount: 2
Fore
SplineSet
161 717 m 258
 161 718 167 740 184 740 c 256
 259 740 319 749 334 749 c 256
 336 749 339 749 339 743 c 256
 339 721 316 707 315 706 c 258
 315 706 269 695 219 695 c 256
 213 695 211 687 211 687 c 257
 67 -49 l 257
 161 717 l 258
EndSplineSet
Validated: 1
PickledDataWithLists: "(dp1
S'com.fontlab.hintData'
p2
(dp3
S'vhints'
p4
(lp5
(dp6
S'position'
p7
I7
sS'width'
p8
I332
sasS'hhints'
p9
(lp10
(dp11
g7
I695
sg8
I45
sass."
Substitution2: "c2scCapitalstoSmallCapitalslookup5 subtable" bracketleft.sc
Substitution2: "smcpLowercasetoSmallCapitalslookup4 subtable" bracketleft.sc
EndChar

StartChar: backslash
Encoding: 59 92 59
GlifName: backslash
Width: 368
VWidth: 0
GlyphClass: 2
Flags: W
VStem: 115 175
LayerCount: 2
Fore
SplineSet
290 -4 m 258
 293 -20 274 -40 263 -40 c 256
 259 -40 255 -40 251 -37 c 257
 199 269 115 755 115 755 c 257
 117 758 123 762 129 762 c 256
 150 762 164 735 166 725 c 258
 290 -4 l 258
EndSplineSet
Validated: 33
PickledDataWithLists: "(dp1
S'com.fontlab.hintData'
p2
(dp3
S'vhints'
p4
(lp5
(dp6
S'position'
p7
I115
sS'width'
p8
I175
sass."
Substitution2: "c2scCapitalstoSmallCapitalslookup5 subtable" backslash.sc
Substitution2: "smcpLowercasetoSmallCapitalslookup4 subtable" backslash.sc
EndChar

StartChar: bracketright
Encoding: 60 93 60
GlifName: bracketright
Width: 258
VWidth: 0
GlyphClass: 2
Flags: W
HStem: -102 45<55 61 38 101.5> 695 45<180 262.5>
VStem: -58 328
LayerCount: 2
Fore
SplineSet
109 749 m 256
 111 749 180 740 257 740 c 256
 268 740 270 732 270 725 c 256
 270 721 270 720 269 717 c 258
 115 -79 l 258
 115 -80 110 -102 93 -102 c 256
 17 -102 -54 -114 -54 -114 c 257
 -54 -114 -58 -111 -58 -105 c 256
 -58 -90 -43 -79 -38 -74 c 257
 -15 -66 18 -57 58 -57 c 256
 64 -57 67 -49 67 -49 c 257
 210 687 l 257
 210 687 211 695 205 695 c 256
 155 695 113 706 113 706 c 257
 111 708 101 713 101 728 c 256
 101 737 104 749 109 749 c 256
EndSplineSet
Validated: 1
PickledDataWithLists: "(dp1
S'com.fontlab.hintData'
p2
(dp3
S'vhints'
p4
(lp5
(dp6
S'position'
p7
I-58
sS'width'
p8
I328
sasS'hhints'
p9
(lp10
(dp11
g7
I-102
sg8
I45
sa(dp12
g7
I695
sg8
I45
sass."
Substitution2: "c2scCapitalstoSmallCapitalslookup5 subtable" bracketright.sc
Substitution2: "smcpLowercasetoSmallCapitalslookup4 subtable" bracketright.sc
EndChar

StartChar: asciicircum
Encoding: 61 94 61
GlifName: asciicircum
Width: 303
VWidth: 0
GlyphClass: 2
Flags: W
HStem: 475 215<17 197 182.5 282.5>
VStem: 13 283<499 499>
LayerCount: 2
Fore
SplineSet
13 499 m 257
 22 514 104 565 174 677 c 256
 180 687 179 690 186 690 c 256
 208 690 196 670 237 588 c 256
 252 558 295 505 296 500 c 257
 294 492 286 475 279 475 c 256
 259 475 190 564 172 597 c 257
 123 540 32 475 21 475 c 256
 13 475 13 491 13 499 c 257
EndSplineSet
Validated: 1
PickledDataWithLists: "(dp1
S'com.fontlab.hintData'
p2
(dp3
S'vhints'
p4
(lp5
(dp6
S'position'
p7
I13
sS'width'
p8
I283
sasS'hhints'
p9
(lp10
(dp11
g7
I475
sg8
I215
sass."
Substitution2: "c2scCapitalstoSmallCapitalslookup5 subtable" asciicircum.sc
Substitution2: "smcpLowercasetoSmallCapitalslookup4 subtable" asciicircum.sc
EndChar

StartChar: underscore
Encoding: 62 95 62
GlifName: underscore
Width: 475
VWidth: 0
GlyphClass: 2
Flags: HWO
HStem: -43 56<-35.5 399 -15 381>
LayerCount: 2
Fore
SplineSet
-34 -43 m 256
 -39 -43 -39 -38 -39 -32 c 257
 -39 -21 -26 13 -15 13 c 256
 148 13 352 13 399 13 c 256
 403 13 405 9 405 5 c 257
 405 -15.8806130178 392 -43 381 -43 c 256
 369 -43 -14 -43 -34 -43 c 256
EndSplineSet
PickledDataWithLists: "(dp1
S'com.fontlab.hintData'
p2
(dp3
S'hhints'
p4
(lp5
(dp6
S'position'
p7
I-43
sS'width'
p8
I56
sass."
EndChar

StartChar: a
Encoding: 64 97 64
GlifName: a
Width: 449
VWidth: 0
GlyphClass: 2
Flags: W
HStem: -6 55<266.5 338.5> 395 40<244 265.5>
VStem: 19 74<120 200>
LayerCount: 2
Fore
SplineSet
305 435 m 256
 340 435 364 429 383 422 c 257
 322 106 l 258
 319 94 311 49 328 49 c 256
 349 49 395 104 398 107 c 257
 401 107 408 94 408 88 c 257
 397 69 324 -6 277 -6 c 256
 256 -6 243 16 243 46 c 256
 243 54 246 78 250 99 c 256
 253 117 254 123 255 130 c 257
 235 94 166 -5 108 -5 c 256
 54 -5 19 43 19 113 c 256
 19 287 183 435 305 435 c 256
259 395 m 256
 182 395 93 266 93 151 c 256
 93 89 109 53 144 53 c 256
 194 53 265 178 284 274 c 258
 305 380 l 257
 296 390 272 395 259 395 c 256
EndSplineSet
Validated: 33
PickledDataWithLists: "(dp1
S'com.fontlab.hintData'
p2
(dp3
S'vhints'
p4
(lp5
(dp6
S'position'
p7
I19
sS'width'
p8
I74
sasS'hhints'
p9
(lp10
(dp11
g7
I-6
sg8
I55
sa(dp12
g7
I395
sg8
I40
sass."
Substitution2: "smcpLowercasetoSmallCapitalslookup4 subtable" a.sc
EndChar

StartChar: b
Encoding: 65 98 65
GlifName: b
Width: 429
VWidth: 0
GlyphClass: 2
Flags: W
HStem: -6 33<140.5 189.5> 380 55<253.5 341> 631 21<76 84> 665 20
VStem: 137 81<606.5 669> 314 74<261.5 320.5>
LayerCount: 2
Fore
SplineSet
275 380 m 256
 232 380 139 266 118 156 c 256
 102 75 117 27 164 27 c 256
 248 27 314 221 314 302 c 256
 314 339 310 380 275 380 c 256
143 285 m 257
 213 402 286 435 318 435 c 256
 364 435 388 391 388 322 c 256
 388 142 243 -6 136 -6 c 256
 80 -6 43 37 43 111 c 256
 43 121 47 146 49 158 c 258
 128 559 l 258
 132 577 137 601 137 612 c 256
 137 631 92 631 76 631 c 257
 73 635 76 648 80 652 c 257
 135 657 190 677 212 685 c 257
 217 682 218 672 218 666 c 256
 218 658 210 616 205 591 c 258
 143 285 l 257
EndSplineSet
Validated: 33
PickledDataWithLists: "(dp1
S'com.fontlab.hintData'
p2
(dp3
S'vhints'
p4
(lp5
(dp6
S'position'
p7
I137
sS'width'
p8
I81
sa(dp9
g7
I314
sg8
I74
sasS'hhints'
p10
(lp11
(dp12
g7
I-6
sg8
I33
sa(dp13
g7
I380
sg8
I55
sa(dp14
g7
I631
sg8
I21
sa(dp15
g7
I665
sg8
I20
sass."
Substitution2: "smcpLowercasetoSmallCapitalslookup4 subtable" b.sc
EndChar

StartChar: c
Encoding: 66 99 66
GlifName: c
Width: 359
VWidth: 0
GlyphClass: 2
Flags: W
HStem: -6 59<139.5 166.5> 394 41<223.5 238.5>
VStem: 24 78<144.5 220>
LayerCount: 2
Fore
SplineSet
275 435 m 256
 307 435 324 421 337 410 c 257
 340 406 346 394 346 383 c 256
 346 360 335 338 312 338 c 256
 298 338 283 346 276 358 c 256
 266 374 253 394 224 394 c 256
 169 394 102 296 102 162 c 256
 102 127 108 53 171 53 c 256
 216 53 271 119 274 122 c 257
 277 122 286 108 286 102 c 257
 275 83 198 -6 135 -6 c 256
 64 -6 24 47 24 140 c 256
 24 300 172 435 275 435 c 256
EndSplineSet
Validated: 1
PickledDataWithLists: "(dp1
S'com.fontlab.hintData'
p2
(dp3
S'vhints'
p4
(lp5
(dp6
S'position'
p7
I24
sS'width'
p8
I78
sasS'hhints'
p9
(lp10
(dp11
g7
I-6
sg8
I59
sa(dp12
g7
I394
sg8
I41
sass."
Substitution2: "smcpLowercasetoSmallCapitalslookup4 subtable" c.sc
EndChar

StartChar: d
Encoding: 67 100 67
GlifName: d
Width: 449
VWidth: 0
GlyphClass: 2
Flags: W
HStem: -5 58<125.5 137> 395 40<220.5 316> 631 21<287 295> 665 20
VStem: 19 74<122.5 194.5> 243 75<31 75.5> 348 81<606.5 669>
LayerCount: 2
Fore
SplineSet
296 341 m 258
 300 364 288 395 261 395 c 256
 180 395 93 265 93 150 c 256
 93 95 107 53 144 53 c 256
 195 53 265 179 284 276 c 257
 296 341 l 258
339 559 m 258
 342 577 348 601 348 612 c 256
 348 631 303 631 287 631 c 257
 284 635 287 648 291 652 c 257
 346 657 401 677 423 685 c 257
 428 682 429 672 429 666 c 256
 429 658 421 616 416 591 c 258
 322 106 l 258
 321 102 318 78 318 73 c 256
 318 64 318 49 328 49 c 256
 349 49 395 104 398 107 c 257
 401 107 408 94 408 88 c 257
 397 69 324 -6 277 -6 c 256
 256 -6 243 16 243 46 c 256
 243 54 246 78 250 99 c 256
 254 118 254 123 255 130 c 257
 240 100 167 -5 107 -5 c 256
 45 -5 19 58 19 116 c 256
 19 273 173 435 303 435 c 258
 316 435 l 257
 339 559 l 258
EndSplineSet
Validated: 33
PickledDataWithLists: "(dp1
S'com.fontlab.hintData'
p2
(dp3
S'vhints'
p4
(lp5
(dp6
S'position'
p7
I19
sS'width'
p8
I74
sa(dp9
g7
I243
sg8
I75
sa(dp10
g7
I348
sg8
I81
sasS'hhints'
p11
(lp12
(dp13
g7
I-5
sg8
I58
sa(dp14
g7
I395
sg8
I40
sa(dp15
g7
I631
sg8
I21
sa(dp16
g7
I665
sg8
I20
sass."
Substitution2: "smcpLowercasetoSmallCapitalslookup4 subtable" d.sc
EndChar

StartChar: e
Encoding: 68 101 68
GlifName: e
Width: 363
VWidth: 0
GlyphClass: 2
Flags: W
HStem: -6 59<145 164.5> 193 25<105 124.5 105 134> 394 41<216.5 233.5>
VStem: 23 78<130.5 163.5 130.5 213> 266 74<325 367.5>
LayerCount: 2
Fore
SplineSet
274 435 m 256
 325 435 340 403 340 373 c 256
 340 277 165 193 103 193 c 257
 102 190 101 166 101 161 c 256
 101 100 120 53 170 53 c 256
 215 53 270 119 273 122 c 257
 276 122 285 108 285 102 c 257
 272 80 196 -6 133 -6 c 256
 62 -6 23 46 23 139 c 256
 23 287 159 435 274 435 c 256
105 218 m 257
 144 218 266 280 266 354 c 256
 266 381 243 394 224 394 c 256
 155 394 110 269 105 218 c 257
EndSplineSet
Validated: 1
PickledDataWithLists: "(dp1
S'com.fontlab.hintData'
p2
(dp3
S'vhints'
p4
(lp5
(dp6
S'position'
p7
I23
sS'width'
p8
I78
sa(dp9
g7
I266
sg8
I74
sasS'hhints'
p10
(lp11
(dp12
g7
I-6
sg8
I59
sa(dp13
g7
I193
sg8
I25
sa(dp14
g7
I394
sg8
I41
sass."
Substitution2: "smcpLowercasetoSmallCapitalslookup4 subtable" e.sc
EndChar

StartChar: f
Encoding: 69 102 69
GlifName: f
Width: 296
VWidth: 0
GlyphClass: 2
Flags: W
HStem: -233 43 376 37<203 299 196 303> 642 43<273.5 350.5>
LayerCount: 2
Fore
SplineSet
336 685 m 256
 365 685 383 673 390 660 c 257
 390 657 390 654 390 651 c 256
 388 628 379 604 360 604 c 256
 343 604 333 615 322 627 c 256
 315 634 307 642 293 642 c 256
 254 642 234 572 203 413 c 257
 303 413 l 258
 307 413 308 406 308 401 c 256
 308 391 304 384 299 376 c 257
 196 376 l 257
 336 685 l 256
EndSplineSet
Validated: 5
PickledDataWithLists: "(dp1
S'com.fontlab.hintData'
p2
(dp3
S'hhints'
p4
(lp5
(dp6
S'position'
p7
I-233
sS'width'
p8
I43
sa(dp9
g7
I376
sg8
I37
sa(dp10
g7
I642
sg8
I43
sass."
Substitution2: "smcpLowercasetoSmallCapitalslookup4 subtable" f.sc
EndChar

StartChar: g
Encoding: 70 103 70
GlifName: g
Width: 412
VWidth: 0
GlyphClass: 2
Flags: W
HStem: -233 35<130 179.5> 122 29<137 208.5> 407 29<182.5 231.5>
VStem: -48 74<-143.5 -100.5> 40 74<222.5 281.5 222.5 295.5> 53 88<65.5 66.5> 278 64<-125.5 -86.5>
LayerCount: 2
Fore
SplineSet
278 -118 m 256
 278 -55 185 -24 127 -6 c 257
 87 -23 26 -54 26 -110 c 256
 26 -177 91 -198 169 -198 c 256
 236 -198 278 -160 278 -118 c 256
212 407 m 256
 148 407 114 316 114 247 c 256
 114 198 134 151 176 151 c 256
 241 151 273 232 273 294 c 256
 273 343 251 407 212 407 c 256
333 381 m 257
 334 375 347 339 347 312 c 256
 347 206 276 157 256 145 c 256
 221 124 141 105 141 82 c 256
 141 49 342 39 342 -78 c 256
 342 -173 251 -233 108 -233 c 256
 18 -233 -48 -197 -48 -135 c 256
 -48 -66 37 -21 96 6 c 257
 78 18 l 258
 66 26 53 36 53 54 c 256
 53 79 120 114 153 122 c 257
 121 122 40 160 40 239 c 256
 40 352 136 436 229 436 c 256
 267 436 289 426 314 414 c 256
 328 407 364 427 377 429 c 257
 390 425 418 407 418 394 c 256
 418 387 414 380 406 380 c 256
 392 380 346 382 333 381 c 257
EndSplineSet
Validated: 8388641
PickledDataWithLists: "(dp1
S'com.fontlab.hintData'
p2
(dp3
S'vhints'
p4
(lp5
(dp6
S'position'
p7
I-48
sS'width'
p8
I74
sa(dp9
g7
I40
sg8
I74
sa(dp10
g7
I53
sg8
I88
sa(dp11
g7
I278
sg8
I64
sasS'hhints'
p12
(lp13
(dp14
g7
I-233
sg8
I35
sa(dp15
g7
I122
sg8
I29
sa(dp16
g7
I407
sg8
I29
sass."
Substitution2: "smcpLowercasetoSmallCapitalslookup4 subtable" g.sc
EndChar

StartChar: h
Encoding: 71 104 71
GlifName: h
Width: 470
VWidth: 0
GlyphClass: 2
Flags: W
HStem: -6 55<289 361.5> 361 74<304 304.5> 631 21<78 86> 665 20
VStem: 139 81<606.5 669> 266 75<31 76.5> 315 77<312.5 388>
LayerCount: 2
Fore
SplineSet
207 591 m 258
 156 330 l 257
 138 238 l 257
 151 263 271 435 337 435 c 256
 376 435 392 407 392 369 c 256
 392 335 386 298 378 260 c 258
 345 106 l 258
 344 102 341 79 341 74 c 256
 341 65 341 49 351 49 c 256
 372 49 418 104 421 107 c 257
 424 107 431 94 431 88 c 257
 420 69 347 -6 300 -6 c 256
 278 -6 266 16 266 46 c 256
 266 54 268 78 273 99 c 258
 308 264 l 258
 310 273 315 307 315 318 c 256
 315 341 313 361 296 361 c 256
 260 361 140 236 117 119 c 256
 111 88 102 46 92 0 c 257
 82 -3 66 -4 56 -4 c 256
 46 -4 34 -3 22 0 c 257
 130 559 l 258
 133 577 139 601 139 612 c 256
 139 631 94 631 78 631 c 257
 75 635 78 648 82 652 c 257
 137 657 192 677 214 685 c 257
 219 682 220 672 220 666 c 256
 220 658 212 616 207 591 c 258
EndSplineSet
Validated: 8388609
PickledDataWithLists: "(dp1
S'com.fontlab.hintData'
p2
(dp3
S'vhints'
p4
(lp5
(dp6
S'position'
p7
I139
sS'width'
p8
I81
sa(dp9
g7
I266
sg8
I75
sa(dp10
g7
I315
sg8
I77
sasS'hhints'
p11
(lp12
(dp13
g7
I-6
sg8
I55
sa(dp14
g7
I361
sg8
I74
sa(dp15
g7
I631
sg8
I21
sa(dp16
g7
I665
sg8
I20
sass."
Substitution2: "smcpLowercasetoSmallCapitalslookup4 subtable" h.sc
EndChar

StartChar: i
Encoding: 72 105 72
GlifName: i
Width: 262
VWidth: 0
GlyphClass: 2
Flags: W
HStem: -6 55<76.5 148.5> 380 55<94.5 161.5> 546 100<153 165.5>
VStem: 53 75<31 76.5> 115 75<352.5 398> 116 88<590.5 604>
LayerCount: 2
Fore
SplineSet
111 323 m 258
 112 329 115 350 115 355 c 256
 115 364 115 380 105 380 c 256
 84 380 38 325 35 322 c 257
 32 322 25 335 25 341 c 257
 36 360 104 435 151 435 c 256
 172 435 190 413 190 383 c 256
 190 375 187 351 183 330 c 258
 132 106 l 258
 130 96 128 79 128 74 c 256
 128 65 128 49 138 49 c 256
 159 49 205 104 208 107 c 257
 211 107 218 94 218 88 c 257
 207 69 134 -6 87 -6 c 256
 66 -6 53 16 53 46 c 256
 53 54 56 78 60 99 c 258
 111 323 l 258
168 646 m 256
 189 646 204 627 204 606 c 256
 204 575 181 546 150 546 c 256
 128 546 116 567 116 589 c 256
 116 619 138 646 168 646 c 256
EndSplineSet
Validated: 8388609
PickledDataWithLists: "(dp1
S'com.fontlab.hintData'
p2
(dp3
S'vhints'
p4
(lp5
(dp6
S'position'
p7
I53
sS'width'
p8
I75
sa(dp9
g7
I115
sg8
I75
sa(dp10
g7
I116
sg8
I88
sasS'hhints'
p11
(lp12
(dp13
g7
I-6
sg8
I55
sa(dp14
g7
I380
sg8
I55
sa(dp15
g7
I546
sg8
I100
sass."
Substitution2: "smcpLowercasetoSmallCapitalslookup4 subtable" i.sc
Substitution2: "ccmpGlyphCompositionDecompositioninLatinlookup1 subtable" i.TRK
EndChar

StartChar: j
Encoding: 73 106 73
GlifName: j
Width: 249
VWidth: 0
GlyphClass: 2
Flags: W
HStem: 380 55<100.5 167.5> 546 100<170 182.5>
VStem: 121 75<352.5 398> 133 88<590.5 604>
LayerCount: 2
Fore
SplineSet
117 323 m 258
 118 329 121 350 121 355 c 256
 121 364 121 380 111 380 c 256
 90 380 44 325 41 322 c 257
 38 322 31 335 31 341 c 257
 42 360 110 435 157 435 c 256
 178 435 196 413 196 383 c 256
 196 375 193 351 189 330 c 258
 134 45 l 258
 127 9 106 -67 63 -124 c 256
 21 -179 -41 -221 -76 -235 c 257
 -80 -232 -85 -222 -85 -215 c 257
 -18 -177 35 -89 57 22 c 258
 117 323 l 258
185 646 m 256
 206 646 221 627 221 606 c 256
 221 575 198 546 167 546 c 256
 145 546 133 567 133 589 c 256
 133 619 155 646 185 646 c 256
EndSplineSet
Validated: 8388609
PickledDataWithLists: "(dp1
S'com.fontlab.hintData'
p2
(dp3
S'vhints'
p4
(lp5
(dp6
S'position'
p7
I121
sS'width'
p8
I75
sa(dp9
g7
I133
sg8
I88
sasS'hhints'
p10
(lp11
(dp12
g7
I380
sg8
I55
sa(dp13
g7
I546
sg8
I100
sass."
Substitution2: "smcpLowercasetoSmallCapitalslookup4 subtable" j.sc
EndChar

StartChar: k
Encoding: 74 107 74
GlifName: k
Width: 460
VWidth: 0
GlyphClass: 2
Flags: W
HStem: -4 55<262.5 354.5> 388 47<282 303> 631 21<79 87> 665 20
VStem: 140 81<606.5 669> 322 78<321.5 363>
LayerCount: 2
Fore
SplineSet
325 435 m 256
 364 435 400 406 400 367 c 256
 400 276 300 230 189 211 c 257
 277 79 305 51 346 51 c 256
 363 51 403 93 414 107 c 257
 417 107 424 93 424 88 c 257
 416 74 346 -4 302 -4 c 256
 223 -4 173 119 130 191 c 257
 93 0 l 257
 82 -3 69 -5 58 -5 c 256
 47 -5 34 -3 22 0 c 257
 131 559 l 258
 135 577 140 601 140 612 c 256
 140 631 95 631 79 631 c 257
 76 635 79 648 83 652 c 257
 138 657 193 677 215 685 c 257
 220 682 221 672 221 666 c 256
 221 658 213 616 208 591 c 258
 156 322 l 257
 161 326 239 435 325 435 c 256
289 388 m 256
 231 388 150 291 138 230 c 257
 205 230 322 271 322 354 c 256
 322 372 317 388 289 388 c 256
EndSplineSet
Validated: 1
PickledDataWithLists: "(dp1
S'com.fontlab.hintData'
p2
(dp3
S'vhints'
p4
(lp5
(dp6
S'position'
p7
I140
sS'width'
p8
I81
sa(dp9
g7
I322
sg8
I78
sasS'hhints'
p10
(lp11
(dp12
g7
I-4
sg8
I55
sa(dp13
g7
I388
sg8
I47
sa(dp14
g7
I631
sg8
I21
sa(dp15
g7
I665
sg8
I20
sass."
Substitution2: "smcpLowercasetoSmallCapitalslookup4 subtable" k.sc
EndChar

StartChar: l
Encoding: 75 108 75
GlifName: l
Width: 243
VWidth: 0
GlyphClass: 2
Flags: W
HStem: -6 55<60 132.5> 631 21<82 90> 665 20
VStem: 37 75<31 76.5> 143 81<606.5 669>
LayerCount: 2
Fore
SplineSet
134 559 m 258
 138 577 143 601 143 612 c 256
 143 631 98 631 82 631 c 257
 79 635 82 648 86 652 c 257
 141 657 196 677 218 685 c 257
 223 682 224 672 224 666 c 256
 224 658 216 616 211 591 c 258
 116 106 l 258
 115 102 112 79 112 74 c 256
 112 65 112 49 122 49 c 256
 143 49 189 104 192 107 c 257
 195 107 202 94 202 88 c 257
 191 69 118 -6 71 -6 c 256
 49 -6 37 16 37 46 c 256
 37 54 40 78 44 99 c 258
 134 559 l 258
EndSplineSet
Validated: 1
PickledDataWithLists: "(dp1
S'com.fontlab.hintData'
p2
(dp3
S'vhints'
p4
(lp5
(dp6
S'position'
p7
I37
sS'width'
p8
I75
sa(dp9
g7
I143
sg8
I81
sasS'hhints'
p10
(lp11
(dp12
g7
I-6
sg8
I55
sa(dp13
g7
I631
sg8
I21
sa(dp14
g7
I665
sg8
I20
sass."
Substitution2: "smcpLowercasetoSmallCapitalslookup4 subtable" l.sc
EndChar

StartChar: m
Encoding: 76 109 76
GlifName: m
Width: 714
VWidth: 0
GlyphClass: 2
Flags: W
HStem: -6 55<533.5 605.5> 361 74<311 315.5 548 549> 380 55<91.5 158.5>
VStem: 112 75<352.5 398> 329 75<328 335> 510 75<31 76.5> 559 77<312.5 389.5>
LayerCount: 2
Fore
SplineSet
517 99 m 258
 552 264 l 258
 554 273 559 307 559 318 c 256
 559 344 558 361 540 361 c 256
 500 361 385 233 366 132 c 258
 341 0 l 257
 327 -2 318 -3 304 -3 c 256
 290 -3 282 -2 269 0 c 257
 325 284 l 258
 328 300 329 313 329 322 c 256
 329 348 322 361 309 361 c 256
 264 361 158 218 138 122 c 258
 113 0 l 257
 102 -3 91 -4 77 -4 c 256
 63 -4 54 -2 42 0 c 257
 108 323 l 258
 109 329 112 350 112 355 c 256
 112 364 112 380 102 380 c 256
 81 380 35 325 32 322 c 257
 29 322 22 335 22 341 c 257
 33 360 101 435 148 435 c 256
 169 435 187 413 187 383 c 256
 187 375 183 351 179 330 c 256
 172 294 167 273 159 237 c 257
 195 300 285 435 337 435 c 256
 395 435 404 384 404 340 c 256
 404 316 396 268 390 251 c 257
 426 314 522 435 574 435 c 256
 620 435 636 410 636 369 c 256
 636 335 629 292 622 260 c 258
 589 106 l 258
 587 96 585 79 585 74 c 256
 585 65 585 49 595 49 c 256
 616 49 662 104 665 107 c 257
 668 107 675 94 675 88 c 257
 664 69 591 -6 544 -6 c 256
 523 -6 510 16 510 46 c 256
 510 54 513 78 517 99 c 258
EndSplineSet
Validated: 8388609
PickledDataWithLists: "(dp1
S'com.fontlab.hintData'
p2
(dp3
S'vhints'
p4
(lp5
(dp6
S'position'
p7
I112
sS'width'
p8
I75
sa(dp9
g7
I329
sg8
I75
sa(dp10
g7
I510
sg8
I75
sa(dp11
g7
I559
sg8
I77
sasS'hhints'
p12
(lp13
(dp14
g7
I-6
sg8
I55
sa(dp15
g7
I361
sg8
I74
sa(dp16
g7
I380
sg8
I55
sass."
Substitution2: "smcpLowercasetoSmallCapitalslookup4 subtable" m.sc
EndChar

StartChar: n
Encoding: 77 110 77
GlifName: n
Width: 497
VWidth: 0
GlyphClass: 2
Flags: W
HStem: -6 55<316.5 388.5> 361 74<323.5 332> 380 55<91.5 158.5>
VStem: 112 75<352.5 398> 293 75<31 76.5> 342 77<312.5 389.5>
LayerCount: 2
Fore
SplineSet
179 330 m 258
 161 246 l 257
 174 271 290 435 357 435 c 256
 403 435 419 410 419 369 c 256
 419 338 412 294 405 260 c 258
 372 106 l 258
 370 96 368 79 368 74 c 256
 368 65 368 49 378 49 c 256
 399 49 445 104 448 107 c 257
 451 107 458 94 458 88 c 257
 447 69 374 -6 327 -6 c 256
 306 -6 293 16 293 46 c 256
 293 54 296 78 300 99 c 258
 335 264 l 258
 337 273 342 307 342 318 c 256
 342 344 341 361 323 361 c 256
 286 361 162 247 138 122 c 256
 129 74 123 48 113 0 c 257
 101 -3 91 -4 77 -4 c 256
 63 -4 54 -3 42 0 c 257
 108 323 l 258
 109 329 112 350 112 355 c 256
 112 364 112 380 102 380 c 256
 81 380 35 325 32 322 c 257
 29 322 22 335 22 341 c 257
 33 360 101 435 148 435 c 256
 169 435 187 413 187 383 c 256
 187 375 184 351 179 330 c 258
EndSplineSet
Validated: 8388609
PickledDataWithLists: "(dp1
S'com.fontlab.hintData'
p2
(dp3
S'vhints'
p4
(lp5
(dp6
S'position'
p7
I112
sS'width'
p8
I75
sa(dp9
g7
I293
sg8
I75
sa(dp10
g7
I342
sg8
I77
sasS'hhints'
p11
(lp12
(dp13
g7
I-6
sg8
I55
sa(dp14
g7
I361
sg8
I74
sa(dp15
g7
I380
sg8
I55
sass."
Substitution2: "smcpLowercasetoSmallCapitalslookup4 subtable" n.sc
EndChar

StartChar: o
Encoding: 78 111 78
GlifName: o
Width: 414
VWidth: 0
GlyphClass: 2
Flags: W
HStem: -5 32<141 197.5> 403 32<195 255>
VStem: 24 78<118 208 118 208> 290 78<223 313>
LayerCount: 2
Fore
SplineSet
237 403 m 256
 153 403 102 258 102 158 c 256
 102 78 123 27 159 27 c 256
 242 27 290 173 290 273 c 256
 290 353 273 403 237 403 c 256
251 435 m 256
 331 435 368 374 368 288 c 256
 368 148 255 -5 140 -5 c 256
 60 -5 24 52 24 138 c 256
 24 278 136 435 251 435 c 256
EndSplineSet
Validated: 1
PickledDataWithLists: "(dp1
S'com.fontlab.hintData'
p2
(dp3
S'vhints'
p4
(lp5
(dp6
S'position'
p7
I24
sS'width'
p8
I78
sa(dp9
g7
I290
sg8
I78
sasS'hhints'
p10
(lp11
(dp12
g7
I-5
sg8
I32
sa(dp13
g7
I403
sg8
I32
sass."
Substitution2: "smcpLowercasetoSmallCapitalslookup4 subtable" o.sc
EndChar

StartChar: p
Encoding: 79 112 79
GlifName: p
Width: 448
VWidth: 0
GlyphClass: 2
Flags: W
HStem: -235 29<4.29497e+09 4.29497e+09> -226 27 -5 35<161 216> 380 55<294.5 296>
VStem: 333 74<243.5 330.5>
LayerCount: 2
Fore
SplineSet
280 380 m 256
 247 380 189 338 162 300 c 257
 129 131 l 258
 118 72 146 30 176 30 c 256
 261 30 333 184 333 303 c 256
 333 358 312 380 280 380 c 256
320 435 m 256
 384 435 407 384 407 314 c 256
 407 159 277 -5 155 -5 c 256
 138 -5 115 -2 109 8 c 257
 76 -145 l 258
 74 -154 73 -163 73 -173 c 256
 73 -178 77 -193 87 -196 c 256
 104 -200 131 -199 134 -199 c 256
 138 -200 136 -225 131 -227 c 257
 118 -227 107 -226 96 -226 c 256
 45 -226 6 -228 -52 -235 c 257
 -57 -234 -56 -209 -51 -206 c 257
 -33 -206 -20 -201 -11 -190 c 256
 -4 -181 0 -170 5 -147 c 258
 84 250 l 257
 36 202 l 257
 32 207 30 217 30 222 c 256
 30 226 32 228 33 229 c 258
 92 292 l 257
 118 433 l 257
 129 436 145 437 156 437 c 256
 167 437 178 435 188 430 c 257
 184 411 173 353 172 346 c 257
 199 371 269 435 320 435 c 256
EndSplineSet
Validated: 8388641
PickledDataWithLists: "(dp1
S'com.fontlab.hintData'
p2
(dp3
S'vhints'
p4
(lp5
(dp6
S'position'
p7
I333
sS'width'
p8
I74
sasS'hhints'
p9
(lp10
(dp11
g7
I-235
sg8
I29
sa(dp12
g7
I-226
sg8
I27
sa(dp13
g7
I-5
sg8
I35
sa(dp14
g7
I380
sg8
I55
sass."
Substitution2: "smcpLowercasetoSmallCapitalslookup4 subtable" p.sc
EndChar

StartChar: q
Encoding: 80 113 80
GlifName: q
Width: 426
VWidth: 0
GlyphClass: 2
Flags: W
HStem: -227 19 -5 58<125.5 136> 395 40<238 274.5>
VStem: 19 74<122.5 194.5>
LayerCount: 2
Fore
SplineSet
317 -228 m 257
 303 -228 290 -227 277 -227 c 256
 219 -227 164 -231 127 -235 c 257
 125 -233 124 -208 130 -208 c 256
 159 -205 193 -197 198 -171 c 258
 254 130 l 257
 234 94 165 -5 107 -5 c 256
 45 -5 19 58 19 116 c 256
 19 273 173 435 303 435 c 256
 338 435 363 429 382 422 c 257
 321 106 l 258
 320 102 275 -150 275 -150 c 258
 274 -158 273 -165 273 -171 c 256
 273 -185 275 -201 319 -201 c 256
 323 -201 322 -225 317 -228 c 257
296 341 m 258
 300 364 288 395 261 395 c 256
 180 395 93 265 93 150 c 256
 93 95 107 53 144 53 c 256
 195 53 265 179 284 276 c 257
 296 341 l 258
EndSplineSet
Validated: 33
PickledDataWithLists: "(dp1
S'com.fontlab.hintData'
p2
(dp3
S'vhints'
p4
(lp5
(dp6
S'position'
p7
I19
sS'width'
p8
I74
sasS'hhints'
p9
(lp10
(dp11
g7
I-227
sg8
I19
sa(dp12
g7
I-5
sg8
I58
sa(dp13
g7
I395
sg8
I40
sass."
Substitution2: "smcpLowercasetoSmallCapitalslookup4 subtable" q.sc
EndChar

StartChar: r
Encoding: 81 114 81
GlifName: r
Width: 356
VWidth: 0
GlyphClass: 2
Flags: W
HStem: -3 21<77.5 89.5> 365 70 380 55<90.5 157.5>
VStem: 111 75<352.5 398>
LayerCount: 2
Fore
SplineSet
307 435 m 256
 329 435 347 424 356 414 c 256
 360 409 365 396 365 386 c 256
 365 360 352 342 329 342 c 256
 320 342 307 348 299 357 c 256
 295 362 287 365 279 365 c 256
 243 365 159 226 140 122 c 258
 118 0 l 257
 107 -2 95 -3 84 -3 c 256
 71 -3 59 -2 47 0 c 257
 107 323 l 258
 108 329 111 350 111 355 c 256
 111 364 111 380 101 380 c 256
 80 380 34 325 31 322 c 257
 28 322 21 335 21 341 c 257
 32 360 100 435 147 435 c 256
 168 435 186 413 186 383 c 256
 186 375 182 351 178 330 c 256
 172 297 168 279 161 246 c 257
 189 313 260 435 307 435 c 256
EndSplineSet
Validated: 8388609
PickledDataWithLists: "(dp1
S'com.fontlab.hintData'
p2
(dp3
S'vhints'
p4
(lp5
(dp6
S'position'
p7
I111
sS'width'
p8
I75
sasS'hhints'
p9
(lp10
(dp11
g7
I-3
sg8
I21
sa(dp12
g7
I365
sg8
I70
sa(dp13
g7
I380
sg8
I55
sass."
Substitution2: "smcpLowercasetoSmallCapitalslookup4 subtable" r.sc
EndChar

StartChar: s
Encoding: 82 115 82
GlifName: s
Width: 322
VWidth: 0
GlyphClass: 2
Flags: W
HStem: -6 32<121.5 142> 404 34<157 181.5>
VStem: 60 58<328 340> 184 61<80 101.5>
LayerCount: 2
Fore
SplineSet
199 438 m 256
 239 438 264 429 285 411 c 257
 290 404 295 386 295 379 c 256
 295 356 281 338 261 338 c 256
 243 338 227 355 214 373 c 256
 203 389 196 404 167 404 c 256
 132 404 118 369 118 348 c 256
 118 308 153 277 184 242 c 256
 215 206 245 167 245 117 c 256
 245 43 184 -6 100 -6 c 256
 69 -6 38 2 12 24 c 257
 9 29 2 44 2 54 c 256
 2 83 19 100 39 100 c 256
 59 100 67 76 82 55 c 256
 93 40 108 26 135 26 c 256
 175 26 184 63 184 84 c 256
 184 119 158 146 132 176 c 256
 97 215 60 255 60 312 c 256
 60 368 115 438 199 438 c 256
EndSplineSet
Validated: 1
PickledDataWithLists: "(dp1
S'com.fontlab.hintData'
p2
(dp3
S'vhints'
p4
(lp5
(dp6
S'position'
p7
I60
sS'width'
p8
I58
sa(dp9
g7
I184
sg8
I61
sasS'hhints'
p10
(lp11
(dp12
g7
I-6
sg8
I32
sa(dp13
g7
I404
sg8
I34
sass."
Substitution2: "smcpLowercasetoSmallCapitalslookup4 subtable" s.sc
EndChar

StartChar: t
Encoding: 83 116 83
GlifName: t
Width: 278
VWidth: 0
GlyphClass: 2
Flags: W
HStem: -6 55<72.5 144.5> 376 37<87 110 188 259>
VStem: 49 75<31 76.5>
LayerCount: 2
Fore
SplineSet
117 413 m 257
 128 472 l 257
 139 486 185 538 193 538 c 256
 199 538 206 535 210 532 c 257
 188 413 l 257
 263 413 l 258
 267 413 268 406 268 401 c 256
 268 391 264 384 259 376 c 257
 181 376 l 257
 128 106 l 258
 126 96 124 79 124 74 c 256
 124 65 124 49 134 49 c 256
 155 49 201 104 204 107 c 257
 207 107 214 94 214 88 c 257
 203 69 130 -6 83 -6 c 256
 62 -6 49 16 49 46 c 256
 49 54 52 78 56 99 c 258
 110 376 l 257
 43 376 l 258
 42 376 41 377 41 379 c 256
 41 389 64 413 87 413 c 258
 117 413 l 257
EndSplineSet
Validated: 1
PickledDataWithLists: "(dp1
S'com.fontlab.hintData'
p2
(dp3
S'vhints'
p4
(lp5
(dp6
S'position'
p7
I49
sS'width'
p8
I75
sasS'hhints'
p9
(lp10
(dp11
g7
I-6
sg8
I55
sa(dp12
g7
I376
sg8
I37
sass."
Substitution2: "smcpLowercasetoSmallCapitalslookup4 subtable" t.sc
EndChar

StartChar: u
Encoding: 84 117 84
GlifName: u
Width: 491
VWidth: 0
GlyphClass: 2
Flags: W
HStem: -6 74<89.5 173> -6 55<308.5 380.5> 380 55<89.5 156.5>
VStem: 59 77<47 116.5> 110 75<352.5 398> 285 75<31 76.5>
LayerCount: 2
Fore
SplineSet
292 99 m 256
 298 133 303 152 310 186 c 257
 284 130 175 -6 109 -6 c 256
 70 -6 59 28 59 66 c 256
 59 94 67 140 73 169 c 258
 106 323 l 258
 107 329 110 350 110 355 c 256
 110 364 110 380 100 380 c 256
 79 380 33 325 30 322 c 257
 27 322 20 335 20 341 c 257
 31 360 99 435 146 435 c 256
 167 435 185 413 185 383 c 256
 185 375 182 351 178 330 c 258
 143 165 l 258
 141 156 136 122 136 111 c 256
 136 88 138 68 155 68 c 256
 191 68 310 194 334 319 c 256
 342 360 348 387 356 429 c 257
 366 432 377 433 387 433 c 256
 397 433 414 432 426 429 c 257
 364 106 l 258
 362 96 360 79 360 74 c 256
 360 65 360 49 370 49 c 256
 391 49 437 104 440 107 c 257
 443 107 450 94 450 88 c 257
 439 69 366 -6 319 -6 c 256
 298 -6 285 16 285 46 c 256
 285 54 288 78 292 99 c 256
EndSplineSet
Validated: 8388609
PickledDataWithLists: "(dp1
S'com.fontlab.hintData'
p2
(dp3
S'vhints'
p4
(lp5
(dp6
S'position'
p7
I59
sS'width'
p8
I77
sa(dp9
g7
I110
sg8
I75
sa(dp10
g7
I285
sg8
I75
sasS'hhints'
p11
(lp12
(dp13
g7
I-6
sg8
I74
sa(dp14
g7
I-6
sg8
I55
sa(dp15
g7
I380
sg8
I55
sass."
Substitution2: "smcpLowercasetoSmallCapitalslookup4 subtable" u.sc
EndChar

StartChar: v
Encoding: 85 118 85
GlifName: v
Width: 439
VWidth: 0
GlyphClass: 2
Flags: W
HStem: -6 21<115 149.5> 380 55<86.5 153.5>
VStem: 107 75<154.5 176 176 328 328 355 355 359.5> 339 76<321.5 343.5>
LayerCount: 2
Fore
SplineSet
186 65 m 257
 257 126 283 164 314 226 c 256
 332 262 339 310 339 333 c 256
 339 354 330 379 313 396 c 257
 319 413 336 435 360 435 c 256
 398 435 415 401 415 355 c 256
 415 229 184 -6 115 -6 c 257
 108 2 107 118 107 148 c 258
 107 355 l 258
 107 364 107 380 97 380 c 256
 76 380 30 325 27 322 c 257
 24 322 17 335 17 341 c 257
 28 360 96 435 143 435 c 256
 164 435 182 411 182 381 c 258
 182 328 l 257
 182 176 l 258
 182 133 183 86 186 65 c 257
EndSplineSet
Validated: 1
PickledDataWithLists: "(dp1
S'com.fontlab.hintData'
p2
(dp3
S'vhints'
p4
(lp5
(dp6
S'position'
p7
I107
sS'width'
p8
I75
sa(dp9
g7
I339
sg8
I76
sasS'hhints'
p10
(lp11
(dp12
g7
I-6
sg8
I21
sa(dp13
g7
I380
sg8
I55
sass."
Substitution2: "smcpLowercasetoSmallCapitalslookup4 subtable" v.sc
EndChar

StartChar: w
Encoding: 86 119 86
GlifName: w
Width: 629
VWidth: 0
GlyphClass: 2
Flags: W
HStem: -6 21<115 136 339 373.5> 380 55<86.5 153.5>
VStem: 107 75<154.5 176 176 328 328 355 355 359.5> 319 72 527 76<321.5 343.5>
LayerCount: 2
Fore
SplineSet
385 375 m 257
 386 334 388 246 391 183 c 256
 393 140 396 92 406 76 c 257
 459 122 490 165 513 229 c 256
 527 267 527 310 527 333 c 256
 527 354 518 379 501 396 c 257
 507 413 524 435 548 435 c 256
 586 435 603 401 603 355 c 256
 603 229 408 -6 339 -6 c 257
 332 2 320 120 319 150 c 258
 317 214 l 257
 250 118 157 -6 115 -6 c 257
 108 2 107 118 107 148 c 258
 107 355 l 258
 107 364 107 380 97 380 c 256
 76 380 30 325 27 322 c 257
 24 322 17 335 17 341 c 257
 28 360 96 435 143 435 c 256
 164 435 182 411 182 381 c 258
 182 328 l 257
 182 176 l 258
 182 133 183 111 186 90 c 257
 231 138 281 223 299 255 c 256
 323 299 333 326 342 347 c 257
 350 357 372 372 385 375 c 257
EndSplineSet
Validated: 1
PickledDataWithLists: "(dp1
S'com.fontlab.hintData'
p2
(dp3
S'vhints'
p4
(lp5
(dp6
S'position'
p7
I107
sS'width'
p8
I75
sa(dp9
g7
I319
sg8
I72
sa(dp10
g7
I527
sg8
I76
sasS'hhints'
p11
(lp12
(dp13
g7
I-6
sg8
I21
sa(dp14
g7
I380
sg8
I55
sass."
Substitution2: "smcpLowercasetoSmallCapitalslookup4 subtable" w.sc
EndChar

StartChar: x
Encoding: 87 120 87
GlifName: x
Width: 482
VWidth: 0
GlyphClass: 2
Flags: W
HStem: -5 90<40.5 100.5> -4 56<275.5 338.5> 345 90 380 55<127 188.5>
LayerCount: 2
Fore
SplineSet
295 89 m 258
 299 68 308 52 330 52 c 256
 347 52 392 93 403 107 c 257
 406 107 413 93 413 88 c 257
 405 74 335 -4 291 -4 c 256
 260 -4 233 29 222 82 c 258
 205 168 l 257
 156 71 128 -5 73 -5 c 256
 59 -5 42 -3 26 7 c 257
 20 15 15 26 15 41 c 256
 15 65 29 85 52 85 c 256
 72 85 77 58 98 56 c 256
 113 55 121 67 128 79 c 256
 155 125 172 156 197 204 c 257
 169 342 l 258
 165 363 155 380 137 380 c 256
 117 380 72 338 61 324 c 257
 58 324 51 338 51 343 c 257
 59 357 129 435 173 435 c 256
 204 435 231 403 242 349 c 258
 256 281 l 257
 300 369 327 435 378 435 c 256
 392 435 409 433 425 423 c 257
 431 415 436 404 436 389 c 256
 436 365 422 345 399 345 c 256
 379 345 374 372 353 374 c 256
 338 375 330 363 323 351 c 256
 300 311 283 283 263 244 c 257
 295 89 l 258
EndSplineSet
Validated: 8388641
PickledDataWithLists: "(dp1
S'com.fontlab.hintData'
p2
(dp3
S'hhints'
p4
(lp5
(dp6
S'position'
p7
I-5
sS'width'
p8
I90
sa(dp9
g7
I-4
sg8
I56
sa(dp10
g7
I345
sg8
I90
sa(dp11
g7
I380
sg8
I55
sass."
Substitution2: "smcpLowercasetoSmallCapitalslookup4 subtable" x.sc
EndChar

StartChar: y
Encoding: 88 121 88
GlifName: y
Width: 447
VWidth: 0
GlyphClass: 2
Flags: W
HStem: -233 66<-19 16.5> 380 55<108.5 110.5>
VStem: 146 75<40.5 45.5 15 119> 336 69<239 315.5>
LayerCount: 2
Fore
SplineSet
132 435 m 256
 218 435 221 76 221 15 c 257
 257 59 336 176 336 285 c 256
 336 346 322 371 311 392 c 257
 319 418 337 435 361 435 c 256
 403 435 405 378 405 356 c 256
 405 122 84 -233 -51 -233 c 256
 -87 -233 -111 -214 -111 -192 c 256
 -111 -175 -103 -156 -88 -148 c 257
 -73 -157 -30 -167 -8 -167 c 256
 54 -167 95 -132 128 -84 c 256
 151 -50 146 19 146 62 c 256
 146 176 135 380 86 380 c 256
 65 380 19 325 16 322 c 257
 13 322 6 335 6 341 c 257
 17 360 85 435 132 435 c 256
EndSplineSet
Validated: 33
PickledDataWithLists: "(dp1
S'com.fontlab.hintData'
p2
(dp3
S'vhints'
p4
(lp5
(dp6
S'position'
p7
I146
sS'width'
p8
I75
sa(dp9
g7
I336
sg8
I69
sasS'hhints'
p10
(lp11
(dp12
g7
I-233
sg8
I66
sa(dp13
g7
I380
sg8
I55
sass."
Substitution2: "smcpLowercasetoSmallCapitalslookup4 subtable" y.sc
EndChar

StartChar: z
Encoding: 89 122 89
GlifName: z
Width: 387
VWidth: 0
GlyphClass: 2
Flags: W
HStem: 0 69<206 266> 32 71<52.5 149> 332 72<218 296.5> 366 69<122 122.5>
VStem: 43 12
LayerCount: 2
Fore
SplineSet
145 435 m 256
 174 435 197 424 222 415 c 256
 239 409 257 404 278 404 c 256
 315 404 360 435 368 435 c 257
 376 431 379 422 379 415 c 256
 379 401 95 96 92 92 c 257
 96 94 116 103 138 103 c 256
 160 103 181 95 200 86 c 256
 219 78 237 69 253 69 c 256
 279 69 305 127 311 136 c 257
 320 136 322 128 323 120 c 257
 306 82 265 0 218 0 c 256
 194 0 164 12 138 22 c 256
 122 28 90 32 67 32 c 256
 38 32 21 10 1 0 c 257
 -5 2 -9 10 -10 19 c 257
 -10 34 290 349 292 353 c 257
 289 351 262 332 229 332 c 256
 207 332 187 341 168 349 c 256
 149 358 131 366 114 366 c 256
 86 366 61 307 55 298 c 257
 48 298 44 305 43 314 c 257
 49 334 99 435 145 435 c 256
EndSplineSet
Validated: 8388609
PickledDataWithLists: "(dp1
S'com.fontlab.hintData'
p2
(dp3
S'vhints'
p4
(lp5
(dp6
S'position'
p7
I43
sS'width'
p8
I12
sasS'hhints'
p9
(lp10
(dp11
g7
I0
sg8
I69
sa(dp12
g7
I32
sg8
I71
sa(dp13
g7
I332
sg8
I72
sa(dp14
g7
I366
sg8
I69
sass."
Substitution2: "smcpLowercasetoSmallCapitalslookup4 subtable" z.sc
EndChar

StartChar: braceleft
Encoding: 90 123 90
GlifName: braceleft
Width: 210
VWidth: 0
GlyphClass: 2
Flags: W
LayerCount: 2
Fore
SplineSet
128 402 m 256
 133 428 126 452 121 477 c 256
 115 503 110 529 116 560 c 256
 135 657 207 722 250 739 c 257
 257 739 264 729 262 720 c 257
 234 707 176 659 166 608 c 256
 159 570 166 545 172 517 c 256
 178 492 183 464 175 424 c 256
 162 359 111 317 85 307 c 257
 107 297 143 255 130 190 c 256
 122 150 106 122 90 97 c 256
 73 69 56 44 49 6 c 256
 39 -45 78 -93 101 -106 c 257
 99 -115 89 -125 82 -125 c 257
 45 -108 -1 -43 18 54 c 256
 24 85 39 111 55 137 c 256
 70 162 86 186 91 212 c 256
 101 265 71 286 37 296 c 257
 36 298 36 303 37 307 c 256
 38 311 39 316 41 318 c 257
 79 328 118 349 128 402 c 256
EndSplineSet
Validated: 33
Substitution2: "c2scCapitalstoSmallCapitalslookup5 subtable" braceleft.sc
Substitution2: "smcpLowercasetoSmallCapitalslookup4 subtable" braceleft.sc
EndChar

StartChar: bar
Encoding: 91 124 91
GlifName: bar
Width: 207
VWidth: 0
GlyphClass: 2
Flags: W
VStem: 0 228
LayerCount: 2
Fore
SplineSet
169 757 m 257
 179 767 195 773 213 773 c 256
 220 773 229 770 228 766 c 258
 60 -106 l 257
 53 -114 33 -123 14 -123 c 256
 8 -123 -1 -120 0 -115 c 258
 169 757 l 257
EndSplineSet
Validated: 1
PickledDataWithLists: "(dp1
S'com.fontlab.hintData'
p2
(dp3
S'vhints'
p4
(lp5
(dp6
S'position'
p7
I0
sS'width'
p8
I228
sass."
Substitution2: "c2scCapitalstoSmallCapitalslookup5 subtable" bar.sc
Substitution2: "smcpLowercasetoSmallCapitalslookup4 subtable" bar.sc
EndChar

StartChar: braceright
Encoding: 92 125 92
GlifName: braceright
Width: 212
VWidth: 0
GlyphClass: 2
Flags: W
LayerCount: 2
Fore
SplineSet
143 739 m 257
 180 722 227 657 208 560 c 256
 202 529 187 503 171 477 c 256
 156 452 140 428 135 402 c 256
 125 349 155 328 189 318 c 257
 190 316 190 311 189 307 c 256
 188 302 187 299 185 296 c 257
 147 286 108 265 98 212 c 256
 93 186 100 162 105 137 c 256
 111 111 116 85 110 54 c 256
 91 -43 18 -108 -25 -125 c 257
 -32 -125 -38 -115 -36 -106 c 257
 -8 -93 50 -45 60 6 c 256
 67 44 60 69 54 97 c 256
 48 122 43 150 51 190 c 256
 64 255 115 297 141 307 c 257
 119 317 83 359 96 424 c 256
 104 464 120 492 136 517 c 256
 153 545 170 570 177 608 c 256
 187 659 148 707 125 720 c 257
 127 729 136 739 143 739 c 257
EndSplineSet
Validated: 33
Substitution2: "c2scCapitalstoSmallCapitalslookup5 subtable" braceright.sc
Substitution2: "smcpLowercasetoSmallCapitalslookup4 subtable" braceright.sc
EndChar

StartChar: asciitilde
Encoding: 93 126 93
GlifName: asciitilde
Width: 545
VWidth: 0
GlyphClass: 2
Flags: W
HStem: 250 51<361 404.5> 303 51<169.5 202>
LayerCount: 2
Fore
SplineSet
197 354 m 256
 285 354 317 301 405 301 c 256
 441 301 467 322 498 345 c 257
 500 343 504 341 504 335 c 256
 504 305 440 250 369 250 c 256
 281 250 246 303 158 303 c 256
 122 303 96 282 65 259 c 257
 63 261 59 263 59 269 c 256
 59 308 142 354 197 354 c 256
EndSplineSet
Validated: 1
PickledDataWithLists: "(dp1
S'com.fontlab.hintData'
p2
(dp3
S'hhints'
p4
(lp5
(dp6
S'position'
p7
I250
sS'width'
p8
I51
sa(dp9
g7
I303
sg8
I51
sass."
Substitution2: "c2scCapitalstoSmallCapitalslookup5 subtable" asciitilde.sc
Substitution2: "smcpLowercasetoSmallCapitalslookup4 subtable" asciitilde.sc
EndChar

StartChar: exclamdown
Encoding: 95 161 95
GlifName: exclamdown
Width: 203
VWidth: 0
GlyphClass: 2
Flags: W
HStem: 324 116<119.5 130.5>
VStem: -37 91 71 108<374 387.5>
LayerCount: 2
Fore
SplineSet
0 -269 m 256
 -25 -269 -37 -248 -37 -223 c 256
 -37 -198 -32 -193 82 256 c 256
 85 268 92 281 98 278 c 256
 111 271 115 267 115 257 c 257
 0 -269 l 256
71 369 m 256
 71 406 103 440 136 440 c 256
 162 440 179 419 179 393 c 256
 179 355 147 324 114 324 c 256
 88 324 71 343 71 369 c 256
EndSplineSet
Validated: 1
PickledDataWithLists: "(dp1
S'com.fontlab.hintData'
p2
(dp3
S'vhints'
p4
(lp5
(dp6
S'position'
p7
I-37
sS'width'
p8
I91
sa(dp9
g7
I71
sg8
I108
sasS'hhints'
p10
(lp11
(dp12
g7
I324
sg8
I116
sass."
Substitution2: "c2scCapitalstoSmallCapitalslookup5 subtable" exclamdown.sc
Substitution2: "smcpLowercasetoSmallCapitalslookup4 subtable" exclamdown.sc
EndChar

StartChar: cent
Encoding: 96 162 96
GlifName: cent
Width: 358
VWidth: 0
GlyphClass: 2
Flags: W
HStem: -6 59 394 41
VStem: 18 78
LayerCount: 2
Fore
SplineSet
254 474 m 257
 261 474 286 473 285 466 c 257
 109 -45 l 257
 101 -45 77 -43 78 -36 c 257
 254 474 l 257
EndSplineSet
Refer: 66 99 N 1 0 0 1 -6 0 2
Validated: 37
PickledDataWithLists: "(dp1
S'com.fontlab.hintData'
p2
(dp3
S'vhints'
p4
(lp5
(dp6
S'position'
p7
I18
sS'width'
p8
I78
sasS'hhints'
p9
(lp10
(dp11
g7
I-6
sg8
I59
sa(dp12
g7
I394
sg8
I41
sass."
EndChar

StartChar: sterling
Encoding: 97 163 97
GlifName: sterling
Width: 447
VWidth: 0
GlyphClass: 2
Flags: W
HStem: -8 69<284 292> 29 64<74.5 187> 280 39<67 106.31 50 108.78 180.145 294> 593 42<289 313>
LayerCount: 2
Fore
SplineSet
172 248 m 256
 157 173 117 118 87 88 c 257
 105 95 121 93 162 93 c 256
 212 93 266 61 302 61 c 256
 343 61 367 111 384 134 c 256
 388 134 393 127 393 117 c 256
 393 113 392 110 391 108 c 256
 371 71 325 -8 259 -8 c 256
 199 -8 135 29 89 29 c 256
 60 29 31 7 12 -9 c 257
 0 -9 -3 4 -2 10 c 256
 19 40 36 56 56 82 c 257
 78 128 90 181 101 237 c 256
 103.506 249.253 105.082 263.91 106.31 280 c 257
 50 280 l 257
 45 293 57 309 67 319 c 257
 108.78 319 l 257
 110.675 351.342 112.898 385.981 119 417 c 256
 143 543 239 635 339 635 c 256
 374 635 393 622 403 598 c 257
 403 573 388 539 364 539 c 256
 326 539 332 593 294 593 c 256
 231 593 207 518 194 450 c 256
 187.204 413.55 183.844 363.359 180.145 319 c 257
 311 319 l 258
 315 319 306 287 294 280 c 257
 176.495 280 l 257
 175.177 268.009 173.716 257.15 172 248 c 256
EndSplineSet
Validated: 8912929
PickledDataWithLists: "(dp1
S'com.fontlab.hintData'
p2
(dp3
S'hhints'
p4
(lp5
(dp6
S'position'
p7
I-8
sS'width'
p8
I69
sa(dp9
g7
I29
sg8
I64
sa(dp10
g7
I280
sg8
I39
sa(dp11
g7
I593
sg8
I42
sass."
EndChar

StartChar: currency
Encoding: 98 164 98
GlifName: currency
Width: 504
VWidth: 0
GlyphClass: 2
Flags: W
HStem: 120 32<212.5 241.5> 463 33<278.5 305.5>
VStem: 84 70<256.5 299> 363 69<314.5 358.5 314.5 376>
LayerCount: 2
Fore
SplineSet
237 152 m 256
 305 152 363 249 363 341 c 256
 363 411 330 463 281 463 c 256
 213 463 154 365 154 273 c 256
 154 203 188 152 237 152 c 256
392 455 m 257
 458 510 l 258
 459 511 461 511 462 511 c 256
 472 511 486 487 488 466 c 257
 421 410 l 257
 428 391 432 370 432 347 c 256
 432 282 400 228 376 199 c 257
 415 141 l 258
 415 140 416 140 416 139 c 256
 416 129 388 106 366 100 c 257
 329 155 l 257
 297 133 260 120 223 120 c 256
 183 120 149 135 125 160 c 257
 66 110 l 258
 65 109 63 109 62 109 c 256
 52 109 38 133 36 154 c 257
 96 205 l 257
 88 224 84 245 84 268 c 256
 84 330 114 388 146 423 c 257
 109 479 l 258
 109 480 108 480 108 481 c 256
 108 491 136 514 158 520 c 257
 195 465 l 257
 226 485 261 496 296 496 c 256
 336 496 368 481 392 455 c 257
EndSplineSet
Validated: 1
PickledDataWithLists: "(dp1
S'com.fontlab.hintData'
p2
(dp3
S'vhints'
p4
(lp5
(dp6
S'position'
p7
I84
sS'width'
p8
I70
sa(dp9
g7
I363
sg8
I69
sasS'hhints'
p10
(lp11
(dp12
g7
I120
sg8
I32
sa(dp13
g7
I463
sg8
I33
sass."
EndChar

StartChar: yen
Encoding: 99 165 99
GlifName: yen
Width: 592
VWidth: 0
GlyphClass: 2
Flags: W
HStem: -3 28 138 38<156.5 413 167 404> 216 38<171.5 428 182 419> 604 28
LayerCount: 2
Fore
SplineSet
173 216 m 258
 170 216 169 220 169 224 c 256
 169 231 175 248 182 254 c 257
 428 254 l 258
 430 254 431 251 431 247 c 256
 431 242 428 225 419 216 c 257
 173 216 l 258
158 138 m 258
 155 138 154 142 154 146 c 256
 154 153 160 170 167 176 c 257
 413 176 l 258
 415 176 416 173 416 169 c 256
 416 164 413 147 404 138 c 257
 158 138 l 258
233 111 m 258
 261 255 l 258
 262 262 263 272 260 282 c 258
 180 523 l 258
 168 558 157 574 135 589 c 256
 122 599 99 604 88 604 c 256
 83 604 87 627 93 632 c 257
 136 630 159 627 203 627 c 256
 247 627 282 630 318 632 c 257
 319 626 316 604 311 604 c 256
 299 604 257 599 252 574 c 256
 250 566 253 557 257 545 c 258
 333 316 l 257
 393 400 483 536 499 565 c 256
 501 568 504 573 505 579 c 256
 506 585 495 603 445 603 c 257
 442 606 446 627 449 631 c 257
 481 629 507 626 539 626 c 256
 585 626 602 629 638 631 c 257
 638 628 633 603 630 603 c 256
 623 603 573 603 545 565 c 258
 349 287 l 258
 341 276 342 267 340 258 c 258
 310 111 l 258
 304 82 299 55 301 40 c 256
 302 29 348 25 359 25 c 257
 362 20 360 2 354 -3 c 257
 318 -1 285 2 251 2 c 256
 217 2 182 -1 145 -3 c 257
 141 2 146 20 151 25 c 257
 162 25 210 29 215 40 c 256
 223 55 227 82 233 111 c 258
EndSplineSet
Validated: 37
PickledDataWithLists: "(dp1
S'com.fontlab.hintData'
p2
(dp3
S'hhints'
p4
(lp5
(dp6
S'position'
p7
I-3
sS'width'
p8
I28
sa(dp9
g7
I138
sg8
I38
sa(dp10
g7
I216
sg8
I38
sa(dp11
g7
I604
sg8
I28
sass."
EndChar

StartChar: brokenbar
Encoding: 100 166 100
GlifName: brokenbar
Width: 211
VWidth: 0
GlyphClass: 2
Flags: W
VStem: 2 227
LayerCount: 2
Fore
SplineSet
170 754 m 257
 180 764 196 770 214 770 c 256
 221 770 230 767 229 763 c 258
 160 400 l 257
 153 392 134 383 115 383 c 256
 109 383 99 386 100 391 c 258
 170 754 l 257
72 248 m 257
 82 258 98 264 116 264 c 256
 123 264 132 261 131 257 c 258
 62 -106 l 257
 55 -114 35 -123 16 -123 c 256
 10 -123 1 -120 2 -115 c 258
 72 248 l 257
EndSplineSet
Validated: 1
PickledDataWithLists: "(dp1
S'com.fontlab.hintData'
p2
(dp3
S'vhints'
p4
(lp5
(dp6
S'position'
p7
I2
sS'width'
p8
I227
sass."
EndChar

StartChar: section
Encoding: 101 167 101
GlifName: section
Width: 395
VWidth: 0
GlyphClass: 2
Flags: W
HStem: -78 50<47.5 131.865> 603 50<271.164 356.5>
VStem: 49 59 149 52 296 59
LayerCount: 2
Fore
SplineSet
155 524 m 257
 128.457 488.609 108.391 459.992 108.391 402.657 c 256
 108.391 336.691 142.338 282.27 177 240 c 256
 213 196 265 140 253 68 c 256
 252 62 250 55 249 51 c 257
 275.543 86.3912 295.609 115.008 295.609 172.343 c 256
 295.609 238.309 261.662 292.73 227 335 c 256
 194.985 374.13 148.734 422.75 148.734 483.674 c 256
 148.734 498.202 151.417 511.46 155 524 c 257
287 603 m 256
 255.329 603 201.019 584.721 201.019 538.321 c 256
 201.019 491.806 250.586 422.822 283 383 c 256
 316.27 342.052 354.635 285.093 354.635 215.848 c 256
 354.635 203.923 353.497 191.634 351 179 c 256
 338 112 277 35 198 -25 c 256
 151 -61 112 -78 54 -78 c 256
 41 -78 29 -76 17 -70 c 257
 9.21754 -34.9789 33.8791 -8 57 -8 c 256
 86.2924 -8 85.6465 -28 116 -28 c 256
 147.731 -28 202.981 -9.8022 202.981 36.6793 c 256
 202.981 83.1943 153.414 152.178 121 192 c 256
 87.7295 232.948 49.3647 289.907 49.3647 359.152 c 256
 49.3647 371.077 50.5025 383.366 53 396 c 256
 66 463 128 541 206 600 c 256
 244 629 292 653 350 653 c 256
 363 653 375 651 387 645 c 257
 388 638 388 625 387 619 c 256
 383.712 599.272 362 583 347 583 c 256
 317.575 583 317.948 603 287 603 c 256
EndSplineSet
Validated: 524321
PickledDataWithLists: "(dp1
S'com.fontlab.hintData'
p2
(dp3
S'vhints'
p4
(lp5
(dp6
S'position'
p7
I49
sS'width'
p8
I59
sa(dp9
g7
I149
sg8
I52
sa(dp10
g7
I296
sg8
I59
sasS'hhints'
p11
(lp12
(dp13
g7
I-78
sg8
I50
sa(dp14
g7
I603
sg8
I50
sass."
EndChar

StartChar: copyright
Encoding: 103 169 103
GlifName: copyright
Width: 603
VWidth: 0
GlyphClass: 2
Flags: W
HStem: 69 31<215 338.5 215 341.5> 195 32<293.5 307.5> 449 34<319.5 356 298 380> 584 31<293.5 417>
VStem: 57 30<237.5 369 237.5 372.5> 179 55<285 350.5> 423 22<400.5 402.5> 546 29<314.5 446>
LayerCount: 2
Fore
SplineSet
342 483 m 256
 370 483 413 477 442 464 c 257
 443 462 444 459 444 456 c 256
 445 442 445 415 445 406 c 256
 445 395 432 394 429 394 c 256
 427 394 424 395 423 396 c 257
 423 409 413 449 347 449 c 256
 292 449 234 390 234 315 c 256
 234 255 275 227 312 227 c 256
 388 227 395 267 403 279 c 257
 403 279 405 280 407 280 c 256
 413 280 421 276 421 276 c 257
 420 273 397 217 390 214 c 256
 358 201 327 195 288 195 c 256
 223 195 179 242 179 307 c 256
 179 394 254 483 342 483 c 256
369 615 m 256
 491 615 575 522 575 398 c 256
 575 225 421 69 262 69 c 256
 140 69 57 162 57 286 c 256
 57 459 210 615 369 615 c 256
363 584 m 256
 224 584 87 446 87 292 c 256
 87 183 161 100 269 100 c 256
 408 100 546 238 546 391 c 256
 546 501 471 584 363 584 c 256
EndSplineSet
Validated: 1
PickledDataWithLists: "(dp1
S'com.fontlab.hintData'
p2
(dp3
S'vhints'
p4
(lp5
(dp6
S'position'
p7
I57
sS'width'
p8
I30
sa(dp9
g7
I179
sg8
I55
sa(dp10
g7
I423
sg8
I22
sa(dp11
g7
I546
sg8
I29
sasS'hhints'
p12
(lp13
(dp14
g7
I69
sg8
I31
sa(dp15
g7
I195
sg8
I32
sa(dp16
g7
I449
sg8
I34
sa(dp17
g7
I584
sg8
I31
sass."
EndChar

StartChar: ordfeminine
Encoding: 104 170 104
GlifName: ordfeminine
Width: 380
VWidth: 0
GlyphClass: 2
Flags: W
HStem: 249 41 529 28<232.5 249>
VStem: 59 57<337.5 392.5> 231 58<275.5 306.5>
LayerCount: 2
Fore
SplineSet
257 249 m 256
 241 249 231 265 231 286 c 256
 231 292 233 308 236 323 c 256
 238 336 240 339 241 344 c 257
 225 319 171 250 127 250 c 256
 85 250 59 283 59 332 c 256
 59 453 186 557 279 557 c 256
 306 557 324 553 339 548 c 257
 292 327 l 258
 291 324 289 308 289 305 c 256
 289 299 289 288 296 288 c 256
 312 288 349 326 351 328 c 257
 353 328 358 319 358 315 c 257
 350 302 293 249 257 249 c 256
244 529 m 256
 185 529 116 439 116 359 c 256
 116 316 128 290 155 290 c 256
 194 290 248 378 263 445 c 258
 279 519 l 257
 272 526 254 529 244 529 c 256
EndSplineSet
Validated: 1
PickledDataWithLists: "(dp1
S'com.fontlab.hintData'
p2
(dp3
S'vhints'
p4
(lp5
(dp6
S'position'
p7
I59
sS'width'
p8
I57
sa(dp9
g7
I231
sg8
I58
sasS'hhints'
p10
(lp11
(dp12
g7
I249
sg8
I41
sa(dp13
g7
I529
sg8
I28
sass."
EndChar

StartChar: guillemotleft
Encoding: 105 171 105
GlifName: guillemotleft
Width: 484
VWidth: 0
GlyphClass: 2
Flags: W
LayerCount: 2
Fore
SplineSet
400 91 m 257
 395 82 385 76 379 73 c 257
 349 112 277 182 217 228 c 256
 211 232 207 236 207 242 c 256
 207 253 215 262 222 266 c 256
 333 329 375 368 446 423 c 257
 450 422 462 417 464 408 c 257
 459 396 296 249 296 249 c 257
 296 249 400 99 400 91 c 257
220 91 m 257
 215 82 205 76 199 73 c 257
 169 112 97 182 37 228 c 256
 31 232 27 236 27 242 c 256
 27 253 35 262 42 266 c 256
 153 329 195 368 266 423 c 257
 270 422 282 417 284 408 c 257
 279 396 116 249 116 249 c 257
 116 249 220 99 220 91 c 257
EndSplineSet
Validated: 1
EndChar

StartChar: logicalnot
Encoding: 106 172 106
GlifName: logicalnot
Width: 540
VWidth: 0
GlyphClass: 2
Flags: W
HStem: 314 43<70 434 52 493>
LayerCount: 2
Fore
SplineSet
70 357 m 258
 493 357 l 257
 446 115 l 257
 443 112 425 103 411 103 c 256
 405 103 396 105 397 111 c 258
 434 314 l 257
 52 314 l 257
 52 314 49 322 49 328 c 256
 49 345 61 357 70 357 c 258
EndSplineSet
Validated: 1
PickledDataWithLists: "(dp1
S'com.fontlab.hintData'
p2
(dp3
S'hhints'
p4
(lp5
(dp6
S'position'
p7
I314
sS'width'
p8
I43
sass."
EndChar

StartChar: registered
Encoding: 107 174 107
GlifName: registered
Width: 603
VWidth: 0
GlyphClass: 2
Flags: W
HStem: 133 32<220 344 220 345> 272 13<291 291> 407 21<295.5 347.5> 529 25<340.5 354.5> 541 12<240 240> 648 32<314 438>
VStem: 382 46<475.5 505>
LayerCount: 2
Fore
SplineSet
344 529 m 256
 315 529 311 525 310 519 c 258
 296 444 l 258
 296 442 294 441 294 440 c 256
 294 429 317 428 332 428 c 256
 363 428 382 460 382 491 c 256
 382 519 365 529 344 529 c 256
354 554 m 256
 392 554 428 534 428 493 c 256
 428 455 404 431 370 414 c 256
 369 413 369 412 369 411 c 258
 369 410 l 257
 371 398 386 362 401 333 c 256
 415 305 425 286 448 286 c 257
 448 282 447 277 446 275 c 257
 442 273 435 272 428 272 c 256
 369 272 357 294 317 398 c 256
 314 405 308 407 300 407 c 256
 291 407 288 405 287 399 c 258
 270 310 l 257
 270 299 l 258
 270 296 271 292 273 291 c 256
 279 288 288 285 292 285 c 256
 293 285 293 283 293 282 c 256
 293 278 292 276 291 272 c 257
 272 273 260 274 241 274 c 256
 220 274 207 273 186 272 c 257
 186 275 185 277 185 280 c 256
 185 282 187 283 188 285 c 257
 225 290 217 295 225 330 c 257
 258 499 l 258
 260 510 262 517 262 528 c 256
 262 537 246 541 240 541 c 256
 239 541 238 542 238 543 c 256
 238 547 240 549 241 553 c 257
 258 552 267 550 284 550 c 256
 311 550 327 554 354 554 c 256
381 680 m 256
 521 680 612 558 583 407 c 256
 554 256 415 133 275 133 c 256
 135 133 45 256 74 407 c 256
 103 558 241 680 381 680 c 256
376 648 m 256
 252 648 131 540 105 407 c 256
 79 274 158 165 282 165 c 256
 406 165 528 274 554 407 c 256
 580 540 500 648 376 648 c 256
EndSplineSet
Validated: 8388641
PickledDataWithLists: "(dp1
S'com.fontlab.hintData'
p2
(dp3
S'vhints'
p4
(lp5
(dp6
S'position'
p7
I382
sS'width'
p8
I46
sasS'hhints'
p9
(lp10
(dp11
g7
I133
sg8
I32
sa(dp12
g7
I272
sg8
I13
sa(dp13
g7
I407
sg8
I21
sa(dp14
g7
I529
sg8
I25
sa(dp15
g7
I541
sg8
I12
sa(dp16
g7
I648
sg8
I32
sass."
EndChar

StartChar: degree
Encoding: 109 176 109
GlifName: degree
Width: 266
VWidth: 0
GlyphClass: 2
Flags: W
HStem: 437 37<158 189.5 158 192.5> 597 37<177.5 209>
VStem: 90 36<510 544.5 510 549.5> 241 36<528.5 562>
LayerCount: 2
Fore
SplineSet
126 524 m 256
 126 496 144 474 172 474 c 256
 207 474 241 509 241 548 c 256
 241 576 223 597 195 597 c 256
 160 597 126 565 126 524 c 256
90 517 m 256
 90 582 149 634 202 634 c 256
 246 634 277 600 277 555 c 256
 277 493 220 437 165 437 c 256
 121 437 90 472 90 517 c 256
EndSplineSet
Validated: 1
PickledDataWithLists: "(dp1
S'com.fontlab.hintData'
p2
(dp3
S'vhints'
p4
(lp5
(dp6
S'position'
p7
I90
sS'width'
p8
I36
sa(dp9
g7
I241
sg8
I36
sasS'hhints'
p10
(lp11
(dp12
g7
I437
sg8
I37
sa(dp13
g7
I597
sg8
I37
sass."
EndChar

StartChar: plusminus
Encoding: 110 177 110
GlifName: plusminus
Width: 489
VWidth: 0
GlyphClass: 2
Flags: W
HStem: 21 43<2.5 403 12 394> 306 43<57.5 239 68 231 68 279 287 450>
LayerCount: 2
Fore
SplineSet
403 64 m 258
 405 64 406 61 406 56 c 256
 406 43 405 33 394 21 c 257
 4 21 l 258
 1 21 -1 24 -1 29 c 256
 -1 42 2 51 12 64 c 257
 403 64 l 258
59 306 m 258
 56 306 55 309 55 314 c 256
 55 327 58 336 68 349 c 257
 239 349 l 257
 273 524 l 258
 276 537 310 540 314 540 c 256
 322 540 324 536 323 532 c 258
 287 349 l 257
 458 349 l 258
 460 349 462 346 462 341 c 256
 462 328 461 318 450 306 c 257
 279 306 l 257
 245 128 l 258
 243 118 225 112 209 112 c 256
 199 112 196 116 196 120 c 258
 231 306 l 257
 59 306 l 258
EndSplineSet
Validated: 1
PickledDataWithLists: "(dp1
S'com.fontlab.hintData'
p2
(dp3
S'hhints'
p4
(lp5
(dp6
S'position'
p7
I21
sS'width'
p8
I43
sa(dp9
g7
I306
sg8
I43
sass."
EndChar

StartChar: uni00B2
Encoding: 111 178 111
GlifName: uni00B_2
Width: 345
VWidth: 0
GlyphClass: 2
Flags: W
HStem: 255 54<117 235 235 250.5 117 270> 602 45<205.5 216>
VStem: 259 78<536.5 562>
LayerCount: 2
Fore
SplineSet
337 564 m 256
 337 509 298 467 255 423 c 256
 117 309 l 257
 235 309 l 258
 266 309 283 334 295 360 c 256
 296 363 300 364 304 364 c 256
 306 364 317 357 318 356 c 257
 302 326 275 266 270 255 c 257
 270 255 54 255 50 255 c 257
 49 256 46 267 46 271 c 257
 80 301 167 384 203 425 c 256
 244 472 259 510 259 545 c 256
 259 579 231 602 201 602 c 256
 156 602 131 564 122 552 c 257
 118 552 112 567 113 569 c 256
 120 584 171 647 240 647 c 256
 285 647 337 621 337 564 c 256
EndSplineSet
Validated: 1
PickledDataWithLists: "(dp1
S'com.fontlab.hintData'
p2
(dp3
S'vhints'
p4
(lp5
(dp6
S'position'
p7
I259
sS'width'
p8
I78
sasS'hhints'
p9
(lp10
(dp11
g7
I255
sg8
I54
sa(dp12
g7
I602
sg8
I45
sass."
EndChar

StartChar: uni00B3
Encoding: 112 179 112
GlifName: uni00B_3
Width: 316
VWidth: 0
GlyphClass: 2
Flags: W
HStem: 247 31<147 152.5> 448 21 608 40<206.5 213>
VStem: 231 71<351 407> 241 55<560.5 572>
LayerCount: 2
Fore
SplineSet
229 648 m 256
 258 648 296 627 296 581 c 256
 296 540 252 503 220 485 c 257
 264 482 302 439 302 402 c 256
 302 296 180 247 125 247 c 256
 95 247 65 252 51 262 c 257
 49 265 45 273 45 280 c 256
 45 299 63 322 77 322 c 256
 97 322 102 305 111 294 c 256
 122 281 139 278 155 278 c 256
 190 278 231 316 231 386 c 256
 231 428 206 452 168 452 c 256
 156 452 143 450 136 448 c 257
 134 451 132 452 132 455 c 256
 132 457 132 467 133 469 c 257
 183 478 241 513 241 560 c 256
 241 584 226 608 200 608 c 256
 163 608 140 571 134 567 c 257
 130 567 125 578 126 584 c 257
 153 622 184 648 229 648 c 256
EndSplineSet
Validated: 8388609
PickledDataWithLists: "(dp1
S'com.fontlab.hintData'
p2
(dp3
S'vhints'
p4
(lp5
(dp6
S'position'
p7
I231
sS'width'
p8
I71
sa(dp9
g7
I241
sg8
I55
sasS'hhints'
p10
(lp11
(dp12
g7
I247
sg8
I31
sa(dp13
g7
I448
sg8
I21
sa(dp14
g7
I608
sg8
I40
sass."
EndChar

StartChar: paragraph
Encoding: 115 182 115
GlifName: paragraph
Width: 483
VWidth: 0
GlyphClass: 2
Flags: W
HStem: -90 43<210 214> 622 37<256.5 370> 633 24
VStem: 64 215<405 477.5 405 512>
LayerCount: 2
Fore
SplineSet
299 659 m 256
 354 659 394 657 430 657 c 256
 466 657 485 660 524 662 c 257
 528 657 523 638 518 633 c 257
 507 633 468 628 463 617 c 256
 455 601 449 573 444 543 c 256
 412 357 405 312 381 186 c 256
 349 22 254 -90 174 -90 c 256
 145 -90 127 -78 120 -65 c 257
 120 -60 120 -54 121 -49 c 256
 124 -28 133 -9 150 -9 c 256
 167 -9 177 -20 188 -32 c 256
 195 -39 203 -47 217 -47 c 256
 256 -47 276 23 307 182 c 258
 375 537 l 258
 381 567 387 600 385 612 c 256
 383 621 374 622 366 622 c 256
 322 622 279 516 279 439 c 256
 279 371 296 341 314 326 c 256
 316 325 324 318 324 316 c 256
 324 290 261 273 230 273 c 256
 108 273 64 369 64 440 c 256
 64 584 214 659 299 659 c 256
EndSplineSet
Validated: 8388641
PickledDataWithLists: "(dp1
S'com.fontlab.hintData'
p2
(dp3
S'vhints'
p4
(lp5
(dp6
S'position'
p7
I64
sS'width'
p8
I215
sasS'hhints'
p9
(lp10
(dp11
g7
I-90
sg8
I43
sa(dp12
g7
I622
sg8
I37
sa(dp13
g7
I633
sg8
I24
sass."
EndChar

StartChar: periodcentered
Encoding: 116 183 116
GlifName: periodcentered
Width: 222
VWidth: 0
GlyphClass: 2
Flags: W
HStem: 205 117<104.5 114.5>
VStem: 54 110<257.5 270.5>
LayerCount: 2
Fore
SplineSet
54 252 m 256
 54 289 88 322 121 322 c 256
 147 322 164 302 164 276 c 256
 164 239 131 205 98 205 c 256
 72 205 54 225 54 252 c 256
EndSplineSet
Validated: 1
PickledDataWithLists: "(dp1
S'com.fontlab.hintData'
p2
(dp3
S'vhints'
p4
(lp5
(dp6
S'position'
p7
I54
sS'width'
p8
I110
sasS'hhints'
p9
(lp10
(dp11
g7
I205
sg8
I117
sass."
EndChar

StartChar: uni00B9
Encoding: 118 185 118
GlifName: uni00B_9
Width: 270
VWidth: 0
GlyphClass: 2
Flags: W
HStem: 253 22<229 229>
VStem: 55 198
LayerCount: 2
Fore
SplineSet
106 556 m 257
 103 559 101 566 101 570 c 256
 101 571 102 575 104 576 c 256
 161 603 245 648 247 648 c 258
 248 648 l 258
 252 648 253 639 253 636 c 258
 253 636 243 616 236 579 c 258
 189 342 l 258
 185 321 182 305 183 288 c 256
 184 281 226 275 230 275 c 256
 232 275 233 266 232 262 c 256
 231 259 230 254 229 253 c 257
 206 254 153 256 130 256 c 256
 107 256 78 254 55 253 c 257
 53 256 55 275 58 275 c 256
 65 275 107 281 110 288 c 256
 116 300 118 311 120 323 c 258
 157 512 l 258
 164 549 168 570 159 570 c 256
 144 570 114 559 106 556 c 257
EndSplineSet
Validated: 33
PickledDataWithLists: "(dp1
S'com.fontlab.hintData'
p2
(dp3
S'vhints'
p4
(lp5
(dp6
S'position'
p7
I55
sS'width'
p8
I198
sasS'hhints'
p9
(lp10
(dp11
g7
I253
sg8
I22
sass."
EndChar

StartChar: ordmasculine
Encoding: 119 186 119
GlifName: ordmasculine
Width: 339
VWidth: 0
GlyphClass: 2
Flags: W
HStem: 247 22<153.5 196> 532 22<194.5 240.5>
VStem: 63 60<333 396 333 396> 267 60<406 469>
LayerCount: 2
Fore
SplineSet
227 532 m 256
 162 532 123 431 123 361 c 256
 123 305 140 269 167 269 c 256
 231 269 267 371 267 441 c 256
 267 497 254 532 227 532 c 256
237 554 m 256
 299 554 327 511 327 451 c 256
 327 353 240 247 152 247 c 256
 90 247 63 287 63 347 c 256
 63 445 149 554 237 554 c 256
EndSplineSet
Validated: 1
PickledDataWithLists: "(dp1
S'com.fontlab.hintData'
p2
(dp3
S'vhints'
p4
(lp5
(dp6
S'position'
p7
I63
sS'width'
p8
I60
sa(dp9
g7
I267
sg8
I60
sasS'hhints'
p10
(lp11
(dp12
g7
I247
sg8
I22
sa(dp13
g7
I532
sg8
I22
sass."
EndChar

StartChar: guillemotright
Encoding: 120 187 120
GlifName: guillemotright
Width: 485
VWidth: 0
GlyphClass: 2
Flags: W
LayerCount: 2
Fore
SplineSet
257 405 m 257
 262 414 272 420 278 423 c 257
 308 384 380 314 440 268 c 256
 446 264 450 260 450 254 c 256
 450 243 442 234 435 230 c 256
 324 167 282 128 211 73 c 257
 207 74 195 79 193 88 c 257
 198 100 361 247 361 247 c 257
 361 247 257 397 257 405 c 257
77 405 m 257
 82 414 92 420 98 423 c 257
 128 384 200 314 260 268 c 256
 266 264 270 260 270 254 c 256
 270 243 262 234 255 230 c 256
 144 167 102 128 31 73 c 257
 27 74 15 79 13 88 c 257
 18 100 181 247 181 247 c 257
 181 247 77 397 77 405 c 257
EndSplineSet
Validated: 1
EndChar

StartChar: onequarter
Encoding: 121 188 121
GlifName: onequarter
Width: 637
VWidth: 0
GlyphClass: 2
Flags: W
HStem: -2 21<473 491> 106 46<360 470 544 576> 253 22<213 213> 622 20<558 558>
LayerCount: 2
Fore
SplineSet
580 405 m 256
 586 405 592 395 591 390 c 258
 544 152 l 257
 579 152 l 258
 583 152 583 134 581 121 c 256
 580 115 577 108 576 106 c 257
 536 106 l 257
 516 1 l 257
 516 1 502 -2 480 -2 c 256
 466 -2 449 -1 450 3 c 258
 470 106 l 257
 299 106 l 257
 295 108 294 116 295 120 c 257
 558 398 l 258
 563 403 576 405 580 405 c 256
513 314 m 257
 360 152 l 257
 479 152 l 257
 513 314 l 257
90 556 m 257
 87 559 85 566 85 570 c 256
 85 571 86 575 88 576 c 256
 145 603 229 648 231 648 c 258
 232 648 l 258
 236 648 237 639 237 636 c 258
 237 636 227 616 220 579 c 258
 173 342 l 258
 169 321 166 305 167 288 c 256
 168 281 210 275 214 275 c 256
 216 275 217 266 216 262 c 256
 215 259 214 254 213 253 c 257
 190 254 137 256 114 256 c 256
 91 256 62 254 39 253 c 257
 37 256 39 275 42 275 c 256
 49 275 91 281 94 288 c 256
 100 300 102 311 104 323 c 258
 141 512 l 258
 148 549 152 570 143 570 c 256
 128 570 98 559 90 556 c 257
580 626 m 258
 134 -6 l 257
 134 -6 109 -7 109 4 c 256
 109 6 110 8 111 10 c 258
 558 642 l 257
 558 642 581 642 581 631 c 256
 581 629 581 627 580 626 c 258
EndSplineSet
Validated: 33
PickledDataWithLists: "(dp1
S'com.fontlab.hintData'
p2
(dp3
S'hhints'
p4
(lp5
(dp6
S'position'
p7
I-2
sS'width'
p8
I21
sa(dp9
g7
I106
sg8
I46
sa(dp10
g7
I253
sg8
I22
sa(dp11
g7
I622
sg8
I20
sass."
EndChar

StartChar: onehalf
Encoding: 122 189 122
GlifName: onehalf
Width: 689
VWidth: 0
GlyphClass: 2
Flags: W
HStem: -6 21<135 135> 2 54<429 548 548 563.5 429 583> 253 22<214 214> 349 45<518.5 529> 622 20<559 559>
VStem: 572 78<283.5 309>
LayerCount: 2
Fore
SplineSet
650 311 m 256
 650 256 611 214 568 170 c 256
 429 56 l 257
 548 56 l 258
 579 56 596 81 608 107 c 256
 609 110 613 111 617 111 c 256
 619 111 630 104 631 103 c 257
 615 73 588 13 583 2 c 257
 583 2 367 2 363 2 c 257
 362 3 359 14 359 18 c 257
 393 48 480 131 516 172 c 256
 557 219 572 257 572 292 c 256
 572 326 544 349 514 349 c 256
 469 349 443 311 434 299 c 257
 430 299 425 314 426 316 c 256
 433 331 484 394 553 394 c 256
 598 394 650 368 650 311 c 256
91 556 m 257
 88 559 86 566 86 570 c 256
 86 571 87 575 89 576 c 256
 146 603 230 648 232 648 c 258
 233 648 l 258
 237 648 238 639 238 636 c 258
 238 636 228 616 221 579 c 258
 174 342 l 258
 170 321 167 305 168 288 c 256
 169 281 211 275 215 275 c 256
 217 275 218 266 217 262 c 256
 216 259 215 254 214 253 c 257
 191 254 138 256 115 256 c 256
 92 256 63 254 40 253 c 257
 38 256 40 275 43 275 c 256
 50 275 92 281 95 288 c 256
 101 300 103 311 105 323 c 258
 142 512 l 258
 149 549 153 570 144 570 c 256
 129 570 99 559 91 556 c 257
581 626 m 258
 135 -6 l 257
 135 -6 110 -7 110 4 c 256
 110 6 111 8 112 10 c 258
 559 642 l 257
 559 642 582 642 582 631 c 256
 582 629 582 627 581 626 c 258
EndSplineSet
Validated: 8388641
PickledDataWithLists: "(dp1
S'com.fontlab.hintData'
p2
(dp3
S'vhints'
p4
(lp5
(dp6
S'position'
p7
I572
sS'width'
p8
I78
sasS'hhints'
p9
(lp10
(dp11
g7
I-6
sg8
I21
sa(dp12
g7
I2
sg8
I54
sa(dp13
g7
I253
sg8
I22
sa(dp14
g7
I349
sg8
I45
sa(dp15
g7
I622
sg8
I20
sass."
EndChar

StartChar: threequarters
Encoding: 123 190 123
GlifName: threequarters
Width: 651
VWidth: 0
GlyphClass: 2
Flags: W
HStem: -2 21<488 506> 106 46<375 485 559 591> 247 31<134 139.5> 448 21 608 40<193.5 200> 622 20<558 558>
VStem: 218 71<351 407> 228 55<560.5 572>
LayerCount: 2
Fore
SplineSet
595 405 m 256
 601 405 607 395 606 390 c 258
 559 152 l 257
 594 152 l 258
 598 152 598 134 596 121 c 256
 595 115 592 108 591 106 c 257
 551 106 l 257
 531 1 l 257
 531 1 517 -2 495 -2 c 256
 481 -2 464 -1 465 3 c 258
 485 106 l 257
 314 106 l 257
 310 108 309 116 310 120 c 257
 573 398 l 258
 578 403 591 405 595 405 c 256
528 314 m 257
 375 152 l 257
 494 152 l 257
 528 314 l 257
216 648 m 256
 245 648 283 627 283 581 c 256
 283 540 239 503 207 485 c 257
 251 482 289 439 289 402 c 256
 289 296 167 247 112 247 c 256
 82 247 52 252 38 262 c 257
 36 265 32 273 32 280 c 256
 32 299 50 322 64 322 c 256
 84 322 89 305 98 294 c 256
 109 281 126 278 142 278 c 256
 177 278 218 316 218 386 c 256
 218 428 193 452 155 452 c 256
 143 452 130 450 123 448 c 257
 121 451 119 452 119 455 c 256
 119 457 119 467 120 469 c 257
 170 478 228 513 228 560 c 256
 228 584 213 608 187 608 c 256
 150 608 127 571 121 567 c 257
 117 567 112 578 113 584 c 257
 140 622 171 648 216 648 c 256
580 626 m 258
 134 -6 l 257
 134 -6 109 -7 109 4 c 256
 109 6 110 8 111 10 c 258
 558 642 l 257
 558 642 581 642 581 631 c 256
 581 629 581 627 580 626 c 258
EndSplineSet
Validated: 8388609
PickledDataWithLists: "(dp1
S'com.fontlab.hintData'
p2
(dp3
S'vhints'
p4
(lp5
(dp6
S'position'
p7
I218
sS'width'
p8
I71
sa(dp9
g7
I228
sg8
I55
sasS'hhints'
p10
(lp11
(dp12
g7
I-2
sg8
I21
sa(dp13
g7
I106
sg8
I46
sa(dp14
g7
I247
sg8
I31
sa(dp15
g7
I448
sg8
I21
sa(dp16
g7
I608
sg8
I40
sa(dp17
g7
I622
sg8
I20
sass."
EndChar

StartChar: questiondown
Encoding: 124 191 124
GlifName: questiondown
Width: 310
VWidth: 0
GlyphClass: 2
Flags: W
HStem: -209 49<62.5 92 55 119> 320 116<196.5 206.5>
VStem: -33 51<-111 -81 -119.5 -59> 145 110<371 384.5> 159 70<147.5 167 118 175.5>
LayerCount: 2
Fore
SplineSet
255 390 m 256
 255 352 223 320 190 320 c 256
 164 320 145 340 145 366 c 256
 145 403 180 436 213 436 c 256
 239 436 255 416 255 390 c 256
120 225 m 257
 120 229 125 238 130 241 c 257
 154 241 229 195 229 139 c 256
 229 97 206 74 180 56 c 256
 133 24 109 8 64 -24 c 256
 44 -38 18 -62 18 -100 c 256
 18 -139 40 -160 70 -160 c 256
 114 -160 114 -114 152 -114 c 256
 181 -114 186 -148 186 -166 c 257
 181 -181 138 -209 100 -209 c 256
 25 -209 -33 -142 -33 -80 c 256
 -33 -38 -21 -6 11 24 c 256
 35 46 74 65 126 101 c 256
 151 118 159 134 159 161 c 256
 159 190 131 217 120 225 c 257
EndSplineSet
Validated: 8388609
PickledDataWithLists: "(dp1
S'com.fontlab.hintData'
p2
(dp3
S'vhints'
p4
(lp5
(dp6
S'position'
p7
I-33
sS'width'
p8
I51
sa(dp9
g7
I145
sg8
I110
sa(dp10
g7
I159
sg8
I70
sasS'hhints'
p11
(lp12
(dp13
g7
I-209
sg8
I49
sa(dp14
g7
I320
sg8
I116
sass."
Substitution2: "c2scCapitalstoSmallCapitalslookup5 subtable" questiondown.sc
Substitution2: "smcpLowercasetoSmallCapitalslookup4 subtable" questiondown.sc
EndChar

StartChar: AE
Encoding: 131 198 131
GlifName: A_E_
Width: 785
VWidth: 0
GlyphClass: 2
Flags: W
HStem: -3 27 307 34<267 388 243 391> 630 34 630 27
VStem: 649 29 746 18
LayerCount: 2
Fore
SplineSet
388 307 m 257
 243 307 l 257
 122 131 l 258
 87 81 77 61 77 50 c 256
 77 34 124 24 134 24 c 256
 135 24 134 2 131 -3 c 257
 94 -1 78 2 37 2 c 256
 -6 2 -16 -1 -59 -3 c 257
 -60 -2 -60 24 -56 24 c 256
 -45 24 -6 32 8 45 c 256
 37 71 62 102 87 139 c 258
 395 586 l 258
 397 590 400 595 400 601 c 256
 400 612 392 625 370 625 c 257
 366 628 367 650 370 656 c 257
 468 657 l 258
 555 657 663 664 764 664 c 257
 765 614 772 573 776 528 c 257
 773 525 765 523 758 523 c 256
 751 523 746 525 746 530 c 256
 735 610 699 630 650 630 c 258
 570 630 l 258
 559 630 509 629 505 619 c 256
 498 603 494 574 491 547 c 258
 470 347 l 258
 469 342 489 341 509 341 c 258
 558 341 l 258
 647 341 645 347 669 413 c 256
 671 418 677 420 684 420 c 256
 691 420 696 418 698 415 c 257
 678 226 l 257
 676 224 669 222 662 222 c 256
 655 222 650 225 649 230 c 256
 641 287 637 294 630 300 c 256
 620 307 567 308 532 308 c 256
 506 308 466 308 465 299 c 258
 446 109 l 258
 445 94 440 45 445 40 c 256
 456 30 471 30 510 30 c 258
 554 30 l 258
 605 30 643 40 673 61 c 256
 699 79 722 109 743 162 c 256
 745 166 750 168 757 168 c 256
 766 168 778 165 780 162 c 257
 756 108 721 40 710 -4 c 257
 609 -4 517 0 394 0 c 256
 345 0 270 -3 270 -3 c 257
 268 2 271 29 276 31 c 257
 287 31 338 37 349 50 c 256
 365 69 368 89 371 124 c 258
 388 307 l 257
391 341 m 257
 411 550 l 257
 267 341 l 257
 391 341 l 257
EndSplineSet
Validated: 8388641
PickledDataWithLists: "(dp1
S'com.fontlab.hintData'
p2
(dp3
S'vhints'
p4
(lp5
(dp6
S'position'
p7
I649
sS'width'
p8
I29
sa(dp9
g7
I746
sg8
I18
sasS'hhints'
p10
(lp11
(dp12
g7
I-3
sg8
I27
sa(dp13
g7
I307
sg8
I34
sa(dp14
g7
I630
sg8
I34
sa(dp15
g7
I630
sg8
I27
sass."
Substitution2: "c2scCapitalstoSmallCapitalslookup5 subtable" ae.sc
EndChar

StartChar: Eth
Encoding: 141 208 141
GlifName: E_th
Width: 684
VWidth: 0
GlyphClass: 2
Flags: W
HStem: -3 29 313 36<79 79.5 79 404> 631 26
LayerCount: 2
Fore
SplineSet
79 349 m 257
 107 349 396 349 409 349 c 256
 413 349 415 345 414 341 c 256
 413 336 409 320 404 313 c 257
 376 313 86 313 73 313 c 256
 69 313 69 320 70 324 c 256
 71 329 72 342 79 349 c 257
EndSplineSet
Refer: 35 68 N 1 0 0 1 0 0 2
Validated: 5
PickledDataWithLists: "(dp1
S'com.fontlab.hintData'
p2
(dp3
S'hhints'
p4
(lp5
(dp6
S'position'
p7
I-3
sS'width'
p8
I29
sa(dp9
g7
I313
sg8
I36
sa(dp10
g7
I631
sg8
I26
sass."
Substitution2: "c2scCapitalstoSmallCapitalslookup5 subtable" eth.sc
EndChar

StartChar: multiply
Encoding: 148 215 148
GlifName: multiply
Width: 411
VWidth: 0
GlyphClass: 2
Flags: W
HStem: 213 61<196.5 207>
VStem: 170 61<239.5 247>
LayerCount: 2
Fore
SplineSet
27 68 m 256
 21 68 14 92 14 108 c 257
 168 243 l 258
 169 244 170 245 170 246 c 256
 170 248 166 254 165 255 c 258
 68 388 l 257
 68 402 90 421 95 421 c 256
 97 421 97 419 99 417 c 258
 203 276 l 258
 204 275 206 274 207 274 c 258
 209 275 l 257
 367 416 l 258
 369 418 371 419 373 419 c 256
 380 419 386 396 386 378 c 257
 233 242 l 258
 232 241 231 241 231 240 c 256
 231 239 231 239 232 238 c 258
 332 102 l 257
 332 88 317 68 310 68 c 256
 306 68 304 69 303 71 c 258
 200 211 l 258
 199 212 198 213 197 213 c 256
 196 213 194 212 193 211 c 258
 32 71 l 258
 30 69 29 68 27 68 c 256
EndSplineSet
Validated: 1
PickledDataWithLists: "(dp1
S'com.fontlab.hintData'
p2
(dp3
S'vhints'
p4
(lp5
(dp6
S'position'
p7
I170
sS'width'
p8
I61
sasS'hhints'
p9
(lp10
(dp11
g7
I213
sg8
I61
sass."
Substitution2: "c2scCapitalstoSmallCapitalslookup5 subtable" multiply.sc
Substitution2: "smcpLowercasetoSmallCapitalslookup4 subtable" multiply.sc
EndChar

StartChar: Oslash
Encoding: 149 216 149
GlifName: O_slash
Width: 710
VWidth: 0
GlyphClass: 2
Flags: W
HStem: -11 29 635 30 647 20<612 612>
VStem: 61 94 578 94
LayerCount: 2
Fore
SplineSet
118 -13 m 257
 110 -10 91 4 96 10 c 258
 612 667 l 257
 620 665 640 651 635 645 c 258
 118 -13 l 257
EndSplineSet
Refer: 46 79 N 1 0 0 1 0 0 2
Validated: 8388613
PickledDataWithLists: "(dp1
S'com.fontlab.hintData'
p2
(dp3
S'vhints'
p4
(lp5
(dp6
S'position'
p7
I61
sS'width'
p8
I94
sa(dp9
g7
I578
sg8
I94
sasS'hhints'
p10
(lp11
(dp12
g7
I-11
sg8
I29
sa(dp13
g7
I635
sg8
I30
sa(dp14
g7
I647
sg8
I20
sass."
Substitution2: "c2scCapitalstoSmallCapitalslookup5 subtable" oslash.sc
EndChar

StartChar: Thorn
Encoding: 155 222 155
GlifName: T_horn
Width: 470
VWidth: 0
GlyphClass: 2
Flags: W
HStem: -3 29 134 26<250.5 282 240.5 322> 482 29<301.5 340.5> 633 29
VStem: 405 89<296 374>
LayerCount: 2
Fore
SplineSet
234 458 m 258
 168 116 l 258
 162 86 156 58 158 42 c 256
 159 31 208 26 219 26 c 257
 222 21 219 2 213 -3 c 257
 175 -1 142 2 106 2 c 256
 70 2 34 -1 -5 -3 c 257
 -9 2 -5 21 -0 26 c 257
 11 26 63 31 68 42 c 256
 76 58 81 86 87 116 c 258
 170 543 l 258
 176 573 181 601 179 617 c 256
 178 628 129 633 118 633 c 257
 115 638 118 657 124 662 c 257
 162 660 197 657 233 657 c 256
 269 657 304 660 343 662 c 257
 347 657 342 638 337 633 c 257
 326 633 275 628 270 617 c 256
 262 601 257 573 251 543 c 258
 242 500 l 257
 265 509 290 511 313 511 c 256
 419 511 494 451 494 360 c 256
 494 232 383 134 261 134 c 256
 240 134 221 140 216 144 c 256
 214 146 208 155 208 160 c 256
 208 162 210 163 212 164 c 257
 220 160 236 160 245 160 c 256
 319 160 405 234 405 346 c 256
 405 402 392 482 289 482 c 256
 278 482 238 480 234 458 c 258
EndSplineSet
Validated: 33
PickledDataWithLists: "(dp1
S'com.fontlab.hintData'
p2
(dp3
S'vhints'
p4
(lp5
(dp6
S'position'
p7
I405
sS'width'
p8
I89
sasS'hhints'
p9
(lp10
(dp11
g7
I-3
sg8
I29
sa(dp12
g7
I134
sg8
I26
sa(dp13
g7
I482
sg8
I29
sa(dp14
g7
I633
sg8
I29
sass."
Substitution2: "c2scCapitalstoSmallCapitalslookup5 subtable" thorn.sc
EndChar

StartChar: germandbls
Encoding: 156 223 156
GlifName: germandbls
Width: 500
VWidth: 0
GlyphClass: 2
Flags: W
HStem: -233 43<-35 -31> -4 30<304.5 347.5> 376 37 642 43<295 320.5>
VStem: 252 57<338.5 346.5> 383 63<85.5 109.5>
LayerCount: 2
Fore
SplineSet
128 413 m 257
 160 577 255 685 335 685 c 256
 386 685 452 651 452 572 c 256
 452 484 394 453 365 426 c 256
 338 401 309 376 309 352 c 256
 309 325 339 299 362 272 c 256
 402 226 446 189 446 122 c 256
 446 49 387 -4 308 -4 c 256
 248 -4 222 18 208 32 c 257
 206 38 201 50 202 58 c 256
 204 86 221 99 242 99 c 256
 271 99 280 26 329 26 c 256
 369 26 383 56 383 88 c 256
 383 131 334 186 308 216 c 256
 279 249 252 278 252 324 c 256
 252 369 276 380 331 435 c 256
 359 463 384 495 384 547 c 256
 384 608 341 642 300 642 c 256
 256 642 233 572 204 413 c 256
 177 267 160 169 136 43 c 256
 104 -121 9 -233 -71 -233 c 256
 -100 -233 -118 -221 -125 -208 c 257
 -125 -202 -125 -197 -124 -191 c 256
 -121 -171 -112 -152 -95 -152 c 256
 -78 -152 -68 -163 -57 -175 c 256
 -50 -182 -42 -190 -28 -190 c 256
 11 -190 31 -120 62 39 c 257
 128 413 l 257
EndSplineSet
Validated: 1
PickledDataWithLists: "(dp1
S'com.fontlab.hintData'
p2
(dp3
S'vhints'
p4
(lp5
(dp6
S'position'
p7
I252
sS'width'
p8
I57
sa(dp9
g7
I383
sg8
I63
sasS'hhints'
p10
(lp11
(dp12
g7
I-233
sg8
I43
sa(dp13
g7
I-4
sg8
I30
sa(dp14
g7
I376
sg8
I37
sa(dp15
g7
I642
sg8
I43
sass."
Substitution2: "smcpLowercasetoSmallCapitalslookup4 subtable" germandbls.sc
EndChar

StartChar: ae
Encoding: 163 230 163
GlifName: ae
Width: 559
VWidth: 0
GlyphClass: 2
Flags: W
HStem: -8 54<69 143> 199 31 394 41
VStem: 6 76<85 103> 67 74 232 65<126.5 201> 462 74<326 366.5>
LayerCount: 2
Fore
SplineSet
421 394 m 256
 358 394 315 302 306 230 c 257
 345 230 462 280 462 354 c 256
 462 379 441 394 421 394 c 256
217 108 m 258
 232 201 l 257
 188 192 156 182 134 170 c 256
 91 148 82 123 82 101 c 256
 82 69 101 46 127 46 c 256
 159 46 216 99 217 108 c 258
251 435 m 256
 292 435 319 401 323 366 c 257
 356 404 415 435 468 435 c 256
 536 435 536 384 536 370 c 256
 536 282 375 209 301 199 c 257
 300 193 297 171 297 158 c 256
 297 95 319 53 367 53 c 256
 409 53 465 118 469 122 c 257
 472 122 480 110 481 102 c 257
 445 51 379 -6 328 -6 c 256
 287 -6 238 22 224 70 c 257
 207 48 117 -8 90 -8 c 256
 48 -8 6 18 6 80 c 256
 6 126 41 164 65 180 c 256
 80 190 195 222 232 234 c 256
 239 236 238 244 241 257 c 258
 252 317 l 258
 254 325 254 334 254 338 c 256
 254 362 234 397 198 397 c 256
 168 397 154 376 141 339 c 256
 129 307 112 294 90 294 c 256
 69 294 67 314 67 323 c 256
 67 336 73 348 78 356 c 257
 107 381 186 435 251 435 c 256
EndSplineSet
Validated: 8388609
PickledDataWithLists: "(dp1
S'com.fontlab.hintData'
p2
(dp3
S'vhints'
p4
(lp5
(dp6
S'position'
p7
I6
sS'width'
p8
I76
sa(dp9
g7
I67
sg8
I74
sa(dp10
g7
I232
sg8
I65
sa(dp11
g7
I462
sg8
I74
sasS'hhints'
p12
(lp13
(dp14
g7
I-8
sg8
I54
sa(dp15
g7
I199
sg8
I31
sa(dp16
g7
I394
sg8
I41
sass."
Substitution2: "smcpLowercasetoSmallCapitalslookup4 subtable" ae.sc
EndChar

StartChar: eth
Encoding: 173 240 173
GlifName: eth
Width: 437
VWidth: 0
GlyphClass: 2
Flags: W
HStem: -5 32<150 207 150 209.5> 403 32<218.5 262.5> 672 16
VStem: 39 78<135 195> 313 75
LayerCount: 2
Fore
SplineSet
251 403 m 256
 186 403 117 292 117 158 c 256
 117 112 125 27 175 27 c 256
 239 27 305 135 305 273 c 256
 305 300 304 340 302 353 c 256
 298 380 274 403 251 403 c 256
259 435 m 256
 280 435 301 433 313 426 c 257
 314.083 469.3 297.002 529.006 262.075 579.43 c 257
 156 509 l 257
 150 514 142 533 147 541 c 258
 242.602 604.346 l 257
 214.847 635.809 178.947 661.013 135 672 c 257
 136 679 141 688 148 688 c 256
 199.583 679.349 242.749 657.867 277.596 627.533 c 257
 393 704 l 257
 399 698 406 678 403 673 c 258
 300.56 604.983 l 257
 359.075 540.325 388 447.395 388 353 c 256
 388 134 266 -5 153 -5 c 256
 64 -5 39 72 39 140 c 256
 39 250 132 435 259 435 c 256
EndSplineSet
Validated: 524321
PickledDataWithLists: "(dp1
S'com.fontlab.hintData'
p2
(dp3
S'vhints'
p4
(lp5
(dp6
S'position'
p7
I39
sS'width'
p8
I78
sa(dp9
g7
I313
sg8
I75
sasS'hhints'
p10
(lp11
(dp12
g7
I-5
sg8
I32
sa(dp13
g7
I403
sg8
I32
sa(dp14
g7
I672
sg8
I16
sass."
Substitution2: "smcpLowercasetoSmallCapitalslookup4 subtable" eth.sc
EndChar

StartChar: divide
Encoding: 180 247 180
GlifName: divide
Width: 507
VWidth: 0
GlyphClass: 2
Flags: W
HStem: 4 100<205 218.5> 224 47<35.5 464 43 455> 390 100<279 292.5>
VStem: 169 87<48.5 63> 243 88<434.5 449>
LayerCount: 2
Fore
SplineSet
37 224 m 258
 34 224 33 229 33 234 c 256
 33 245 38 263 43 271 c 257
 464 271 l 258
 466 271 467 268 467 263 c 256
 467 250 461 234 455 224 c 257
 37 224 l 258
294 490 m 256
 315 490 331 471 331 450 c 256
 331 419 308 390 277 390 c 256
 255 390 243 412 243 434 c 256
 243 464 264 490 294 490 c 256
220 104 m 256
 241 104 256 85 256 64 c 256
 256 33 234 4 203 4 c 256
 181 4 169 26 169 48 c 256
 169 78 190 104 220 104 c 256
EndSplineSet
Validated: 8388609
PickledDataWithLists: "(dp1
S'com.fontlab.hintData'
p2
(dp3
S'vhints'
p4
(lp5
(dp6
S'position'
p7
I169
sS'width'
p8
I87
sa(dp9
g7
I243
sg8
I88
sasS'hhints'
p10
(lp11
(dp12
g7
I4
sg8
I100
sa(dp13
g7
I224
sg8
I47
sa(dp14
g7
I390
sg8
I100
sass."
Substitution2: "c2scCapitalstoSmallCapitalslookup5 subtable" divide.sc
Substitution2: "smcpLowercasetoSmallCapitalslookup4 subtable" divide.sc
EndChar

StartChar: oslash
Encoding: 181 248 181
GlifName: oslash
Width: 414
VWidth: 0
GlyphClass: 2
Flags: W
HStem: -5 32 0 21<52 52> 403 32
VStem: 24 78 290 78
LayerCount: 2
Fore
SplineSet
52 0 m 257
 46 3 29 14 33 20 c 258
 341 419 l 257
 347 416 364 406 360 400 c 258
 52 0 l 257
EndSplineSet
Refer: 78 111 N 1 0 0 1 0 0 2
Validated: 8388613
PickledDataWithLists: "(dp1
S'com.fontlab.hintData'
p2
(dp3
S'vhints'
p4
(lp5
(dp6
S'position'
p7
I24
sS'width'
p8
I78
sa(dp9
g7
I290
sg8
I78
sasS'hhints'
p10
(lp11
(dp12
g7
I-5
sg8
I32
sa(dp13
g7
I0
sg8
I21
sa(dp14
g7
I403
sg8
I32
sass."
Substitution2: "smcpLowercasetoSmallCapitalslookup4 subtable" oslash.sc
EndChar

StartChar: thorn
Encoding: 187 254 187
GlifName: thorn
Width: 449
VWidth: 0
GlyphClass: 2
Flags: W
HStem: -235 29<4.29497e+09 4.29497e+09> -226 27 -5 35<162 217> 380 55<295.5 297> 632 21<92 100> 666 20
VStem: 153 81<607.5 670> 334 74<243.5 330.5>
LayerCount: 2
Fore
SplineSet
221 592 m 256
 218 573 174 353 173 346 c 257
 200 371 270 435 321 435 c 256
 385 435 408 384 408 314 c 256
 408 159 278 -5 156 -5 c 256
 139 -5 116 -2 110 8 c 257
 77 -145 l 258
 75 -154 74 -163 74 -173 c 256
 74 -178 78 -193 88 -196 c 256
 105 -200 132 -199 135 -199 c 256
 139 -200 137 -225 132 -227 c 257
 119 -227 108 -226 97 -226 c 256
 46 -226 7 -228 -51 -235 c 257
 -56 -234 -55 -209 -50 -206 c 257
 -32 -206 -19 -201 -10 -190 c 256
 -3 -181 1 -170 6 -147 c 258
 85 250 l 257
 37 202 l 257
 33 207 31 217 31 222 c 256
 31 226 33 228 34 229 c 258
 93 292 l 257
 144 560 l 258
 147 578 153 602 153 613 c 256
 153 632 108 632 92 632 c 257
 89 636 92 649 96 653 c 257
 151 658 206 678 228 686 c 257
 233 683 234 673 234 667 c 256
 234 659 226 617 221 592 c 256
281 380 m 256
 248 380 190 338 163 300 c 257
 130 131 l 258
 119 72 147 30 177 30 c 256
 262 30 334 184 334 303 c 256
 334 358 313 380 281 380 c 256
EndSplineSet
Validated: 8388641
PickledDataWithLists: "(dp1
S'com.fontlab.hintData'
p2
(dp3
S'vhints'
p4
(lp5
(dp6
S'position'
p7
I153
sS'width'
p8
I81
sa(dp9
g7
I334
sg8
I74
sasS'hhints'
p10
(lp11
(dp12
g7
I-235
sg8
I29
sa(dp13
g7
I-226
sg8
I27
sa(dp14
g7
I-5
sg8
I35
sa(dp15
g7
I380
sg8
I55
sa(dp16
g7
I632
sg8
I21
sa(dp17
g7
I666
sg8
I20
sass."
Substitution2: "smcpLowercasetoSmallCapitalslookup4 subtable" thorn.sc
EndChar

StartChar: dagger
Encoding: 190 8224 190
GlifName: dagger
Width: 358
VWidth: 0
GlyphClass: 2
Flags: W
HStem: -8 21 437 81<84 110> 465 21<163.5 182 258 274.5> 642 20<239.5 260>
VStem: 122 11<4 4>
LayerCount: 2
Fore
SplineSet
179 486 m 256
 194 486 200 492 212 505 c 257
 218 538 224 606 210 625 c 257
 214 646 229 662 250 662 c 256
 270 662 290 646 286 625 c 257
 265 606 244 538 238 505 c 257
 245 492 252 486 264 486 c 256
 295 486 324 499 345 518 c 257
 365 518 372 500 372 481 c 256
 372 460 350 437 330 437 c 257
 316 456 289 465 260 465 c 256
 243 465 228 449 226 437 c 257
 229 420 234 394 240 365 c 257
 193 227 178 171 133 4 c 257
 130 -2 128 -7 125 -8 c 257
 122 -7 123 0 122 4 c 257
 142 171 149 227 155 365 c 257
 170 390 187 420 197 437 c 257
 199 449 189 465 175 465 c 256
 142 465 115 456 94 437 c 257
 74 437 66 450 66 471 c 256
 66 492 90 518 110 518 c 257
 124 499 148 486 179 486 c 256
EndSplineSet
Validated: 8388641
PickledDataWithLists: "(dp1
S'com.fontlab.hintData'
p2
(dp3
S'vhints'
p4
(lp5
(dp6
S'position'
p7
I122
sS'width'
p8
I11
sasS'hhints'
p9
(lp10
(dp11
g7
I-8
sg8
I21
sa(dp12
g7
I437
sg8
I81
sa(dp13
g7
I465
sg8
I21
sa(dp14
g7
I642
sg8
I20
sass."
EndChar

StartChar: daggerdbl
Encoding: 191 8225 191
GlifName: daggerdbl
Width: 377
VWidth: 0
GlyphClass: 2
Flags: W
HStem: -8 21<124.5 145> 136 81<35 61> 168 21<114.5 132.5 207.5 226.5> 437 81<93 119> 465 21<172.5 191.5 267 284.5> 642 20<254.5 275>
LayerCount: 2
Fore
SplineSet
235 289 m 257
 218 260 203 234 193 217 c 257
 191 205 200 189 215 189 c 256
 246 189 275 198 296 217 c 257
 316 217 328 199 324 178 c 256
 320 157 300 136 280 136 c 257
 266 155 242 168 211 168 c 256
 199 168 190 162 178 149 c 257
 172 116 165 48 179 29 c 257
 175 8 155 -8 135 -8 c 256
 114 -8 99 8 103 29 c 257
 124 48 146 116 152 149 c 257
 145 162 139 168 126 168 c 256
 95 168 66 155 45 136 c 257
 25 136 14 157 18 178 c 256
 22 199 41 217 61 217 c 257
 75 198 99 189 130 189 c 256
 145 189 161 205 163 217 c 257
 160 234 154 264 149 289 c 257
 164 306 169 311 184 327 c 257
 175 342 176 341 164 365 c 257
 179 390 196 420 206 437 c 257
 208 449 199 465 184 465 c 256
 153 465 124 456 103 437 c 257
 83 437 72 455 76 476 c 256
 80 497 99 518 119 518 c 257
 133 499 157 486 188 486 c 256
 201 486 209 492 221 505 c 257
 227 538 233 606 219 625 c 257
 223 646 244 662 265 662 c 256
 285 662 299 646 295 625 c 257
 274 606 253 538 247 505 c 257
 254 492 261 486 273 486 c 256
 304 486 333 499 354 518 c 257
 374 518 386 497 382 476 c 256
 378 455 359 437 339 437 c 257
 325 456 300 465 269 465 c 256
 254 465 237 449 235 437 c 257
 238 420 243 394 249 365 c 257
 229 343 228 342 214 327 c 257
 221 314 224 309 235 289 c 257
EndSplineSet
Validated: 8388641
PickledDataWithLists: "(dp1
S'com.fontlab.hintData'
p2
(dp3
S'hhints'
p4
(lp5
(dp6
S'position'
p7
I-8
sS'width'
p8
I21
sa(dp9
g7
I136
sg8
I81
sa(dp10
g7
I168
sg8
I21
sa(dp11
g7
I437
sg8
I81
sa(dp12
g7
I465
sg8
I21
sa(dp13
g7
I642
sg8
I20
sass."
EndChar

StartChar: bullet
Encoding: 192 8226 192
GlifName: bullet
Width: 334
VWidth: 0
GlyphClass: 2
Flags: W
HStem: 155 216<159.5 172.5>
VStem: 66 200<263 263>
LayerCount: 2
Fore
SplineSet
66 263 m 256
 77 322 132 371 187 371 c 256
 242 371 277 322 266 263 c 256
 255 204 200 155 145 155 c 256
 90 155 55 204 66 263 c 256
EndSplineSet
Validated: 33
PickledDataWithLists: "(dp1
S'com.fontlab.hintData'
p2
(dp3
S'vhints'
p4
(lp5
(dp6
S'position'
p7
I66
sS'width'
p8
I200
sasS'hhints'
p9
(lp10
(dp11
g7
I155
sg8
I216
sass."
EndChar

StartChar: uni2010
Encoding: 193 8208 193
GlifName: uni2010
Width: 370
VWidth: 0
GlyphClass: 2
Flags: W
VStem: 52 254<210 263.5>
LayerCount: 2
Fore
SplineSet
73 261 m 258
 300 273 l 258
 305 273 306 266 306 261 c 256
 306 248 293 211 283 210 c 258
 57 199 l 258
 54 199 52 206 52 214 c 256
 52 225 62 260 73 261 c 258
EndSplineSet
Validated: 1
PickledDataWithLists: "(dp1
S'com.fontlab.hintData'
p2
(dp3
S'vhints'
p4
(lp5
(dp6
S'position'
p7
I52
sS'width'
p8
I254
sass."
EndChar

StartChar: uni2011
Encoding: 194 8209 194
GlifName: uni2011
Width: 370
VWidth: 0
GlyphClass: 2
Flags: W
VStem: 52 254<210 263.5>
LayerCount: 2
Fore
SplineSet
73 261 m 258
 300 273 l 258
 305 273 306 266 306 261 c 256
 306 248 293 211 283 210 c 258
 57 199 l 258
 54 199 52 206 52 214 c 256
 52 225 62 260 73 261 c 258
EndSplineSet
Validated: 1
PickledDataWithLists: "(dp1
S'com.fontlab.hintData'
p2
(dp3
S'vhints'
p4
(lp5
(dp6
S'position'
p7
I52
sS'width'
p8
I254
sass."
EndChar

StartChar: figuredash
Encoding: 195 8210 195
GlifName: figuredash
Width: 516
VWidth: 0
GlyphClass: 2
Flags: W
HStem: 200 62<56 444 74 428>
LayerCount: 2
Fore
SplineSet
444 262 m 258
 448 262 450 256 450 249 c 256
 450 235 440 207 428 200 c 257
 58 200 l 258
 54 200 52 206 52 213 c 256
 52 227 62 255 74 262 c 257
 444 262 l 258
EndSplineSet
Validated: 1
PickledDataWithLists: "(dp1
S'com.fontlab.hintData'
p2
(dp3
S'hhints'
p4
(lp5
(dp6
S'position'
p7
I200
sS'width'
p8
I62
sass."
EndChar

StartChar: endash
Encoding: 196 8211 196
GlifName: endash
Width: 564
VWidth: 0
GlyphClass: 2
Flags: W
HStem: 200 62<57 491 75 475>
LayerCount: 2
Fore
SplineSet
491 262 m 258
 495 262 497 256 497 249 c 256
 497 235 487 207 475 200 c 257
 59 200 l 258
 55 200 53 206 53 213 c 256
 53 227 63 255 75 262 c 257
 491 262 l 258
EndSplineSet
Validated: 1
PickledDataWithLists: "(dp1
S'com.fontlab.hintData'
p2
(dp3
S'hhints'
p4
(lp5
(dp6
S'position'
p7
I200
sS'width'
p8
I62
sass."
EndChar

StartChar: emdash
Encoding: 197 8212 197
GlifName: emdash
Width: 800
VWidth: 0
GlyphClass: 2
Flags: W
HStem: 200 62<57 727 75 711>
LayerCount: 2
Fore
SplineSet
727 262 m 258
 731 262 733 256 733 249 c 256
 733 235 723 207 711 200 c 257
 59 200 l 258
 55 200 53 206 53 213 c 256
 53 227 63 255 75 262 c 257
 727 262 l 258
EndSplineSet
Validated: 1
PickledDataWithLists: "(dp1
S'com.fontlab.hintData'
p2
(dp3
S'hhints'
p4
(lp5
(dp6
S'position'
p7
I200
sS'width'
p8
I62
sass."
EndChar

StartChar: afii00208
Encoding: 198 8213 198
GlifName: afii00208
Width: 1070
VWidth: 0
GlyphClass: 2
Flags: W
HStem: 200 62<57 997 75 981>
LayerCount: 2
Fore
SplineSet
997 262 m 258
 1001 262 1003 256 1003 249 c 256
 1003 235 993 207 981 200 c 257
 59 200 l 258
 55 200 53 206 53 213 c 256
 53 227 63 255 75 262 c 257
 997 262 l 258
EndSplineSet
Validated: 1
PickledDataWithLists: "(dp1
S'com.fontlab.hintData'
p2
(dp3
S'hhints'
p4
(lp5
(dp6
S'position'
p7
I200
sS'width'
p8
I62
sass."
EndChar

StartChar: quoteleft
Encoding: 199 8216 199
GlifName: quoteleft
Width: 183
VWidth: 0
GlyphClass: 2
Flags: W
HStem: 482 224<117.5 237.5>
VStem: 103 87
LayerCount: 2
Fore
SplineSet
102 555 m 256
 120 649 226 706 234 706 c 256
 241 706 246 699 248 688 c 257
 185 652 167 606 165 597 c 256
 160 571 195 553 190 525 c 256
 185 501 151 482 121 482 c 256
 114 482 109 483 103 485 c 257
 97 498 97 530 102 555 c 256
EndSplineSet
Validated: 33
PickledDataWithLists: "(dp1
S'com.fontlab.hintData'
p2
(dp3
S'vhints'
p4
(lp5
(dp6
S'position'
p7
I103
sS'width'
p8
I87
sasS'hhints'
p9
(lp10
(dp11
g7
I482
sg8
I224
sass."
EndChar

StartChar: quoteright
Encoding: 200 8217 200
GlifName: quoteright
Width: 193
VWidth: 0
GlyphClass: 2
Flags: W
HStem: 484 224<94.5 214.5>
VStem: 143 86
LayerCount: 2
Fore
SplineSet
229 635 m 256
 211 541 106 484 98 484 c 256
 91 484 85 491 83 502 c 257
 146 538 165 584 167 593 c 256
 172 619 138 637 143 665 c 256
 148 689 181 708 211 708 c 256
 218 708 223 707 229 705 c 257
 235 692 234 660 229 635 c 256
EndSplineSet
Validated: 33
PickledDataWithLists: "(dp1
S'com.fontlab.hintData'
p2
(dp3
S'vhints'
p4
(lp5
(dp6
S'position'
p7
I143
sS'width'
p8
I86
sasS'hhints'
p9
(lp10
(dp11
g7
I484
sg8
I224
sass."
EndChar

StartChar: quotesinglbase
Encoding: 201 8218 201
GlifName: quotesinglbase
Width: 196
VWidth: 0
GlyphClass: 2
Flags: W
HStem: -97 223<-33.5 86.5>
VStem: 14 87
LayerCount: 2
Fore
SplineSet
101 53 m 256
 83 -41 -22 -97 -30 -97 c 256
 -37 -97 -43 -91 -45 -80 c 257
 18 -44 37 2 39 11 c 256
 44 37 9 55 14 83 c 256
 19 107 53 126 83 126 c 256
 90 126 95 125 101 123 c 257
 107 110 106 78 101 53 c 256
EndSplineSet
Validated: 33
PickledDataWithLists: "(dp1
S'com.fontlab.hintData'
p2
(dp3
S'vhints'
p4
(lp5
(dp6
S'position'
p7
I14
sS'width'
p8
I87
sasS'hhints'
p9
(lp10
(dp11
g7
I-97
sg8
I223
sass."
EndChar

StartChar: quotedblleft
Encoding: 202 8220 202
GlifName: quotedblleft
Width: 316
VWidth: 0
GlyphClass: 2
Flags: W
HStem: 482 224<117.5 237.5 230 270>
VStem: 103 87 236 87
LayerCount: 2
Fore
SplineSet
236 555 m 256
 254 649 359 706 367 706 c 256
 374 706 380 699 382 688 c 257
 319 652 300 606 298 597 c 256
 293 571 328 553 323 525 c 256
 318 501 285 482 255 482 c 256
 248 482 242 483 236 485 c 257
 230 498 231 530 236 555 c 256
102 555 m 256
 120 649 226 706 234 706 c 256
 241 706 246 699 248 688 c 257
 185 652 167 606 165 597 c 256
 160 571 195 553 190 525 c 256
 185 501 151 482 121 482 c 256
 114 482 109 483 103 485 c 257
 97 498 97 530 102 555 c 256
EndSplineSet
Validated: 33
PickledDataWithLists: "(dp1
S'com.fontlab.hintData'
p2
(dp3
S'vhints'
p4
(lp5
(dp6
S'position'
p7
I103
sS'width'
p8
I87
sa(dp9
g7
I236
sg8
I87
sasS'hhints'
p10
(lp11
(dp12
g7
I482
sg8
I224
sass."
EndChar

StartChar: quotedblright
Encoding: 203 8221 203
GlifName: quotedblright
Width: 327
VWidth: 0
GlyphClass: 2
Flags: W
HStem: 484 224<94.5 214.5 196 235>
VStem: 143 86 276 86
LayerCount: 2
Fore
SplineSet
363 635 m 256
 345 541 239 484 231 484 c 256
 224 484 219 491 217 502 c 257
 280 538 298 584 300 593 c 256
 305 619 271 637 276 665 c 256
 281 689 314 708 344 708 c 256
 351 708 356 707 362 705 c 257
 368 692 368 660 363 635 c 256
229 635 m 256
 211 541 106 484 98 484 c 256
 91 484 85 491 83 502 c 257
 146 538 165 584 167 593 c 256
 172 619 138 637 143 665 c 256
 148 689 181 708 211 708 c 256
 218 708 223 707 229 705 c 257
 235 692 234 660 229 635 c 256
EndSplineSet
Validated: 33
PickledDataWithLists: "(dp1
S'com.fontlab.hintData'
p2
(dp3
S'vhints'
p4
(lp5
(dp6
S'position'
p7
I143
sS'width'
p8
I86
sa(dp9
g7
I276
sg8
I86
sasS'hhints'
p10
(lp11
(dp12
g7
I484
sg8
I224
sass."
EndChar

StartChar: quotedblbase
Encoding: 204 8222 204
GlifName: quotedblbase
Width: 329
VWidth: 0
GlyphClass: 2
Flags: W
HStem: -99 223<99.5 219.5>
VStem: 14 87 147 87
LayerCount: 2
Fore
SplineSet
234 51 m 256
 216 -43 111 -99 103 -99 c 256
 96 -99 90 -93 88 -82 c 257
 151 -46 169 0 171 9 c 256
 176 35 142 53 147 81 c 256
 152 105 186 124 216 124 c 256
 223 124 228 123 234 121 c 257
 240 108 239 76 234 51 c 256
101 53 m 256
 83 -41 -22 -97 -30 -97 c 256
 -37 -97 -43 -91 -45 -80 c 257
 18 -44 37 2 39 11 c 256
 44 37 9 55 14 83 c 256
 19 107 53 126 83 126 c 256
 90 126 95 125 101 123 c 257
 107 110 106 78 101 53 c 256
EndSplineSet
Validated: 33
PickledDataWithLists: "(dp1
S'com.fontlab.hintData'
p2
(dp3
S'vhints'
p4
(lp5
(dp6
S'position'
p7
I14
sS'width'
p8
I87
sa(dp9
g7
I147
sg8
I87
sasS'hhints'
p10
(lp11
(dp12
g7
I-99
sg8
I223
sass."
EndChar

StartChar: onedotenleader
Encoding: 205 8228 205
GlifName: onedotenleader
Width: 207
VWidth: 0
GlyphClass: 2
Flags: W
HStem: -14 116<56.5 67.5>
VStem: 9 108<38.5 50.5>
LayerCount: 2
Fore
SplineSet
9 32 m 256
 9 69 40 102 73 102 c 256
 99 102 117 83 117 57 c 256
 117 20 84 -14 51 -14 c 256
 25 -14 9 6 9 32 c 256
EndSplineSet
Validated: 1
PickledDataWithLists: "(dp1
S'com.fontlab.hintData'
p2
(dp3
S'vhints'
p4
(lp5
(dp6
S'position'
p7
I9
sS'width'
p8
I108
sasS'hhints'
p9
(lp10
(dp11
g7
I-14
sg8
I116
sass."
EndChar

StartChar: ellipsis
Encoding: 206 8230 206
GlifName: ellipsis
Width: 680
VWidth: 0
GlyphClass: 2
Flags: W
HStem: -14 116<56.5 67.5 293.5 304.5 529.5 539.5>
VStem: 9 108<38.5 50.5> 246 108<38.5 50.5> 481 109<38.5 51>
LayerCount: 2
Fore
SplineSet
481 32 m 256
 481 70 513 102 546 102 c 256
 572 102 590 83 590 57 c 256
 590 20 556 -14 523 -14 c 256
 497 -14 481 6 481 32 c 256
246 32 m 256
 246 69 277 102 310 102 c 256
 336 102 354 83 354 57 c 256
 354 20 321 -14 288 -14 c 256
 262 -14 246 6 246 32 c 256
9 32 m 256
 9 69 40 102 73 102 c 256
 99 102 117 83 117 57 c 256
 117 20 84 -14 51 -14 c 256
 25 -14 9 6 9 32 c 256
EndSplineSet
Validated: 1
PickledDataWithLists: "(dp1
S'com.fontlab.hintData'
p2
(dp3
S'vhints'
p4
(lp5
(dp6
S'position'
p7
I9
sS'width'
p8
I108
sa(dp9
g7
I246
sg8
I108
sa(dp10
g7
I481
sg8
I109
sasS'hhints'
p11
(lp12
(dp13
g7
I-14
sg8
I116
sass."
EndChar

StartChar: perthousand
Encoding: 207 8240 207
GlifName: perthousand
Width: 942
VWidth: 0
GlyphClass: 2
Flags: W
HStem: -8 28<395 450.5 395 456 707 762.5> 300 27<431.5 485.5 743.5 797.5> 338 28<183 238.5 183 244> 643 20<620 631> 646 27<219.5 273.5>
VStem: 79 63<452.5 517 452.5 518> 291 63<106.5 171 106.5 172> 309 65<501.5 564.5> 521 65<155.5 218.5> 603 63<106.5 171 106.5 172> 833 65<155.5 218.5>
LayerCount: 2
Fore
SplineSet
775 300 m 256
 712 300 666 210 666 132 c 256
 666 81 683 20 731 20 c 256
 794 20 833 116 833 195 c 256
 833 242 820 300 775 300 c 256
785 327 m 256
 862 327 898 263 898 195 c 256
 898 99 817 -8 719 -8 c 256
 643 -8 603 55 603 123 c 256
 603 221 683 327 785 327 c 256
251 646 m 256
 188 646 142 556 142 478 c 256
 142 427 159 366 207 366 c 256
 270 366 309 462 309 541 c 256
 309 588 296 646 251 646 c 256
261 673 m 256
 338 673 374 609 374 541 c 256
 374 445 293 338 195 338 c 256
 119 338 79 401 79 469 c 256
 79 567 159 673 261 673 c 256
652 650 m 257
 56 0 l 258
 52 -4 36 -12 22 -12 c 256
 15 -12 9 -9 7 -1 c 257
 603 652 l 258
 607 656 615 663 625 663 c 256
 637 663 648 660 652 650 c 257
463 300 m 256
 400 300 354 210 354 132 c 256
 354 81 371 20 419 20 c 256
 482 20 521 116 521 195 c 256
 521 242 508 300 463 300 c 256
473 327 m 256
 550 327 586 263 586 195 c 256
 586 99 505 -8 407 -8 c 256
 331 -8 291 55 291 123 c 256
 291 221 371 327 473 327 c 256
EndSplineSet
Validated: 8388609
PickledDataWithLists: "(dp1
S'com.fontlab.hintData'
p2
(dp3
S'vhints'
p4
(lp5
(dp6
S'position'
p7
I79
sS'width'
p8
I63
sa(dp9
g7
I291
sg8
I63
sa(dp10
g7
I309
sg8
I65
sa(dp11
g7
I521
sg8
I65
sa(dp12
g7
I603
sg8
I63
sa(dp13
g7
I833
sg8
I65
sasS'hhints'
p14
(lp15
(dp16
g7
I-8
sg8
I28
sa(dp17
g7
I300
sg8
I27
sa(dp18
g7
I338
sg8
I28
sa(dp19
g7
I643
sg8
I20
sa(dp20
g7
I646
sg8
I27
sass."
EndChar

StartChar: minute
Encoding: 208 8242 208
GlifName: minute
Width: 163
VWidth: 0
GlyphClass: 2
Flags: W
HStem: 494 205<102 195>
VStem: 138 73
LayerCount: 2
Fore
SplineSet
191 699 m 256
 199 699 211 696 211 682 c 256
 211 642 143 541 117 502 c 256
 113 496 109 494 105 494 c 256
 99 494 95 499 96 506 c 256
 97 509 120 612 138 666 c 256
 142 678 173 699 191 699 c 256
EndSplineSet
Validated: 1
PickledDataWithLists: "(dp1
S'com.fontlab.hintData'
p2
(dp3
S'vhints'
p4
(lp5
(dp6
S'position'
p7
I138
sS'width'
p8
I73
sasS'hhints'
p9
(lp10
(dp11
g7
I494
sg8
I205
sass."
EndChar

StartChar: second
Encoding: 209 8243 209
GlifName: second
Width: 283
VWidth: 0
GlyphClass: 2
Flags: W
HStem: 494 205<102 195 182 228>
VStem: 138 73 260 71
LayerCount: 2
Fore
SplineSet
312 699 m 256
 320 699 331 696 331 682 c 256
 331 642 266 544 238 502 c 256
 234 496 230 494 226 494 c 256
 220 494 215 499 216 506 c 256
 217 509 242 612 260 666 c 256
 264 678 294 699 312 699 c 256
191 699 m 256
 199 699 211 696 211 682 c 256
 211 642 143 541 117 502 c 256
 113 496 109 494 105 494 c 256
 99 494 95 499 96 506 c 256
 97 509 120 612 138 666 c 256
 142 678 173 699 191 699 c 256
EndSplineSet
Validated: 1
PickledDataWithLists: "(dp1
S'com.fontlab.hintData'
p2
(dp3
S'vhints'
p4
(lp5
(dp6
S'position'
p7
I138
sS'width'
p8
I73
sa(dp9
g7
I260
sg8
I71
sasS'hhints'
p10
(lp11
(dp12
g7
I494
sg8
I205
sass."
EndChar

StartChar: uni2038
Encoding: 210 8248 210
GlifName: uni2038
Width: 375
VWidth: 0
GlyphClass: 2
Flags: W
HStem: -36 146<78.5 215 203.5 283>
VStem: 75 219
LayerCount: 2
Fore
SplineSet
280 -36 m 256
 268 -36 222 11 196 47 c 257
 159 10 93 -36 81 -36 c 256
 76 -36 75 -28 75 -23 c 256
 75 -8 139 17 195 100 c 257
 199 108 201 110 206 110 c 256
 224 110 212 95 246 41 c 256
 258 21 293 -15 294 -18 c 257
 293 -22 286 -36 280 -36 c 256
EndSplineSet
Validated: 1
PickledDataWithLists: "(dp1
S'com.fontlab.hintData'
p2
(dp3
S'vhints'
p4
(lp5
(dp6
S'position'
p7
I75
sS'width'
p8
I219
sasS'hhints'
p9
(lp10
(dp11
g7
I-36
sg8
I146
sass."
EndChar

StartChar: guilsinglleft
Encoding: 211 8249 211
GlifName: guilsinglleft
Width: 304
VWidth: 0
GlyphClass: 2
Flags: W
VStem: 27 257
LayerCount: 2
Fore
SplineSet
220 91 m 257
 215 82 205 76 199 73 c 257
 169 112 97 182 37 228 c 256
 31 232 27 236 27 242 c 256
 27 253 35 262 42 266 c 256
 153 329 195 368 266 423 c 257
 270 422 282 417 284 408 c 257
 279 396 116 249 116 249 c 257
 116 249 220 99 220 91 c 257
EndSplineSet
Validated: 1
PickledDataWithLists: "(dp1
S'com.fontlab.hintData'
p2
(dp3
S'vhints'
p4
(lp5
(dp6
S'position'
p7
I27
sS'width'
p8
I257
sass."
EndChar

StartChar: guilsinglright
Encoding: 212 8250 212
GlifName: guilsinglright
Width: 305
VWidth: 0
GlyphClass: 2
Flags: W
VStem: 13 257
LayerCount: 2
Fore
SplineSet
77 405 m 257
 82 414 92 420 98 423 c 257
 128 384 200 314 260 268 c 256
 266 264 270 260 270 254 c 256
 270 243 262 234 255 230 c 256
 144 167 102 128 31 73 c 257
 27 74 15 79 13 88 c 257
 18 100 181 247 181 247 c 257
 181 247 77 397 77 405 c 257
EndSplineSet
Validated: 1
PickledDataWithLists: "(dp1
S'com.fontlab.hintData'
p2
(dp3
S'vhints'
p4
(lp5
(dp6
S'position'
p7
I13
sS'width'
p8
I257
sass."
EndChar

StartChar: uni203E
Encoding: 213 8254 213
GlifName: uni203E_
Width: 822
VWidth: 0
GlyphClass: 2
Flags: W
HStem: 739 62<231 788 249 772>
LayerCount: 2
Fore
SplineSet
788 801 m 258
 792 801 794 795 794 788 c 256
 794 774 784 746 772 739 c 257
 233 739 l 258
 229 739 227 745 227 752 c 256
 227 766 237 794 249 801 c 257
 788 801 l 258
EndSplineSet
Validated: 1
PickledDataWithLists: "(dp1
S'com.fontlab.hintData'
p2
(dp3
S'hhints'
p4
(lp5
(dp6
S'position'
p7
I739
sS'width'
p8
I62
sass."
EndChar

StartChar: Euro
Encoding: 214 8364 214
GlifName: E_uro
Width: 618
VWidth: 0
GlyphClass: 2
Flags: W
HStem: -8 34<294 369> 242 39<30.5 379 41 370> 340 39<45.5 394 56 385> 600 33
VStem: 80 91<211.5 268 211.5 372> 554 31<469 469>
LayerCount: 2
Fore
SplineSet
422 600 m 256
 291 600 170 474 171 268 c 256
 171 155 231 26 357 26 c 256
 405 26 443 46 474 74 c 256
 504 101 526 136 540 164 c 257
 552 164 565 157 565 157 c 257
 561 138 514 37 501 26 c 257
 453 -1 405 -8 333 -8 c 256
 196 -8 80 111 80 252 c 256
 80 492 272 637 447 633 c 256
 496 632 550 619 593 608 c 257
 591 574 587 498 585 469 c 256
 585 462 578 462 575 462 c 256
 571 462 558 461 554 469 c 257
 558 545 493 600 422 600 c 256
47 340 m 258
 44 340 43 344 43 348 c 256
 43 355 49 373 56 379 c 257
 394 379 l 258
 396 379 397 375 397 371 c 256
 397 366 394 349 385 340 c 257
 47 340 l 258
32 242 m 258
 29 242 28 246 28 250 c 256
 28 257 34 275 41 281 c 257
 379 281 l 258
 381 281 382 277 382 273 c 256
 382 268 379 251 370 242 c 257
 32 242 l 258
EndSplineSet
Validated: 37
PickledDataWithLists: "(dp1
S'com.fontlab.hintData'
p2
(dp3
S'vhints'
p4
(lp5
(dp6
S'position'
p7
I80
sS'width'
p8
I91
sa(dp9
g7
I554
sg8
I31
sasS'hhints'
p10
(lp11
(dp12
g7
I-8
sg8
I34
sa(dp13
g7
I242
sg8
I39
sa(dp14
g7
I340
sg8
I39
sa(dp15
g7
I600
sg8
I33
sass."
EndChar

StartChar: arrowleft
Encoding: 215 8592 215
GlifName: arrowleft
Width: 672
VWidth: 0
GlyphClass: 2
Flags: W
HStem: 216 62<119 638 109 654>
LayerCount: 2
Fore
SplineSet
183 335 m 256
 119 278 l 257
 654 278 l 258
 658 278 660 272 660 265 c 256
 660 251 650 223 638 216 c 257
 109 216 l 257
 183 335 l 256
EndSplineSet
Validated: 5
PickledDataWithLists: "(dp1
S'com.fontlab.hintData'
p2
(dp3
S'hhints'
p4
(lp5
(dp6
S'position'
p7
I216
sS'width'
p8
I62
sass."
EndChar

StartChar: arrowup
Encoding: 216 8593 216
GlifName: arrowup
Width: 315
VWidth: 0
GlyphClass: 2
Flags: W
HStem: 438 21<7 16.5>
VStem: 0 326<461 461>
LayerCount: 2
Fore
SplineSet
152 556 m 257
 86 499 l 257
 19 439 20 438 13 438 c 256
 1 438 2 456 0 461 c 257
 2 462 67 520 184 667 c 256
 187 672 192 674 198 674 c 256
 207 674 216 673 222 666 c 257
 270 535 325 461 326 460 c 257
 320 446 312 437 304 437 c 256
 292 437 297 440 248 505 c 258
 210 555 l 257
 99 -21 l 258
 98 -24 93 -28 86 -28 c 256
 71 -28 47 -21 41 -13 c 257
 152 556 l 257
EndSplineSet
Validated: 1
PickledDataWithLists: "(dp1
S'com.fontlab.hintData'
p2
(dp3
S'vhints'
p4
(lp5
(dp6
S'position'
p7
I0
sS'width'
p8
I326
sasS'hhints'
p9
(lp10
(dp11
g7
I438
sg8
I21
sass."
EndChar

StartChar: arrowright
Encoding: 217 8594 217
GlifName: arrowright
Width: 676
VWidth: 0
GlyphClass: 2
Flags: W
HStem: 217 62<11 563 29 549>
LayerCount: 2
Fore
SplineSet
549 217 m 257
 13 217 l 258
 9 217 7 223 7 230 c 256
 7 244 17 272 29 279 c 257
 563 279 l 257
 520 339 l 257
 473 401 477 387 477 404 c 257
 480 417 497 420 502 423 c 257
 503 421 544 363 662 268 c 256
 665 266 666 263 666 259 c 256
 666 253 663 236 654 227 c 257
 517 148 433 74 432 73 c 257
 420 77 413 82 415 91 c 257
 415 100 420 100 491 164 c 258
 549 217 l 257
EndSplineSet
Validated: 33
PickledDataWithLists: "(dp1
S'com.fontlab.hintData'
p2
(dp3
S'hhints'
p4
(lp5
(dp6
S'position'
p7
I217
sS'width'
p8
I62
sass."
EndChar

StartChar: arrowdown
Encoding: 218 8595 218
GlifName: arrowdown
Width: 313
VWidth: 0
GlyphClass: 2
Flags: W
VStem: -10 325<185 185>
LayerCount: 2
Fore
SplineSet
105 90 m 257
 217 667 l 258
 218 671 223 673 230 673 c 256
 244 673 266 666 274 658 c 257
 164 89 l 257
 230 146 l 257
 296 206 289 207 303 207 c 256
 315 207 313 189 315 184 c 257
 313 183 248 125 131 -22 c 256
 128 -27 123 -29 117 -29 c 256
 108 -29 99 -27 93 -20 c 257
 45 111 -9 184 -10 185 c 257
 -4 199 3 208 11 208 c 256
 22 208 17 206 68 138 c 257
 105 90 l 257
EndSplineSet
Validated: 1
PickledDataWithLists: "(dp1
S'com.fontlab.hintData'
p2
(dp3
S'vhints'
p4
(lp5
(dp6
S'position'
p7
I-10
sS'width'
p8
I325
sass."
EndChar

StartChar: summation
Encoding: 219 8721 219
GlifName: summation
Width: 570
VWidth: 0
GlyphClass: 2
Flags: W
HStem: 2 45<129.5 131.5> 2 29 627 29 638 20<106 106>
VStem: 520 29<528 530>
LayerCount: 2
Fore
SplineSet
404 616 m 258
 404 616 314 617 288 617 c 256
 255 617 227 615 224 607 c 257
 351 358 l 257
 353 346 352 335 344 327 c 256
 307 291 91 87 91 57 c 256
 91 51 100 47 159 47 c 256
 191 47 227 48 258 48 c 256
 293 48 382 51 412 66 c 256
 432 76 459 109 484 162 c 256
 486 166 491 168 498 168 c 256
 507 168 519 165 521 162 c 257
 493 108 453 40 438 -4 c 257
 337 -4 174 2 89 2 c 256
 27 2 -22 -3 -22 -3 c 257
 -23 -2 -23 1 -23 5 c 256
 -23 13 -19 31 -16 31 c 256
 -6 31 18 51 29 63 c 258
 268 317 l 258
 270 320 271 323 269 327 c 256
 261 347 194 490 142 592 c 256
 133 609 111 627 100 627 c 256
 97 627 97 649 106 658 c 257
 106 658 152 656 214 656 c 256
 300 656 448 664 549 664 c 257
 548 648 548 632 548 617 c 256
 548 587 549 558 549 528 c 257
 546 525 539 523 532 523 c 256
 525 523 520 525 520 530 c 256
 517 587 495 602 487 607 c 256
 473 615 437 616 404 616 c 258
EndSplineSet
Validated: 8388609
PickledDataWithLists: "(dp1
S'com.fontlab.hintData'
p2
(dp3
S'vhints'
p4
(lp5
(dp6
S'position'
p7
I520
sS'width'
p8
I29
sasS'hhints'
p9
(lp10
(dp11
g7
I2
sg8
I45
sa(dp12
g7
I2
sg8
I29
sa(dp13
g7
I627
sg8
I29
sa(dp14
g7
I638
sg8
I20
sass."
EndChar

StartChar: minus
Encoding: 220 8722 220
GlifName: minus
Width: 567
VWidth: 0
GlyphClass: 2
Flags: W
HStem: 218 56<75 481 57 500>
LayerCount: 2
Fore
SplineSet
53 228 m 257
 53 228 66 274 75 274 c 258
 500 274 l 258
 503 274 505 274 505 269 c 256
 505 265 496 242 488 224 c 256
 481 218 l 257
 57 218 l 257
 57 218 51 218 53 228 c 257
EndSplineSet
Validated: 1
PickledDataWithLists: "(dp1
S'com.fontlab.hintData'
p2
(dp3
S'hhints'
p4
(lp5
(dp6
S'position'
p7
I218
sS'width'
p8
I56
sass."
EndChar

StartChar: uni2213
Encoding: 221 8723 221
GlifName: uni2213
Width: 534
VWidth: 0
GlyphClass: 2
Flags: W
HStem: 221 57<61 226 41 238> 522 57<101 536>
LayerCount: 2
Fore
SplineSet
536 579 m 257
 536 579 542 579 542 572 c 256
 542 571 542 569 541 567 c 256
 525 519 520 525 517 522 c 257
 101 522 l 257
 536 579 l 257
283 218 m 256
 246 26 l 257
 246 26 244 16 201 10 c 256
 198 10 197 9 195 9 c 256
 188 9 191 13 192 17 c 258
 231 216 l 258
 231 218 231 221 226 221 c 258
 41 221 l 257
 41 221 37 221 37 227 c 256
 37 236 51 267 53 272 c 258
 61 278 l 257
 238 278 l 258
 241 278 244 281 244 283 c 258
 281 473 l 257
 283 218 l 256
EndSplineSet
Validated: 1
PickledDataWithLists: "(dp1
S'com.fontlab.hintData'
p2
(dp3
S'hhints'
p4
(lp5
(dp6
S'position'
p7
I221
sS'width'
p8
I57
sa(dp9
g7
I522
sg8
I57
sass."
EndChar

StartChar: radical
Encoding: 222 8730 222
GlifName: radical
Width: 462
VWidth: 0
GlyphClass: 2
Flags: W
LayerCount: 2
Fore
SplineSet
-19 168 m 257
 -30 174 -35 181 -35 185 c 256
 -35 193 -16 203 -10 206 c 256
 27 226 111 279 126 291 c 256
 135 298 149 298 150 290 c 256
 151 257 159 226 160 221 c 258
 220 -31 l 257
 512 791 l 257
 546 791 l 257
 209 -153 l 257
 192 -171 181 -173 175 -173 c 256
 171 -173 166 -172 166 -168 c 258
 77 220 l 257
 -19 168 l 257
EndSplineSet
Validated: 1
EndChar

StartChar: proportional
Encoding: 223 8733 223
GlifName: proportional
Width: 655
VWidth: 0
GlyphClass: 2
Flags: W
HStem: 41 56<161.5 199> 362 60<200.5 266.5>
VStem: 34 67<170 233.5 170 245>
LayerCount: 2
Fore
SplineSet
234 362 m 256
 157 362 101 269 101 198 c 256
 101 142 134 97 189 97 c 256
 250 97 313 172 362 218 c 256
 363 219 364 219 363 220 c 256
 340 259 299 362 234 362 c 256
621 419 m 257
 623 415 625 405 625 401 c 256
 625 388 624 367 615 367 c 256
 558 367 485 286 445 246 c 256
 444 245 443 244 444 243 c 256
 476 185 512 100 576 100 c 256
 594 100 559 47 547 43 c 257
 425 43 388 180 378 180 c 258
 377 180 l 257
 315 117 245 41 153 41 c 256
 78 41 34 104 34 182 c 256
 34 308 144 422 257 422 c 256
 347 422 396 334 425 286 c 256
 426 284 429 283 430 285 c 256
 474 332 543 404 621 419 c 257
EndSplineSet
Validated: 33
PickledDataWithLists: "(dp1
S'com.fontlab.hintData'
p2
(dp3
S'vhints'
p4
(lp5
(dp6
S'position'
p7
I34
sS'width'
p8
I67
sasS'hhints'
p9
(lp10
(dp11
g7
I41
sg8
I56
sa(dp12
g7
I362
sg8
I60
sass."
EndChar

StartChar: infinity
Encoding: 224 8734 224
GlifName: infinity
Width: 821
VWidth: 0
GlyphClass: 2
Flags: W
HStem: 43 57<544 603> 362 60<200.5 267.5>
VStem: 34 67<170.5 239 170.5 245> 704 69<230.5 293>
LayerCount: 2
Fore
SplineSet
614 367 m 256
 557 367 485 286 445 246 c 256
 444 245 443 244 444 243 c 256
 476 185 512 100 576 100 c 256
 653 100 704 197 704 264 c 256
 704 322 670 367 614 367 c 256
235 362 m 256
 164 362 101 279 101 199 c 256
 101 142 135 97 190 97 c 256
 251 97 314 172 363 218 c 256
 364 219 364 219 363 220 c 256
 340 259 300 362 235 362 c 256
257 422 m 256
 347 422 396 334 425 286 c 256
 426 284 430 283 431 285 c 256
 480 338 560 422 650 422 c 256
 726 422 773 359 773 281 c 256
 773 156 660 43 546 43 c 256
 424 43 388 180 378 180 c 258
 377 180 l 257
 315 117 244 41 153 41 c 256
 78 41 34 104 34 182 c 256
 34 308 144 422 257 422 c 256
EndSplineSet
Validated: 1
PickledDataWithLists: "(dp1
S'com.fontlab.hintData'
p2
(dp3
S'vhints'
p4
(lp5
(dp6
S'position'
p7
I34
sS'width'
p8
I67
sa(dp9
g7
I704
sg8
I69
sasS'hhints'
p10
(lp11
(dp12
g7
I43
sg8
I57
sa(dp13
g7
I362
sg8
I60
sass."
EndChar

StartChar: notequal
Encoding: 225 8800 225
GlifName: notequal
Width: 522
VWidth: 0
GlyphClass: 2
Flags: W
HStem: 117 56<40 153 21 193 241 435 40 201> 259 56<343 462 302 481>
LayerCount: 2
Fore
SplineSet
343 315 m 257
 481 315 l 258
 484 315 487 316 487 312 c 256
 487 303 471 270 469 265 c 258
 462 259 l 257
 302 259 l 257
 241 173 l 257
 453 173 l 258
 457 173 460 175 459 168 c 256
 457 159 451 145 441 123 c 256
 435 117 l 257
 201 117 l 257
 128 13 l 257
 128 13 128 11 124 11 c 256
 121 11 105 15 96 31 c 256
 97 38 l 257
 153 117 l 257
 21 117 l 257
 21 117 16 117 16 124 c 256
 16 130 20 140 33 168 c 256
 40 173 l 257
 193 173 l 257
 254 259 l 257
 48 259 l 257
 343 315 l 257
EndSplineSet
Validated: 1
PickledDataWithLists: "(dp1
S'com.fontlab.hintData'
p2
(dp3
S'hhints'
p4
(lp5
(dp6
S'position'
p7
I117
sS'width'
p8
I56
sa(dp9
g7
I259
sg8
I56
sass."
EndChar

StartChar: lessequal
Encoding: 226 8804 226
GlifName: lessequal
Width: 464
VWidth: 0
GlyphClass: 2
Flags: W
HStem: 6 56<-16.5 354 2 337>
LayerCount: 2
Fore
SplineSet
2 62 m 257
 354 62 l 258
 357 62 358 59 358 53 c 256
 358 39 349 19 337 6 c 257
 -15 6 l 258
 -18 6 -20 9 -20 15 c 256
 -20 29 -9 48 2 62 c 257
435 529 m 257
 439 524 448 505 448 488 c 256
 448 483 447 477 443 475 c 258
 107 310 l 257
 383 142 l 257
 383 124 365 87 359 87 c 256
 358 87 357 87 355 88 c 258
 44 279 l 258
 36 284 33 292 33 302 c 256
 33 327 44 336 56 342 c 258
 435 529 l 257
EndSplineSet
Validated: 1
PickledDataWithLists: "(dp1
S'com.fontlab.hintData'
p2
(dp3
S'hhints'
p4
(lp5
(dp6
S'position'
p7
I6
sS'width'
p8
I56
sass."
EndChar

StartChar: greaterequal
Encoding: 227 8805 227
GlifName: greaterequal
Width: 466
VWidth: 0
GlyphClass: 2
Flags: W
HStem: 6 56<14.5 385 33 368>
LayerCount: 2
Fore
SplineSet
33 62 m 257
 385 62 l 258
 388 62 389 59 389 53 c 256
 389 39 380 19 368 6 c 257
 16 6 l 258
 13 6 11 9 11 15 c 256
 11 29 22 48 33 62 c 257
41 88 m 257
 35 96 28 125 28 134 c 256
 28 138 30 140 34 142 c 258
 375 310 l 257
 104 475 l 257
 104 500 120 530 126 530 c 256
 128 530 130 530 132 529 c 258
 439 342 l 258
 446 338 451 331 451 322 c 256
 451 320 450 290 427 279 c 258
 41 88 l 257
EndSplineSet
Validated: 1
PickledDataWithLists: "(dp1
S'com.fontlab.hintData'
p2
(dp3
S'hhints'
p4
(lp5
(dp6
S'position'
p7
I6
sS'width'
p8
I56
sass."
EndChar

StartChar: partialdiff
Encoding: 228 8706 228
GlifName: partialdiff
Width: 439
VWidth: 0
GlyphClass: 2
Flags: W
HStem: -5 32<135.5 204 135.5 245> 376 32<197 254> 589 42<224.5 279>
VStem: 24 77<125 179.5> 318 62<398.5 413.5>
LayerCount: 2
Fore
SplineSet
225 376 m 256
 169 376 101 251 101 145 c 256
 101 105 111 27 160 27 c 256
 248 27 300 223 300 262 c 256
 300 343 283 376 225 376 c 256
318 404 m 256
 318 423 329 589 229 589 c 256
 195 589 169 573 152 549 c 257
 149 549 145 562 146 567 c 257
 156 587 194 631 255 631 c 256
 316 631 380 585 380 418 c 256
 380 290 354 -5 136 -5 c 256
 59 -5 24 59 24 132 c 256
 24 227 99 408 241 408 c 256
 289 408 311 379 316 375 c 257
 317 382 318 393 318 404 c 256
EndSplineSet
Validated: 33
PickledDataWithLists: "(dp1
S'com.fontlab.hintData'
p2
(dp3
S'vhints'
p4
(lp5
(dp6
S'position'
p7
I24
sS'width'
p8
I77
sa(dp9
g7
I318
sg8
I62
sasS'hhints'
p10
(lp11
(dp12
g7
I-5
sg8
I32
sa(dp13
g7
I376
sg8
I32
sa(dp14
g7
I589
sg8
I42
sass."
EndChar

StartChar: gravecomb
Encoding: 229 768 229
GlifName: gravecomb
Width: 0
VWidth: 0
GlyphClass: 4
Flags: W
HStem: 490 131<-322.5 -190.5>
VStem: -355 171<498.5 602.5>
LayerCount: 2
Fore
SplineSet
-192 490 m 256
 -207 490 -355 572 -355 591 c 256
 -355 614 -329 621 -316 621 c 256
 -301 621 -289 618 -279 611 c 256
 -266 602 -184 508 -184 500 c 256
 -184 497 -189 490 -192 490 c 256
EndSplineSet
Validated: 1
PickledDataWithLists: "(dp1
S'com.fontlab.hintData'
p2
(dp3
S'vhints'
p4
(lp5
(dp6
S'position'
p7
I-355
sS'width'
p8
I171
sasS'hhints'
p9
(lp10
(dp11
g7
I490
sg8
I131
sass."
EndChar

StartChar: acutecomb
Encoding: 230 769 230
GlifName: acutecomb
Width: 0
VWidth: 0
GlyphClass: 4
Flags: W
HStem: 490 131<-326.5 -194.5>
VStem: -333 171<498.5 602.5>
LayerCount: 2
Fore
SplineSet
-325 490 m 256
 -328 490 -333 497 -333 500 c 256
 -333 508 -251 602 -238 611 c 256
 -228 618 -216 621 -201 621 c 256
 -188 621 -162 614 -162 591 c 256
 -162 572 -310 490 -325 490 c 256
EndSplineSet
Validated: 1
PickledDataWithLists: "(dp1
S'com.fontlab.hintData'
p2
(dp3
S'vhints'
p4
(lp5
(dp6
S'position'
p7
I-333
sS'width'
p8
I171
sasS'hhints'
p9
(lp10
(dp11
g7
I490
sg8
I131
sass."
EndChar

StartChar: uni0302
Encoding: 231 770 231
GlifName: uni0302
Width: 0
VWidth: 0
GlyphClass: 4
Flags: W
HStem: 490 135<-361.5 -238 -242 -173.5>
VStem: -368 205<501 501>
LayerCount: 2
Fore
SplineSet
-240 625 m 256
 -236 625 -233 621 -231 617 c 256
 -206 570 -192 546 -163 501 c 257
 -164 495 -171 490 -176 490 c 257
 -207 514 -254 554 -254 554 c 257
 -254 554 -320 515 -359 490 c 257
 -364 490 -369 495 -368 501 c 257
 -321 546 -296 570 -252 617 c 256
 -248 621 -244 625 -240 625 c 256
EndSplineSet
Validated: 1
PickledDataWithLists: "(dp1
S'com.fontlab.hintData'
p2
(dp3
S'vhints'
p4
(lp5
(dp6
S'position'
p7
I-368
sS'width'
p8
I205
sasS'hhints'
p9
(lp10
(dp11
g7
I490
sg8
I135
sass."
EndChar

StartChar: tildecomb
Encoding: 232 771 232
GlifName: tildecomb
Width: 0
VWidth: 0
GlyphClass: 4
Flags: W
HStem: 490 42<-215.5 -160> 526 42<-342 -285.5>
VStem: -396 291
LayerCount: 2
Fore
SplineSet
-297 568 m 256
 -274 568 -257 563 -241 555 c 256
 -221 546 -205 532 -176 532 c 256
 -144 532 -118 561 -111 568 c 257
 -108 567 -104 566 -105 559 c 256
 -107 545 -117 530 -126 522 c 256
 -152 498 -177 490 -204 490 c 256
 -227 490 -242 496 -259 504 c 256
 -278 513 -297 526 -326 526 c 256
 -358 526 -384 497 -391 490 c 257
 -394 491 -397 493 -396 500 c 256
 -394 514 -385 528 -376 536 c 256
 -350 560 -324 568 -297 568 c 256
EndSplineSet
Validated: 8388609
PickledDataWithLists: "(dp1
S'com.fontlab.hintData'
p2
(dp3
S'vhints'
p4
(lp5
(dp6
S'position'
p7
I-396
sS'width'
p8
I291
sasS'hhints'
p9
(lp10
(dp11
g7
I490
sg8
I42
sa(dp12
g7
I526
sg8
I42
sass."
EndChar

StartChar: dotlessi
Encoding: 233 305 233
GlifName: dotlessi
Width: 262
VWidth: 0
GlyphClass: 2
Flags: W
HStem: -6 55<76.5 148.5> 380 55<94.5 161.5>
VStem: 53 75<31 76.5> 115 75<352.5 398>
LayerCount: 2
Fore
SplineSet
111 323 m 258
 112 329 115 350 115 355 c 256
 115 364 115 380 105 380 c 256
 84 380 38 325 35 322 c 257
 32 322 25 335 25 341 c 257
 36 360 104 435 151 435 c 256
 172 435 190 413 190 383 c 256
 190 375 187 351 183 330 c 258
 132 106 l 258
 130 96 128 79 128 74 c 256
 128 65 128 49 138 49 c 256
 159 49 205 104 208 107 c 257
 211 107 218 94 218 88 c 257
 207 69 134 -6 87 -6 c 256
 66 -6 53 16 53 46 c 256
 53 54 56 78 60 99 c 258
 111 323 l 258
EndSplineSet
Validated: 8388609
PickledDataWithLists: "(dp1
S'com.fontlab.hintData'
p2
(dp3
S'vhints'
p4
(lp5
(dp6
S'position'
p7
I53
sS'width'
p8
I75
sa(dp9
g7
I115
sg8
I75
sasS'hhints'
p10
(lp11
(dp12
g7
I-6
sg8
I55
sa(dp13
g7
I380
sg8
I55
sass."
Substitution2: "smcpLowercasetoSmallCapitalslookup4 subtable" dotlessi.sc
EndChar

StartChar: f_f
Encoding: 234 -1 234
GlifName: f_f
Width: 554
VWidth: 0
GlyphClass: 3
Flags: W
HStem: -233 41<-84.5 -73> -224 59<131.5 157.5> 361 46<84 103 191 359 446 555> 645 38<324 371.5> 661 38<583 588.5>
LayerCount: 2
Fore
SplineSet
371 683 m 256
 425 683 467 666 481 653 c 257
 505 676 563 699 603 699 c 256
 657 699 677 680 685 665 c 257
 685 633 678 600 649 600 c 256
 616 600 605 661 572 661 c 256
 485 661 447 438 443 413 c 257
 443 411 l 258
 443 409 444 407 446 407 c 258
 561 407 l 258
 565 407 566 400 566 395 c 256
 566 381 560 369 555 361 c 257
 438 361 l 258
 435 361 433 361 432 353 c 258
 389 106 l 257
 341 -140 190 -224 125 -224 c 256
 71 -224 39 -189 29 -175 c 257
 -6 -215 -53 -233 -93 -233 c 256
 -147 -233 -168 -206 -176 -191 c 257
 -176 -166 -165 -131 -136 -131 c 256
 -103 -131 -106 -192 -63 -192 c 256
 -18 -192 33 -73 44 -10 c 256
 48 12 49 21 53 46 c 258
 106 354 l 257
 106 356 l 258
 106 359 105 361 103 361 c 258
 38 361 l 258
 37 361 36 362 36 364 c 256
 36 374 61 407 84 407 c 258
 113 407 l 258
 116 407 118 412 119 416 c 256
 151 580 277 683 371 683 c 256
153 -165 m 256
 230 -165 277 -102 311 60 c 257
 362 354 l 257
 362 356 l 258
 362 359 361 361 359 361 c 258
 182 361 l 258
 179 361 177 361 176 353 c 258
 121 43 l 258
 109 -19 98 -59 76 -103 c 256
 75 -104 75 -106 75 -108 c 256
 75 -111 76 -115 76 -116 c 256
 80 -136 110 -165 153 -165 c 256
350 645 m 256
 273 645 216 561 194 454 c 256
 190 432 191 438 187 413 c 257
 187 411 l 258
 187 409 188 407 191 407 c 258
 369 407 l 258
 372 407 374 412 375 416 c 256
 387 478 412 551 430 584 c 256
 431 585 431 587 431 589 c 256
 431 592 430 596 430 597 c 256
 426 617 393 645 350 645 c 256
EndSplineSet
Validated: 8388609
PickledDataWithLists: "(dp1
S'com.fontlab.hintData'
p2
(dp3
S'hhints'
p4
(lp5
(dp6
S'position'
p7
I-233
sS'width'
p8
I41
sa(dp9
g7
I-224
sg8
I59
sa(dp10
g7
I361
sg8
I46
sa(dp11
g7
I645
sg8
I38
sa(dp12
g7
I661
sg8
I38
sass."
Ligature2: "ligaStandardLigatureslookup0 subtable" f f
EndChar

StartChar: f_i
Encoding: 235 -1 235
GlifName: f_i
Width: 520
VWidth: 0
GlyphClass: 3
Flags: W
HStem: -231 39<-82 -51.5> -6 55<324.5 396.5> 361 46<84 103> 366 52 661 38<297 329.5>
VStem: 301 75<31 76.5>
LayerCount: 2
Fore
SplineSet
431 330 m 258
 380 106 l 258
 378 96 376 79 376 74 c 256
 376 65 376 49 386 49 c 256
 407 49 453 104 456 107 c 257
 459 107 466 94 466 88 c 257
 455 69 382 -6 335 -6 c 256
 314 -6 301 16 301 46 c 256
 301 54 303 78 308 99 c 258
 352 293 l 258
 353 300 355 316 355 321 c 256
 355 343 348 366 329 366 c 256
 272 366 182 361 182 361 c 258
 179 361 177 361 176 353 c 258
 121 54 l 257
 87 -142 -8 -231 -95 -231 c 256
 -146 -231 -170 -207 -176 -190 c 257
 -177 -160 -159 -131 -135 -131 c 256
 -108 -131 -103 -192 -61 -192 c 256
 -6 -192 36 -42 46 15 c 258
 106 354 l 257
 106 356 l 258
 106 359 105 361 103 361 c 258
 38 361 l 258
 37 361 36 362 36 364 c 256
 36 374 61 407 84 407 c 258
 113 407 l 258
 116 407 118 412 119 416 c 256
 146 582 247 699 347 699 c 256
 401 699 418 686 433 672 c 256
 449 657 459 644 465 630 c 257
 465 602 451 566 420 566 c 256
 398 566 388 584 377 603 c 256
 363 628 348 661 311 661 c 256
 275 661 224 591 194 450 c 256
 192 438 189 426 187 413 c 258
 187 411 l 258
 187 409 188 407 190 407 c 256
 214 407 313 410 331 412 c 256
 352 414 423 418 425 418 c 256
 429 418 439 410 439 401 c 256
 439 396 436 351 431 330 c 258
EndSplineSet
Validated: 8388641
PickledDataWithLists: "(dp1
S'com.fontlab.hintData'
p2
(dp3
S'vhints'
p4
(lp5
(dp6
S'position'
p7
I301
sS'width'
p8
I75
sasS'hhints'
p9
(lp10
(dp11
g7
I-231
sg8
I39
sa(dp12
g7
I-6
sg8
I55
sa(dp13
g7
I361
sg8
I46
sa(dp14
g7
I366
sg8
I52
sa(dp15
g7
I661
sg8
I38
sass."
Ligature2: "ligaStandardLigatureslookup0 subtable" f i
EndChar

StartChar: f_f_i
Encoding: 236 -1 236
GlifName: f_f_i
Width: 781
VWidth: 0
GlyphClass: 3
Flags: W
HStem: -233 41<-84.5 -73> -224 47<114.5 157.5> -6 55<585.5 657.5> 361 46<84 103 191 359> 645 38<324 371.5> 661 38<588.5 590.5>
VStem: 562 75<31 76.5>
LayerCount: 2
Fore
SplineSet
590 366 m 258
 438 361 l 258
 435 361 433 361 432 353 c 258
 389 106 l 257
 341 -140 190 -224 125 -224 c 256
 71 -224 39 -189 29 -175 c 257
 -6 -215 -53 -233 -93 -233 c 256
 -147 -233 -168 -206 -176 -191 c 257
 -176 -166 -165 -131 -136 -131 c 256
 -103 -131 -106 -192 -63 -192 c 256
 -18 -192 33 -73 44 -10 c 256
 48 12 49 21 53 46 c 258
 106 354 l 257
 106 356 l 258
 106 359 105 361 103 361 c 258
 38 361 l 258
 37 361 36 362 36 364 c 256
 36 374 61 407 84 407 c 258
 113 407 l 258
 116 407 118 412 119 416 c 256
 151 580 277 683 371 683 c 256
 425 683 467 666 481 653 c 257
 505 676 569 699 608 699 c 256
 662 699 679 686 694 672 c 256
 710 657 720 644 726 630 c 257
 726 602 712 566 681 566 c 256
 659 566 649 584 638 603 c 256
 624 628 609 661 572 661 c 256
 486 661 447 438 443 413 c 257
 443 411 l 258
 443 409 444 407 446 407 c 258
 592 412 l 258
 613 414 684 418 686 418 c 256
 690 418 700 410 700 401 c 256
 700 396 697 351 692 330 c 258
 641 106 l 258
 639 96 637 79 637 74 c 256
 637 65 637 49 647 49 c 256
 668 49 714 104 717 107 c 257
 720 107 727 94 727 88 c 257
 716 69 643 -6 596 -6 c 256
 575 -6 562 16 562 46 c 256
 562 54 564 78 569 99 c 258
 613 293 l 258
 614 300 616 316 616 321 c 256
 616 343 609 366 590 366 c 258
76 -116 m 256
 80 -136 93 -177 136 -177 c 256
 194 -177 277 -102 311 60 c 257
 362 354 l 257
 362 356 l 258
 362 359 361 361 359 361 c 258
 182 361 l 258
 179 361 177 361 176 353 c 258
 121 43 l 258
 109 -19 98 -59 76 -103 c 256
 75 -104 75 -106 75 -108 c 256
 75 -111 76 -115 76 -116 c 256
350 645 m 256
 273 645 216 561 194 454 c 256
 190 432 191 438 187 413 c 257
 187 411 l 258
 187 409 188 407 191 407 c 258
 369 407 l 258
 372 407 374 412 375 416 c 256
 387 478 412 551 430 584 c 256
 431 585 431 587 431 589 c 256
 431 592 430 596 430 597 c 256
 426 617 393 645 350 645 c 256
EndSplineSet
Validated: 8388609
PickledDataWithLists: "(dp1
S'com.fontlab.hintData'
p2
(dp3
S'vhints'
p4
(lp5
(dp6
S'position'
p7
I562
sS'width'
p8
I75
sasS'hhints'
p9
(lp10
(dp11
g7
I-233
sg8
I41
sa(dp12
g7
I-224
sg8
I47
sa(dp13
g7
I-6
sg8
I55
sa(dp14
g7
I361
sg8
I46
sa(dp15
g7
I645
sg8
I38
sa(dp16
g7
I661
sg8
I38
sass."
Ligature2: "ligaStandardLigatureslookup0 subtable" f f i
EndChar

StartChar: f_l
Encoding: 237 -1 237
GlifName: f_l
Width: 530
VWidth: 0
GlyphClass: 3
Flags: W
HStem: -231 39<-82 -51.5> -6 55<344 416.5> 361 46<84 103 190 299> 661 38<297 352.5> 674 20<515 522.5>
VStem: 321 75<31 76.5>
LayerCount: 2
Fore
SplineSet
495 591 m 258
 400 106 l 258
 399 102 396 79 396 74 c 256
 396 65 396 49 406 49 c 256
 427 49 473 104 476 107 c 257
 479 107 486 94 486 88 c 257
 475 69 402 -6 355 -6 c 256
 333 -6 321 16 321 46 c 256
 321 54 324 78 328 99 c 258
 418 559 l 258
 419 563 422 585 422 589 c 256
 422 632 376 661 329 661 c 256
 263 661 215 579 187 413 c 257
 187 411 l 258
 187 409 189 407 190 407 c 258
 305 407 l 258
 309 407 310 400 310 395 c 256
 310 381 304 369 299 361 c 257
 182 361 l 258
 180 361 177 361 176 353 c 258
 121 54 l 257
 87 -142 -8 -231 -95 -231 c 256
 -146 -231 -170 -207 -176 -190 c 257
 -177 -160 -159 -131 -135 -131 c 256
 -108 -131 -103 -192 -61 -192 c 256
 -6 -192 36 -42 46 15 c 258
 106 354 l 257
 106 356 l 258
 106 359 105 361 103 361 c 258
 38 361 l 258
 37 361 36 362 36 364 c 256
 36 374 61 407 84 407 c 258
 113 407 l 258
 116 407 118 412 119 416 c 256
 146 582 247 699 347 699 c 256
 401 699 430 678 442 678 c 256
 464 678 510 694 520 694 c 256
 525 694 525 682 525 678 c 257
 525 678 506 646 495 591 c 258
EndSplineSet
Validated: 8388641
PickledDataWithLists: "(dp1
S'com.fontlab.hintData'
p2
(dp3
S'vhints'
p4
(lp5
(dp6
S'position'
p7
I321
sS'width'
p8
I75
sasS'hhints'
p9
(lp10
(dp11
g7
I-231
sg8
I39
sa(dp12
g7
I-6
sg8
I55
sa(dp13
g7
I361
sg8
I46
sa(dp14
g7
I661
sg8
I38
sa(dp15
g7
I674
sg8
I20
sass."
Ligature2: "ligaStandardLigatureslookup0 subtable" f l
EndChar

StartChar: f_f_l
Encoding: 238 -1 238
GlifName: f_f_l
Width: 791
VWidth: 0
GlyphClass: 3
Flags: W
HStem: -233 41<-84.5 -73> -224 47<114.5 157.5> -6 55<605 677.5> 361 46<84 103 191 359 451 560> 645 38<324 371.5> 661 38<588.5 613.5> 674 20<776 783.5>
VStem: 582 75<31 76.5>
LayerCount: 2
Fore
SplineSet
683 589 m 256
 683 632 637 661 590 661 c 256
 524 661 476 579 448 413 c 257
 448 411 l 258
 448 409 450 407 451 407 c 258
 566 407 l 258
 570 407 571 400 571 395 c 256
 571 381 565 369 560 361 c 257
 443 361 l 258
 441 361 439 361 437 353 c 258
 389 106 l 258
 342 -140 190 -224 125 -224 c 256
 71 -224 39 -189 29 -175 c 257
 -6 -215 -53 -233 -93 -233 c 256
 -147 -233 -168 -206 -176 -191 c 257
 -176 -166 -165 -131 -136 -131 c 256
 -103 -131 -106 -192 -63 -192 c 256
 -18 -192 33 -73 44 -10 c 256
 48 12 49 21 53 46 c 258
 106 354 l 257
 106 356 l 258
 106 359 105 361 103 361 c 258
 38 361 l 258
 37 361 36 362 36 364 c 256
 36 374 61 407 84 407 c 258
 113 407 l 258
 116 407 118 412 119 416 c 256
 151 580 277 683 371 683 c 256
 425 683 467 666 481 653 c 257
 505 676 569 699 608 699 c 256
 662 699 691 678 703 678 c 256
 725 678 771 694 781 694 c 256
 786 694 786 682 786 678 c 257
 786 678 767 646 756 591 c 258
 661 106 l 258
 660 102 657 79 657 74 c 256
 657 65 657 49 667 49 c 256
 688 49 734 104 737 107 c 257
 740 107 747 94 747 88 c 257
 736 69 663 -6 616 -6 c 256
 594 -6 582 16 582 46 c 256
 582 54 585 78 589 99 c 258
 679 559 l 258
 680 563 683 585 683 589 c 256
136 -177 m 256
 194 -177 277 -102 311 60 c 257
 362 354 l 257
 362 356 l 258
 362 359 361 361 359 361 c 258
 182 361 l 258
 179 361 177 361 176 353 c 258
 121 43 l 258
 109 -19 98 -59 76 -103 c 256
 75 -104 75 -106 75 -108 c 256
 75 -111 76 -115 76 -116 c 256
 80 -136 93 -177 136 -177 c 256
350 645 m 256
 273 645 216 561 194 454 c 256
 190 432 191 438 187 413 c 257
 187 411 l 258
 187 409 188 407 191 407 c 258
 369 407 l 258
 372 407 374 412 375 416 c 256
 387 478 412 551 430 584 c 256
 431 585 431 587 431 589 c 256
 431 592 430 596 430 597 c 256
 426 617 393 645 350 645 c 256
EndSplineSet
Validated: 8388609
PickledDataWithLists: "(dp1
S'com.fontlab.hintData'
p2
(dp3
S'vhints'
p4
(lp5
(dp6
S'position'
p7
I582
sS'width'
p8
I75
sasS'hhints'
p9
(lp10
(dp11
g7
I-233
sg8
I41
sa(dp12
g7
I-224
sg8
I47
sa(dp13
g7
I-6
sg8
I55
sa(dp14
g7
I361
sg8
I46
sa(dp15
g7
I645
sg8
I38
sa(dp16
g7
I661
sg8
I38
sa(dp17
g7
I674
sg8
I20
sass."
Ligature2: "ligaStandardLigatureslookup0 subtable" f f l
EndChar

StartChar: f_b
Encoding: 239 -1 239
GlifName: f_b
Width: 723
VWidth: 0
GlyphClass: 3
Flags: W
HStem: -231 39<-82 -51.5> -6 33<427.5 476.5> 361 46<84 103 190 299> 380 55<540.5 628> 661 38<297 352.5> 674 20<510 517.5>
VStem: 601 74<261.5 320.5>
LayerCount: 2
Fore
SplineSet
562 380 m 256
 519 380 426 266 405 156 c 256
 389 75 404 27 451 27 c 256
 535 27 601 221 601 302 c 256
 601 339 597 380 562 380 c 256
415 559 m 258
 416 564 420 585 420 589 c 256
 420 632 376 661 329 661 c 256
 263 661 215 579 187 413 c 257
 187 411 l 258
 187 409 189 407 190 407 c 258
 305 407 l 258
 309 407 310 400 310 395 c 256
 310 381 304 369 299 361 c 257
 182 361 l 258
 180 361 177 361 176 353 c 258
 121 54 l 257
 87 -142 -8 -231 -95 -231 c 256
 -146 -231 -170 -207 -176 -190 c 257
 -177 -160 -159 -131 -135 -131 c 256
 -108 -131 -103 -192 -61 -192 c 256
 -6 -192 36 -42 46 15 c 258
 106 354 l 257
 106 356 l 258
 106 359 105 361 103 361 c 258
 38 361 l 258
 37 361 36 362 36 364 c 256
 36 374 61 407 84 407 c 258
 113 407 l 258
 116 407 118 412 119 416 c 256
 146 582 247 699 347 699 c 256
 401 699 430 678 442 678 c 256
 464 678 505 694 515 694 c 256
 520 694 520 682 520 678 c 257
 520 678 503 645 492 591 c 258
 430 285 l 257
 500 402 573 435 605 435 c 256
 651 435 675 391 675 322 c 256
 675 142 530 -6 423 -6 c 256
 367 -6 330 37 330 111 c 256
 330 121 334 146 336 158 c 258
 415 559 l 258
EndSplineSet
Validated: 8388641
PickledDataWithLists: "(dp1
S'com.fontlab.hintData'
p2
(dp3
S'vhints'
p4
(lp5
(dp6
S'position'
p7
I601
sS'width'
p8
I74
sasS'hhints'
p9
(lp10
(dp11
g7
I-231
sg8
I39
sa(dp12
g7
I-6
sg8
I33
sa(dp13
g7
I361
sg8
I46
sa(dp14
g7
I380
sg8
I55
sa(dp15
g7
I661
sg8
I38
sa(dp16
g7
I674
sg8
I20
sass."
Ligature2: "ligaStandardLigatureslookup0 subtable" f b
EndChar

StartChar: f_f_b
Encoding: 240 -1 240
GlifName: f_f_b
Width: 985
VWidth: 0
GlyphClass: 3
Flags: W
HStem: -233 41<-84.5 -73> -224 47<114.5 157.5> -6 33<687.5 736.5> 361 46<84 103 191 359 451 560> 380 55<800.5 888> 645 38<324 371.5> 661 38<588.5 613.5> 674 20<771 778.5>
VStem: 861 74<261.5 320.5>
LayerCount: 2
Fore
SplineSet
822 380 m 256
 779 380 686 266 665 156 c 256
 649 75 664 27 711 27 c 256
 795 27 861 221 861 302 c 256
 861 339 857 380 822 380 c 256
681 589 m 256
 680 632 637 661 590 661 c 256
 524 661 476 579 448 413 c 257
 448 411 l 258
 448 409 450 407 451 407 c 258
 566 407 l 258
 570 407 571 400 571 395 c 256
 571 381 565 369 560 361 c 257
 443 361 l 258
 441 361 439 361 437 353 c 258
 389 106 l 258
 342 -140 190 -224 125 -224 c 256
 71 -224 39 -189 29 -175 c 257
 -6 -215 -53 -233 -93 -233 c 256
 -147 -233 -168 -206 -176 -191 c 257
 -176 -166 -165 -131 -136 -131 c 256
 -103 -131 -106 -192 -63 -192 c 256
 -18 -192 33 -73 44 -10 c 256
 48 12 49 21 53 46 c 258
 106 354 l 257
 106 356 l 258
 106 359 105 361 103 361 c 258
 38 361 l 258
 37 361 36 362 36 364 c 256
 36 374 61 407 84 407 c 258
 113 407 l 258
 116 407 118 412 119 416 c 256
 151 580 277 683 371 683 c 256
 425 683 467 666 481 653 c 257
 505 676 569 699 608 699 c 256
 662 699 691 678 703 678 c 256
 725 678 766 694 776 694 c 256
 781 694 781 682 781 678 c 257
 781 678 763 646 752 591 c 258
 690 285 l 257
 760 402 833 435 865 435 c 256
 911 435 935 391 935 322 c 256
 935 142 790 -6 683 -6 c 256
 627 -6 590 37 590 111 c 256
 590 121 594 146 596 158 c 258
 675 559 l 258
 676 564 680 585 681 589 c 256
136 -177 m 256
 194 -177 277 -102 311 60 c 257
 362 354 l 257
 362 356 l 258
 362 359 361 361 359 361 c 258
 182 361 l 258
 179 361 177 361 176 353 c 258
 121 43 l 258
 109 -19 98 -59 76 -103 c 256
 75 -104 75 -106 75 -108 c 256
 75 -111 76 -115 76 -116 c 256
 80 -136 93 -177 136 -177 c 256
350 645 m 256
 273 645 216 561 194 454 c 256
 190 432 191 438 187 413 c 257
 187 411 l 258
 187 409 188 407 191 407 c 258
 369 407 l 258
 372 407 374 412 375 416 c 256
 387 478 412 551 430 584 c 256
 431 585 431 587 431 589 c 256
 431 592 430 596 430 597 c 256
 426 617 393 645 350 645 c 256
EndSplineSet
Validated: 8388641
PickledDataWithLists: "(dp1
S'com.fontlab.hintData'
p2
(dp3
S'vhints'
p4
(lp5
(dp6
S'position'
p7
I861
sS'width'
p8
I74
sasS'hhints'
p9
(lp10
(dp11
g7
I-233
sg8
I41
sa(dp12
g7
I-224
sg8
I47
sa(dp13
g7
I-6
sg8
I33
sa(dp14
g7
I361
sg8
I46
sa(dp15
g7
I380
sg8
I55
sa(dp16
g7
I645
sg8
I38
sa(dp17
g7
I661
sg8
I38
sa(dp18
g7
I674
sg8
I20
sass."
Ligature2: "ligaStandardLigatureslookup0 subtable" f f b
EndChar

StartChar: f_k
Encoding: 241 -1 241
GlifName: f_k
Width: 743
VWidth: 0
GlyphClass: 3
Flags: W
HStem: -231 39<-82 -51.5> -4 55<549.5 641.5> 361 46<84 103 190 299> 388 47<569 590> 661 38<297 352.5> 674 20<515 522.5>
VStem: 609 78<321.5 363>
LayerCount: 2
Fore
SplineSet
576 388 m 256
 518 388 437 291 425 230 c 257
 492 230 609 271 609 354 c 256
 609 372 604 388 576 388 c 256
418 559 m 258
 419 564 422 585 422 589 c 256
 422 632 376 661 329 661 c 256
 263 661 215 579 187 413 c 257
 187 411 l 258
 187 409 189 407 190 407 c 258
 305 407 l 258
 309 407 310 400 310 395 c 256
 310 381 304 369 299 361 c 257
 182 361 l 258
 180 361 177 361 176 353 c 258
 121 54 l 257
 87 -142 -8 -231 -95 -231 c 256
 -146 -231 -170 -207 -176 -190 c 257
 -177 -160 -159 -131 -135 -131 c 256
 -108 -131 -103 -192 -61 -192 c 256
 -6 -192 36 -42 46 15 c 258
 106 354 l 257
 106 356 l 258
 106 359 105 361 103 361 c 258
 38 361 l 258
 37 361 36 362 36 364 c 256
 36 374 61 407 84 407 c 258
 113 407 l 258
 116 407 118 412 119 416 c 256
 146 582 247 699 347 699 c 256
 401 699 430 678 442 678 c 256
 464 678 510 694 520 694 c 256
 525 694 525 682 525 678 c 257
 525 678 506 646 495 591 c 258
 443 322 l 257
 448 326 526 435 612 435 c 256
 651 435 687 406 687 367 c 256
 687 276 587 230 476 211 c 257
 564 79 592 51 633 51 c 256
 650 51 690 93 701 107 c 257
 704 107 711 93 711 88 c 257
 703 74 633 -4 589 -4 c 256
 510 -4 460 119 417 191 c 257
 380 0 l 257
 369 -3 356 -5 345 -5 c 256
 334 -5 321 -3 309 0 c 257
 418 559 l 258
EndSplineSet
Validated: 8388641
PickledDataWithLists: "(dp1
S'com.fontlab.hintData'
p2
(dp3
S'vhints'
p4
(lp5
(dp6
S'position'
p7
I609
sS'width'
p8
I78
sasS'hhints'
p9
(lp10
(dp11
g7
I-231
sg8
I39
sa(dp12
g7
I-4
sg8
I55
sa(dp13
g7
I361
sg8
I46
sa(dp14
g7
I388
sg8
I47
sa(dp15
g7
I661
sg8
I38
sa(dp16
g7
I674
sg8
I20
sass."
Ligature2: "ligaStandardLigatureslookup0 subtable" f k
EndChar

StartChar: f_f_k
Encoding: 242 -1 242
GlifName: f_f_k
Width: 1004
VWidth: 0
GlyphClass: 3
Flags: W
HStem: -233 41<-84.5 -73> -224 47<114.5 157.5> -4 55<810.5 902.5> 361 46<84 103 191 359 451 560> 388 47<830 851> 645 38<324 371.5> 661 38<588.5 613.5> 674 20<776 783.5>
VStem: 870 78<321.5 363>
LayerCount: 2
Fore
SplineSet
837 388 m 256
 779 388 698 291 686 230 c 257
 753 230 870 271 870 354 c 256
 870 372 865 388 837 388 c 256
703 678 m 256
 725 678 771 694 781 694 c 256
 786 694 786 682 786 678 c 257
 786 678 767 646 756 591 c 258
 704 322 l 257
 709 326 787 435 873 435 c 256
 912 435 948 406 948 367 c 256
 948 276 848 230 737 211 c 257
 825 79 853 51 894 51 c 256
 911 51 951 93 962 107 c 257
 965 107 972 93 972 88 c 257
 964 74 894 -4 850 -4 c 256
 771 -4 721 119 678 191 c 257
 641 0 l 257
 630 -3 617 -5 606 -5 c 256
 595 -5 582 -3 570 0 c 257
 679 559 l 258
 680 564 683 585 683 589 c 256
 683 632 637 661 590 661 c 256
 524 661 476 579 448 413 c 257
 448 411 l 258
 448 409 450 407 451 407 c 258
 566 407 l 258
 570 407 571 400 571 395 c 256
 571 381 565 369 560 361 c 257
 443 361 l 258
 441 361 439 361 437 353 c 258
 389 106 l 258
 342 -140 190 -224 125 -224 c 256
 71 -224 39 -189 29 -175 c 257
 -6 -215 -53 -233 -93 -233 c 256
 -147 -233 -168 -206 -176 -191 c 257
 -176 -166 -165 -131 -136 -131 c 256
 -103 -131 -106 -192 -63 -192 c 256
 -18 -192 33 -73 44 -10 c 256
 48 12 49 21 53 46 c 258
 106 354 l 257
 106 356 l 258
 106 359 105 361 103 361 c 258
 38 361 l 258
 37 361 36 362 36 364 c 256
 36 374 61 407 84 407 c 258
 113 407 l 258
 116 407 118 412 119 416 c 256
 151 580 277 683 371 683 c 256
 425 683 467 666 481 653 c 257
 505 676 569 699 608 699 c 256
 662 699 691 678 703 678 c 256
136 -177 m 256
 194 -177 277 -102 311 60 c 257
 362 354 l 257
 362 356 l 258
 362 359 361 361 359 361 c 258
 182 361 l 258
 179 361 177 361 176 353 c 258
 121 43 l 258
 109 -19 98 -59 76 -103 c 256
 75 -104 75 -106 75 -108 c 256
 75 -111 76 -115 76 -116 c 256
 80 -136 93 -177 136 -177 c 256
350 645 m 256
 273 645 216 561 194 454 c 256
 190 432 191 438 187 413 c 257
 187 411 l 258
 187 409 188 407 191 407 c 258
 369 407 l 258
 372 407 374 412 375 416 c 256
 387 478 412 551 430 584 c 256
 431 585 431 587 431 589 c 256
 431 592 430 596 430 597 c 256
 426 617 393 645 350 645 c 256
EndSplineSet
Validated: 8388609
PickledDataWithLists: "(dp1
S'com.fontlab.hintData'
p2
(dp3
S'vhints'
p4
(lp5
(dp6
S'position'
p7
I870
sS'width'
p8
I78
sasS'hhints'
p9
(lp10
(dp11
g7
I-233
sg8
I41
sa(dp12
g7
I-224
sg8
I47
sa(dp13
g7
I-4
sg8
I55
sa(dp14
g7
I361
sg8
I46
sa(dp15
g7
I388
sg8
I47
sa(dp16
g7
I645
sg8
I38
sa(dp17
g7
I661
sg8
I38
sa(dp18
g7
I674
sg8
I20
sass."
Ligature2: "ligaStandardLigatureslookup0 subtable" f f k
EndChar

StartChar: f_h
Encoding: 243 -1 243
GlifName: f_h
Width: 752
VWidth: 0
GlyphClass: 3
Flags: W
HStem: -231 39<-82 -51.5> -6 55<577 649.5> 361 74<592 592.5> 361 46<84 103 190 299> 661 38<297 352.5> 674 20<516 523.5>
VStem: 554 75<31 76.5> 603 77<312.5 388>
LayerCount: 2
Fore
SplineSet
418 559 m 258
 419 564 422 585 422 589 c 256
 422 632 376 661 329 661 c 256
 263 661 215 579 187 413 c 257
 187 411 l 258
 187 409 189 407 190 407 c 258
 305 407 l 258
 309 407 310 400 310 395 c 256
 310 381 304 369 299 361 c 257
 182 361 l 258
 180 361 177 361 176 353 c 258
 121 54 l 257
 87 -142 -8 -231 -95 -231 c 256
 -146 -231 -170 -207 -176 -190 c 257
 -177 -160 -159 -131 -135 -131 c 256
 -108 -131 -103 -192 -61 -192 c 256
 -6 -192 36 -42 46 15 c 258
 106 354 l 257
 106 356 l 258
 106 359 105 361 103 361 c 258
 38 361 l 258
 37 361 36 362 36 364 c 256
 36 374 61 407 84 407 c 258
 113 407 l 258
 116 407 118 412 119 416 c 256
 146 582 247 699 347 699 c 256
 401 699 430 678 442 678 c 256
 464 678 511 694 521 694 c 256
 526 694 526 682 526 678 c 257
 526 678 506 646 495 591 c 258
 444 330 l 257
 426 238 l 257
 439 263 559 435 625 435 c 256
 664 435 680 407 680 369 c 256
 680 335 674 298 666 260 c 258
 633 106 l 258
 632 102 629 79 629 74 c 256
 629 65 629 49 639 49 c 256
 660 49 706 104 709 107 c 257
 712 107 719 94 719 88 c 257
 708 69 635 -6 588 -6 c 256
 566 -6 554 16 554 46 c 256
 554 54 556 78 561 99 c 258
 596 264 l 258
 598 273 603 307 603 318 c 256
 603 341 601 361 584 361 c 256
 548 361 428 236 405 119 c 256
 399 88 390 46 380 0 c 257
 370 -3 354 -4 344 -4 c 256
 334 -4 322 -3 310 0 c 257
 418 559 l 258
EndSplineSet
Validated: 8388641
PickledDataWithLists: "(dp1
S'com.fontlab.hintData'
p2
(dp3
S'vhints'
p4
(lp5
(dp6
S'position'
p7
I554
sS'width'
p8
I75
sa(dp9
g7
I603
sg8
I77
sasS'hhints'
p10
(lp11
(dp12
g7
I-231
sg8
I39
sa(dp13
g7
I-6
sg8
I55
sa(dp14
g7
I361
sg8
I74
sa(dp15
g7
I361
sg8
I46
sa(dp16
g7
I661
sg8
I38
sa(dp17
g7
I674
sg8
I20
sass."
Ligature2: "ligaStandardLigatureslookup0 subtable" f h
EndChar

